v -0.006633249577134848 -0.010750295594334602 0.02149999886751175
v -0.006633249577134848 -0.011155187152326107 0.02149999886751175
v -0.004836834967136383 -0.010822964832186699 0.02197396010160446
v 0.002911066636443138 -0.010584586299955845 0.022310884669423103
v 0.004836834967136383 -0.010822964832186699 0.02197396010160446
v 0.004836834967136383 -1.2712053631958042e-14 0.02197396010160446
v -0.0024326778948307037 -1.2823075934420558e-14 -0.02236810512840748
v -0.0024326778948307037 -0.010543926618993282 -0.02236810512840748
v -0.002911066636443138 -0.010584586299955845 -0.022310888394713402
v -0.006836042273789644 -0.010677224956452847 -0.021436385810375214
v -0.007184284273535013 -1.2878587085651816e-14 -0.02132219821214676
v -0.006025762762874365 -0.010747103951871395 -0.021678104996681213
v -0.006025762762874365 -0.010747103951871395 -0.021678104996681213
v -0.007184284273535013 -1.2878587085651816e-14 -0.02132219821214676
v -0.0024326778948307037 -1.2823075934420558e-14 -0.02236810512840748
v -0.006025762762874365 -0.010747103951871395 -0.021678104996681213
v -0.0024326778948307037 -1.2823075934420558e-14 -0.02236810512840748
v -0.005677348468452692 -0.01083866786211729 -0.021771950647234917
v -0.005677348468452692 -0.01083866786211729 -0.021771950647234917
v -0.0024326778948307037 -1.2823075934420558e-14 -0.02236810512840748
v -0.002911066636443138 -0.010584586299955845 -0.022310888394713402
v -0.005677348468452692 -0.01083866786211729 -0.021771950647234917
v -0.002911066636443138 -0.010584586299955845 -0.022310888394713402
v -0.0054614972323179245 -0.010926304385066032 -0.02182709611952305
v -0.0024326778948307037 -0.010543926618993282 -0.02236810512840748
v -0.0024326778948307037 -1.2823075934420558e-14 -0.02236810512840748
v 6.496886362228338e-13 -0.010449999943375587 -0.02250000275671482
v 6.496886362228338e-13 -0.010449999943375587 -0.02250000275671482
v -0.0024326778948307037 -1.2823075934420558e-14 -0.02236810512840748
v 0.0024326778948307037 -1.2712053631958042e-14 -0.02236810512840748
v 6.496886362228338e-13 -0.010449999943375587 -0.02250000275671482
v 0.0024326778948307037 -1.2712053631958042e-14 -0.02236810512840748
v 0.0024326778948307037 -0.010543926618993282 -0.02236810512840748
v 0.006184172350913286 -0.010720264166593552 -0.0216334480792284
v 0.005497423000633717 -0.010909744538366795 -0.021818075329065323
v 0.0024326778948307037 -1.2712053631958042e-14 -0.02236810512840748
v 0.006184172350913286 -0.010720264166593552 -0.0216334480792284
v 0.0024326778948307037 -1.2712053631958042e-14 -0.02236810512840748
v 0.00626278156414628 -0.010709691792726517 -0.021610822528600693
v 0.00626278156414628 -0.010709691792726517 -0.021610822528600693
v 0.0024326778948307037 -1.2712053631958042e-14 -0.02236810512840748
v 0.007184284273535013 -1.2656542480726785e-14 -0.02132219821214676
v 0.00626278156414628 -0.010709691792726517 -0.021610822528600693
v 0.007184284273535013 -1.2656542480726785e-14 -0.02132219821214676
v 0.007184171117842197 -0.010688157752156258 -0.021322237327694893
v 0.005497423000633717 -0.010909744538366795 -0.021818075329065323
v 0.005461765453219414 -0.010926351882517338 -0.021827029064297676
v 0.0024326778948307037 -1.2712053631958042e-14 -0.02236810512840748
v 0.0024326778948307037 -1.2712053631958042e-14 -0.02236810512840748
v 0.005461765453219414 -0.010926351882517338 -0.021827029064297676
v 0.002911066636443138 -0.010584586299955845 -0.022310888394713402
v 0.0024326778948307037 -1.2712053631958042e-14 -0.02236810512840748
v 0.002911066636443138 -0.010584586299955845 -0.022310888394713402
v 0.0024326778948307037 -0.010543926618993282 -0.02236810512840748
v 0.011432848870754242 -0.01191800832748413 -0.01937885582447052
v 0.010990984737873077 -0.011714339256286621 -0.019632838666439056
v 0.011599961668252945 -1.2656542480726785e-14 -0.01927928812801838
v 0.010990984737873077 -0.011714339256286621 -0.019632838666439056
v 0.009449114091694355 -0.011132230050861835 -0.020419703796505928
v 0.011599961668252945 -1.2656542480726785e-14 -0.01927928812801838
v 0.011599961668252945 -1.2656542480726785e-14 -0.01927928812801838
v 0.009449114091694355 -0.011132230050861835 -0.020419703796505928
v 0.007950439117848873 -0.010774153284728527 -0.021048529073596
v 0.011599961668252945 -1.2656542480726785e-14 -0.01927928812801838
v 0.007950439117848873 -0.010774153284728527 -0.021048529073596
v 0.007184284273535013 -1.2656542480726785e-14 -0.02132219821214676
v 0.007184284273535013 -1.2656542480726785e-14 -0.02132219821214676
v 0.007950439117848873 -0.010774153284728527 -0.021048529073596
v 0.00732395937666297 -0.010697922669351101 -0.0212746262550354
v 0.007184284273535013 -1.2656542480726785e-14 -0.02132219821214676
v 0.00732395937666297 -0.010697922669351101 -0.0212746262550354
v 0.007184171117842197 -0.010688157752156258 -0.021322237327694893
v 0.014708527363836765 -0.013847136870026588 -0.01702672243118286
v 0.013003118336200714 -0.012768704444169998 -0.01836216077208519
v 0.015473238192498684 -1.2601031329495527e-14 -0.01633490063250065
v 0.015473238192498684 -1.2601031329495527e-14 -0.01633490063250065
v 0.013003118336200714 -0.012768704444169998 -0.01836216077208519
v 0.012419749051332474 -0.01243212167173624 -0.018761660903692245
v 0.015473238192498684 -1.2601031329495527e-14 -0.01633490063250065
v 0.012419749051332474 -0.01243212167173624 -0.018761660903692245
v 0.011599961668252945 -1.2656542480726785e-14 -0.01927928812801838
v 0.011599961668252945 -1.2656542480726785e-14 -0.01927928812801838
v 0.012419749051332474 -0.01243212167173624 -0.018761660903692245
v 0.01160143967717886 -0.012000012211501598 -0.019278399646282196
v 0.011599961668252945 -1.2656542480726785e-14 -0.01927928812801838
v 0.01160143967717886 -0.012000012211501598 -0.019278399646282196
v 0.011432848870754242 -0.01191800832748413 -0.01937885582447052
v 0.018622146919369698 -0.016532016918063164 -0.012627971358597279
v 0.017530357465147972 -0.015768546611070633 -0.014104489237070084
v 0.018623001873493195 -1.2545520178264269e-14 -0.01262671034783125
v 0.018623001873493195 -1.2545520178264269e-14 -0.01262671034783125
v 0.017530357465147972 -0.015768546611070633 -0.014104489237070084
v 0.01632087491452694 -0.014999416656792164 -0.015488029457628727
v 0.018623001873493195 -1.2545520178264269e-14 -0.01262671034783125
v 0.01632087491452694 -0.014999416656792164 -0.015488029457628727
v 0.015473238192498684 -1.2601031329495527e-14 -0.01633490063250065
v 0.015473238192498684 -1.2601031329495527e-14 -0.01633490063250065
v 0.01632087491452694 -0.014999416656792164 -0.015488029457628727
v 0.01547407079488039 -0.014377896673977375 -0.016334110870957375
v 0.015473238192498684 -1.2601031329495527e-14 -0.01633490063250065
v 0.01547407079488039 -0.014377896673977375 -0.016334110870957375
v 0.014708527363836765 -0.013847136870026588 -0.01702672243118286
v 0.018622146919369698 -0.016532016918063164 -0.012627971358597279
v 0.018623001873493195 -1.2545520178264269e-14 -0.01262671034783125
v 0.019013123586773872 -0.016822556033730507 -0.012031259015202522
v 0.019013123586773872 -0.016822556033730507 -0.012031259015202522
v 0.018623001873493195 -1.2545520178264269e-14 -0.01262671034783125
v 0.02090197615325451 -1.2545520178264269e-14 -0.008328109048306942
v 0.019013123586773872 -0.016822556033730507 -0.012031259015202522
v 0.02090197615325451 -1.2545520178264269e-14 -0.008328109048306942
v 0.020039603114128113 -0.017631642520427704 -0.01023055985569954
v 0.0222035963088274 -1.2490009027033011e-14 -0.0036400961689651012
v 0.021670842543244362 -0.01907017081975937 -0.006051826290786266
v 0.02090197615325451 -1.2545520178264269e-14 -0.008328109048306942
v 0.02090197615325451 -1.2545520178264269e-14 -0.008328109048306942
v 0.021670842543244362 -0.01907017081975937 -0.006051826290786266
v 0.02090197615325451 -0.018367186188697815 -0.008328109048306942
v 0.02090197615325451 -1.2545520178264269e-14 -0.008328109048306942
v 0.02090197615325451 -0.018367186188697815 -0.008328109048306942
v 0.020039603114128113 -0.017631642520427704 -0.01023055985569954
v 0.022467002272605896 -1.2490009027033011e-14 0.0012181242927908897
v 0.02246616594493389 -0.019848840311169624 -0.0012334475759416819
v 0.0222035963088274 -1.2490009027033011e-14 -0.0036400961689651012
v 0.0222035963088274 -1.2490009027033011e-14 -0.0036400961689651012
v 0.02246616594493389 -0.019848840311169624 -0.0012334475759416819
v 0.0222035963088274 -0.019585656002163887 -0.0036400961689651012
v 0.0222035963088274 -1.2490009027033011e-14 -0.0036400961689651012
v 0.0222035963088274 -0.019585656002163887 -0.0036400961689651012
v 0.021670842543244362 -0.01907017081975937 -0.006051826290786266
v 0.021679874509572983 -1.2490009027033011e-14 0.00601938646286726
v 0.022201035171747208 -0.019583120942115784 0.0036556797567754984
v 0.022467002272605896 -1.2490009027033011e-14 0.0012181242927908897
v 0.022467002272605896 -1.2490009027033011e-14 0.0012181242927908897
v 0.022201035171747208 -0.019583120942115784 0.0036556797567754984
v 0.022467002272605896 -0.019849687814712524 0.0012181242927908897
v 0.022467002272605896 -1.2490009027033011e-14 0.0012181242927908897
v 0.022467002272605896 -0.019849687814712524 0.0012181242927908897
v 0.02246616594493389 -0.019848840311169624 -0.0012334475759416819
v 0.019879020750522614 -1.2545520178264269e-14 0.010539188981056213
v 0.02089095488190651 -0.018357442691922188 0.008355715312063694
v 0.021679874509572983 -1.2490009027033011e-14 0.00601938646286726
v 0.021679874509572983 -1.2490009027033011e-14 0.00601938646286726
v 0.02089095488190651 -0.018357442691922188 0.008355715312063694
v 0.021679874509572983 -0.019078711047768593 0.00601938646286726
v 0.021679874509572983 -1.2490009027033011e-14 0.00601938646286726
v 0.021679874509572983 -0.019078711047768593 0.00601938646286726
v 0.022201035171747208 -0.019583120942115784 0.0036556797567754984
v 0.017148645594716072 -1.2545520178264269e-14 0.014566190540790558
v 0.019013123586773872 -0.016822556033730507 0.012031257152557373
v 0.019879020750522614 -1.2545520178264269e-14 0.010539188981056213
v 0.019879020750522614 -1.2545520178264269e-14 0.010539188981056213
v 0.019013123586773872 -0.016822556033730507 0.012031257152557373
v 0.019879020750522614 -0.017500469461083412 0.010539188981056213
v 0.019879020750522614 -1.2545520178264269e-14 0.010539188981056213
v 0.019879020750522614 -0.017500469461083412 0.010539188981056213
v 0.02089095488190651 -0.018357442691922188 0.008355715312063694
v 0.01605766825377941 -0.014802324585616589 0.015760749578475952
v 0.01632087118923664 -0.014999412931501865 0.015488033182919025
v 0.017148645594716072 -1.2545520178264269e-14 0.014566190540790558
v 0.017148645594716072 -1.2545520178264269e-14 0.014566190540790558
v 0.01632087118923664 -0.014999412931501865 0.015488033182919025
v 0.017148645594716072 -0.015517431311309338 0.014566190540790558
v 0.017148645594716072 -1.2545520178264269e-14 0.014566190540790558
v 0.017148645594716072 -0.015517431311309338 0.014566190540790558
v 0.019013123586773872 -0.016822556033730507 0.012031257152557373
v 0.011726122349500656 -0.01205300260335207 0.019202811643481255
v 0.013529538176953793 -0.013086470775306225 0.01797780580818653
v 0.013616419397294521 -1.2601031329495527e-14 0.017912091687321663
v 0.013616419397294521 -1.2601031329495527e-14 0.017912091687321663
v 0.013529538176953793 -0.013086470775306225 0.01797780580818653
v 0.013616847805678844 -0.01314047072082758 0.017911767587065697
v 0.013616419397294521 -1.2601031329495527e-14 0.017912091687321663
v 0.013616847805678844 -0.01314047072082758 0.017911767587065697
v 0.017148645594716072 -1.2545520178264269e-14 0.014566190540790558
v 0.017148645594716072 -1.2545520178264269e-14 0.014566190540790558
v 0.013616847805678844 -0.01314047072082758 0.017911767587065697
v 0.015219721011817455 -0.014198300428688526 0.01657136157155037
v 0.017148645594716072 -1.2545520178264269e-14 0.014566190540790558
v 0.015219721011817455 -0.014198300428688526 0.01657136157155037
v 0.01605766825377941 -0.014802324585616589 0.015760749578475952
v 0.004836834967136383 -0.010822964832186699 0.02197396010160446
v 0.006633249577134848 -0.011155187152326107 0.02149999886751175
v 0.006633249577134848 -0.010750404559075832 0.02149999886751175
v 0.006633249577134848 -0.010750404559075832 0.02149999886751175
v 0.006650835741311312 -0.010604910552501678 0.021494563668966293
v 0.004836834967136383 -0.010822964832186699 0.02197396010160446
v 0.004836834967136383 -0.010822964832186699 0.02197396010160446
v 0.006650835741311312 -0.010604910552501678 0.021494563668966293
v 0.006702277343720198 -0.01048764493316412 0.021478580310940742
v 0.004836834967136383 -0.010822964832186699 0.02197396010160446
v 0.006702277343720198 -0.01048764493316412 0.021478580310940742
v 0.004836834967136383 -1.2712053631958042e-14 0.02197396010160446
v 0.004836834967136383 -1.2712053631958042e-14 0.02197396010160446
v 0.006702277343720198 -0.01048764493316412 0.021478580310940742
v 0.006788003258407116 -0.010395205579698086 0.021451640874147415
v 0.006788003258407116 -0.010395205579698086 0.021451640874147415
v 0.006923093926161528 -0.010322745889425278 0.021408425644040108
v 0.004836834967136383 -1.2712053631958042e-14 0.02197396010160446
v 0.004836834967136383 -1.2712053631958042e-14 0.02197396010160446
v 0.006923093926161528 -0.010322745889425278 0.021408425644040108
v 0.007139883004128933 -0.010278874076902866 0.021337103098630905
v 0.004836834967136383 -1.2712053631958042e-14 0.02197396010160446
v 0.007139883004128933 -0.010278874076902866 0.021337103098630905
v 0.00944750476628542 -1.2656542480726785e-14 0.020420445129275322
v 0.00944750476628542 -1.2656542480726785e-14 0.020420445129275322
v 0.007139883004128933 -0.010278874076902866 0.021337103098630905
v 0.007508781272917986 -0.010294961743056774 0.021210094913840294
v 0.007508781272917986 -0.010294961743056774 0.021210094913840294
v 0.008287118747830391 -0.01050428207963705 0.020918259397149086
v 0.00944750476628542 -1.2656542480726785e-14 0.020420445129275322
v 0.00944750476628542 -1.2656542480726785e-14 0.020420445129275322
v 0.008287118747830391 -0.01050428207963705 0.020918259397149086
v 0.009449838660657406 -0.010966992937028408 0.020419364795088768
v 0.00944750476628542 -1.2656542480726785e-14 0.020420445129275322
v 0.009449838660657406 -0.010966992937028408 0.020419364795088768
v 0.013616419397294521 -1.2601031329495527e-14 0.017912091687321663
v 0.013616419397294521 -1.2601031329495527e-14 0.017912091687321663
v 0.009449838660657406 -0.010966992937028408 0.020419364795088768
v 0.009817308746278286 -0.011126081459224224 0.020245255902409554
v 0.013616419397294521 -1.2601031329495527e-14 0.017912091687321663
v 0.009817308746278286 -0.011126081459224224 0.020245255902409554
v 0.011726122349500656 -0.01205300260335207 0.019202811643481255
v 0.002911066636443138 -0.010584586299955845 0.022310884669423103
v 0.004836834967136383 -1.2712053631958042e-14 0.02197396010160446
v -3.591790118662175e-06 -0.010449999943375587 0.022499997168779373
v -3.591790118662175e-06 -0.010449999943375587 0.022499997168779373
v 0.004836834967136383 -1.2712053631958042e-14 0.02197396010160446
v 6.52515368126938e-13 -1.27675647831893e-14 0.022499999031424522
v -3.591790118662175e-06 -0.010449999943375587 0.022499997168779373
v 6.52515368126938e-13 -1.27675647831893e-14 0.022499999031424522
v -0.002911066636443138 -0.010584586299955845 0.022310884669423103
v -0.002911066636443138 -0.010584586299955845 0.022310884669423103
v 6.52515368126938e-13 -1.27675647831893e-14 0.022499999031424522
v -0.004836834967136383 -1.2823075934420558e-14 0.02197396010160446
v -0.002911066636443138 -0.010584586299955845 0.022310884669423103
v -0.004836834967136383 -1.2823075934420558e-14 0.02197396010160446
v -0.004836834967136383 -0.010822964832186699 0.02197396010160446
v -0.008287100121378899 -0.01050429604947567 0.020918266847729683
v -0.00820738635957241 -0.0104753989726305 0.020949671044945717
v -0.00944750476628542 -1.2878587085651816e-14 0.020420445129275322
v -0.006964175961911678 -0.010309454053640366 0.02139509655535221
v -0.004836834967136383 -1.2823075934420558e-14 0.02197396010160446
v -0.007275978568941355 -0.010275188833475113 0.021291078999638557
v -0.007275978568941355 -0.010275188833475113 0.021291078999638557
v -0.004836834967136383 -1.2823075934420558e-14 0.02197396010160446
v -0.00944750476628542 -1.2878587085651816e-14 0.020420445129275322
v -0.007275978568941355 -0.010275188833475113 0.021291078999638557
v -0.00944750476628542 -1.2878587085651816e-14 0.020420445129275322
v -0.008006424643099308 -0.010409219190478325 0.02102729305624962
v -0.008006424643099308 -0.010409219190478325 0.02102729305624962
v -0.00944750476628542 -1.2878587085651816e-14 0.020420445129275322
v -0.00820738635957241 -0.0104753989726305 0.020949671044945717
v -0.006964175961911678 -0.010309454053640366 0.02139509655535221
v -0.006806310266256332 -0.010381796397268772 0.02144584059715271
v -0.004836834967136383 -1.2823075934420558e-14 0.02197396010160446
v -0.004836834967136383 -1.2823075934420558e-14 0.02197396010160446
v -0.006806310266256332 -0.010381796397268772 0.02144584059715271
v -0.006714012008160353 -0.01047071348875761 0.021474914625287056
v -0.004836834967136383 -1.2823075934420558e-14 0.02197396010160446
v -0.006714012008160353 -0.01047071348875761 0.021474914625287056
v -0.004836834967136383 -0.010822964832186699 0.02197396010160446
v -0.004836834967136383 -0.010822964832186699 0.02197396010160446
v -0.006714012008160353 -0.01047071348875761 0.021474914625287056
v -0.006651074625551701 -0.01060401275753975 0.021494491025805473
v -0.004836834967136383 -0.010822964832186699 0.02197396010160446
v -0.006651074625551701 -0.01060401275753975 0.021494491025805473
v -0.006633249577134848 -0.010750295594334602 0.02149999886751175
v -0.011428490281105042 -0.011897287331521511 0.01938142254948616
v -0.013616419397294521 -1.2934098236883074e-14 0.017912091687321663
v -0.013121810741722584 -0.012839184142649174 0.018277527764439583
v -0.013121810741722584 -0.012839184142649174 0.018277527764439583
v -0.013616419397294521 -1.2934098236883074e-14 0.017912091687321663
v -0.013618255034089088 -0.013141344301402569 0.01791069656610489
v -0.011428490281105042 -0.011897287331521511 0.01938142254948616
v -0.010990417562425137 -0.011675652116537094 0.019633151590824127
v -0.013616419397294521 -1.2934098236883074e-14 0.017912091687321663
v -0.013616419397294521 -1.2934098236883074e-14 0.017912091687321663
v -0.010990417562425137 -0.011675652116537094 0.019633151590824127
v -0.00964637752622366 -0.011051311157643795 0.020327255129814148
v -0.013616419397294521 -1.2934098236883074e-14 0.017912091687321663
v -0.00964637752622366 -0.011051311157643795 0.020327255129814148
v -0.00944750476628542 -1.2878587085651816e-14 0.020420445129275322
v -0.00944750476628542 -1.2878587085651816e-14 0.020420445129275322
v -0.00964637752622366 -0.011051311157643795 0.020327255129814148
v -0.009448756463825703 -0.010966535657644272 0.02041986584663391
v -0.00944750476628542 -1.2878587085651816e-14 0.020420445129275322
v -0.009448756463825703 -0.010966535657644272 0.02041986584663391
v -0.008287100121378899 -0.01050429604947567 0.020918266847729683
v -0.013618255034089088 -0.013141344301402569 0.01791069656610489
v -0.013616419397294521 -1.2934098236883074e-14 0.017912091687321663
v -0.014725948683917522 -0.013858890160918236 0.017011653631925583
v -0.014725948683917522 -0.013858890160918236 0.017011653631925583
v -0.013616419397294521 -1.2934098236883074e-14 0.017912091687321663
v -0.017148645594716072 -1.2989609388114332e-14 0.014566190540790558
v -0.014725948683917522 -0.013858890160918236 0.017011653631925583
v -0.017148645594716072 -1.2989609388114332e-14 0.014566190540790558
v -0.01632087305188179 -0.014999414794147015 0.015488029457628727
v -0.019879020750522614 -1.2989609388114332e-14 0.010539188981056213
v -0.019013123586773872 -0.016822556033730507 0.012031257152557373
v -0.017148645594716072 -1.2989609388114332e-14 0.014566190540790558
v -0.017148645594716072 -1.2989609388114332e-14 0.014566190540790558
v -0.019013123586773872 -0.016822556033730507 0.012031257152557373
v -0.017148645594716072 -0.015517431311309338 0.014566190540790558
v -0.017148645594716072 -1.2989609388114332e-14 0.014566190540790558
v -0.017148645594716072 -0.015517431311309338 0.014566190540790558
v -0.01632087305188179 -0.014999414794147015 0.015488029457628727
v -0.021679874509572983 -1.304512053934559e-14 0.00601938646286726
v -0.020889632403850555 -0.01835627481341362 0.008359022438526154
v -0.019879020750522614 -1.2989609388114332e-14 0.010539188981056213
v -0.019879020750522614 -1.2989609388114332e-14 0.010539188981056213
v -0.020889632403850555 -0.01835627481341362 0.008359022438526154
v -0.019879020750522614 -0.017500469461083412 0.010539188981056213
v -0.019879020750522614 -1.2989609388114332e-14 0.010539188981056213
v -0.019879020750522614 -0.017500469461083412 0.010539188981056213
v -0.019013123586773872 -0.016822556033730507 0.012031257152557373
v -0.022467002272605896 -1.304512053934559e-14 0.0012181242927908897
v -0.022199178114533424 -0.019581280648708344 0.003666939679533243
v -0.021679874509572983 -1.304512053934559e-14 0.00601938646286726
v -0.021679874509572983 -1.304512053934559e-14 0.00601938646286726
v -0.022199178114533424 -0.019581280648708344 0.003666939679533243
v -0.021679874509572983 -0.019078711047768593 0.00601938646286726
v -0.021679874509572983 -1.304512053934559e-14 0.00601938646286726
v -0.021679874509572983 -0.019078711047768593 0.00601938646286726
v -0.020889632403850555 -0.01835627481341362 0.008359022438526154
v -0.0222035963088274 -1.304512053934559e-14 -0.0036400961689651012
v -0.022466711699962616 -0.019849393516778946 -0.0012234615860506892
v -0.022467002272605896 -1.304512053934559e-14 0.0012181242927908897
v -0.022467002272605896 -1.304512053934559e-14 0.0012181242927908897
v -0.022466711699962616 -0.019849393516778946 -0.0012234615860506892
v -0.022467002272605896 -0.019849687814712524 0.0012181242927908897
v -0.022467002272605896 -1.304512053934559e-14 0.0012181242927908897
v -0.022467002272605896 -0.019849687814712524 0.0012181242927908897
v -0.022199178114533424 -0.019581280648708344 0.003666939679533243
v -0.02090197615325451 -1.2989609388114332e-14 -0.008328109048306942
v -0.02167118526995182 -0.019070493057370186 -0.00605060113593936
v -0.0222035963088274 -1.304512053934559e-14 -0.0036400961689651012
v -0.0222035963088274 -1.304512053934559e-14 -0.0036400961689651012
v -0.02167118526995182 -0.019070493057370186 -0.00605060113593936
v -0.0222035963088274 -0.019585656002163887 -0.0036400961689651012
v -0.0222035963088274 -1.304512053934559e-14 -0.0036400961689651012
v -0.0222035963088274 -0.019585656002163887 -0.0036400961689651012
v -0.022466711699962616 -0.019849393516778946 -0.0012234615860506892
v -0.018623001873493195 -1.2989609388114332e-14 -0.01262671034783125
v -0.018623001873493195 -0.016532642766833305 -0.01262671034783125
v -0.02090197615325451 -1.2989609388114332e-14 -0.008328109048306942
v -0.02090197615325451 -1.2989609388114332e-14 -0.008328109048306942
v -0.018623001873493195 -0.016532642766833305 -0.01262671034783125
v -0.01903446763753891 -0.016838688403367996 -0.011997462250292301
v -0.01903446763753891 -0.016838688403367996 -0.011997462250292301
v -0.02003592438995838 -0.017628619447350502 -0.010237759910523891
v -0.02090197615325451 -1.2989609388114332e-14 -0.008328109048306942
v -0.02090197615325451 -1.2989609388114332e-14 -0.008328109048306942
v -0.02003592438995838 -0.017628619447350502 -0.010237759910523891
v -0.02090197615325451 -0.018367186188697815 -0.008328109048306942
v -0.02090197615325451 -1.2989609388114332e-14 -0.008328109048306942
v -0.02090197615325451 -0.018367186188697815 -0.008328109048306942
v -0.02167118526995182 -0.019070493057370186 -0.00605060113593936
v -0.015473238192498684 -1.2934098236883074e-14 -0.01633490063250065
v -0.016320891678333282 -0.01499942597001791 -0.015488012693822384
v -0.018623001873493195 -1.2989609388114332e-14 -0.01262671034783125
v -0.018623001873493195 -1.2989609388114332e-14 -0.01262671034783125
v -0.016320891678333282 -0.01499942597001791 -0.015488012693822384
v -0.017531435936689377 -0.015769269317388535 -0.014103149063885212
v -0.018623001873493195 -1.2989609388114332e-14 -0.01262671034783125
v -0.017531435936689377 -0.015769269317388535 -0.014103149063885212
v -0.018623001873493195 -0.016532642766833305 -0.01262671034783125
v -0.015473238192498684 -1.2934098236883074e-14 -0.01633490063250065
v -0.013364016078412533 -0.012985113076865673 -0.018101191148161888
v -0.01445327140390873 -0.013676650822162628 -0.017243927344679832
v -0.01445327140390873 -0.013676650822162628 -0.017243927344679832
v -0.01507683377712965 -0.01409883238375187 -0.01670147106051445
v -0.015473238192498684 -1.2934098236883074e-14 -0.01633490063250065
v -0.015473238192498684 -1.2934098236883074e-14 -0.01633490063250065
v -0.01507683377712965 -0.01409883238375187 -0.01670147106051445
v -0.01547361258417368 -0.014377569779753685 -0.016334544867277145
v -0.015473238192498684 -1.2934098236883074e-14 -0.01633490063250065
v -0.01547361258417368 -0.014377569779753685 -0.016334544867277145
v -0.016320891678333282 -0.01499942597001791 -0.015488012693822384
v -0.006836042273789644 -0.010677224956452847 -0.021436385810375214
v -0.007185833528637886 -0.010688284412026405 -0.021321676671504974
v -0.007184284273535013 -1.2878587085651816e-14 -0.02132219821214676
v -0.007184284273535013 -1.2878587085651816e-14 -0.02132219821214676
v -0.007185833528637886 -0.010688284412026405 -0.021321676671504974
v -0.00797349400818348 -0.010777889750897884 -0.021039806306362152
v -0.007184284273535013 -1.2878587085651816e-14 -0.02132219821214676
v -0.00797349400818348 -0.010777889750897884 -0.021039806306362152
v -0.011599961668252945 -1.2878587085651816e-14 -0.01927928812801838
v -0.011599961668252945 -1.2878587085651816e-14 -0.01927928812801838
v -0.00797349400818348 -0.010777889750897884 -0.021039806306362152
v -0.008306865580379963 -0.010838531889021397 -0.02091042883694172
v -0.011599961668252945 -1.2878587085651816e-14 -0.01927928812801838
v -0.008306865580379963 -0.010838531889021397 -0.02091042883694172
v -0.009698775596916676 -0.011212632060050964 -0.020302310585975647
v -0.009698775596916676 -0.011212632060050964 -0.020302310585975647
v -0.011073041707277298 -0.011750935576856136 -0.019586674869060516
v -0.011599961668252945 -1.2878587085651816e-14 -0.01927928812801838
v -0.011599961668252945 -1.2878587085651816e-14 -0.01927928812801838
v -0.011073041707277298 -0.011750935576856136 -0.019586674869060516
v -0.011604558676481247 -0.012001561000943184 -0.01927652209997177
v -0.011599961668252945 -1.2878587085651816e-14 -0.01927928812801838
v -0.011604558676481247 -0.012001561000943184 -0.01927652209997177
v -0.015473238192498684 -1.2934098236883074e-14 -0.01633490063250065
v -0.015473238192498684 -1.2934098236883074e-14 -0.01633490063250065
v -0.011604558676481247 -0.012001561000943184 -0.01927652209997177
v -0.012419578619301319 -0.01243202667683363 -0.0187617726624012
v -0.015473238192498684 -1.2934098236883074e-14 -0.01633490063250065
v -0.012419578619301319 -0.01243202667683363 -0.0187617726624012
v -0.013364016078412533 -0.012985113076865673 -0.018101191148161888
v 6.52515368126938e-13 -1.27675647831893e-14 0.022499999031424522
v 0.004836834967136383 -1.2712053631958042e-14 0.02197396010160446
v 6.510408531723577e-13 -1.27675647831893e-14 -1.1493725970979085e-09
v -0.004836834967136383 -1.2823075934420558e-14 0.02197396010160446
v -0.017148645594716072 -1.2989609388114332e-14 0.014566190540790558
v -0.013616419397294521 -1.2934098236883074e-14 0.017912091687321663
v -0.00944750476628542 -1.2878587085651816e-14 0.020420445129275322
v -0.022467002272605896 -1.304512053934559e-14 0.0012181242927908897
v -0.021679874509572983 -1.304512053934559e-14 0.00601938646286726
v -0.019879020750522614 -1.2989609388114332e-14 0.010539188981056213
v -0.018623001873493195 -1.2989609388114332e-14 -0.01262671034783125
v -0.02090197615325451 -1.2989609388114332e-14 -0.008328109048306942
v -0.0222035963088274 -1.304512053934559e-14 -0.0036400961689651012
v -0.007184284273535013 -1.2878587085651816e-14 -0.02132219821214676
v -0.011599961668252945 -1.2878587085651816e-14 -0.01927928812801838
v -0.015473238192498684 -1.2934098236883074e-14 -0.01633490063250065
v 0.007184284273535013 -1.2656542480726785e-14 -0.02132219821214676
v 0.0024326778948307037 -1.2712053631958042e-14 -0.02236810512840748
v -0.0024326778948307037 -1.2823075934420558e-14 -0.02236810512840748
v 0.018623001873493195 -1.2545520178264269e-14 -0.01262671034783125
v 0.015473238192498684 -1.2601031329495527e-14 -0.01633490063250065
v 0.011599961668252945 -1.2656542480726785e-14 -0.01927928812801838
v 0.022467002272605896 -1.2490009027033011e-14 0.0012181242927908897
v 0.0222035963088274 -1.2490009027033011e-14 -0.0036400961689651012
v 0.02090197615325451 -1.2545520178264269e-14 -0.008328109048306942
v 0.017148645594716072 -1.2545520178264269e-14 0.014566190540790558
v 0.019879020750522614 -1.2545520178264269e-14 0.010539188981056213
v 0.021679874509572983 -1.2490009027033011e-14 0.00601938646286726
v 0.00944750476628542 -1.2656542480726785e-14 0.020420445129275322
v 0.013616419397294521 -1.2601031329495527e-14 0.017912091687321663
v 0.006633249577134848 -0.010750404559075832 0.02149999886751175
v 0.006633249577134848 -0.011155187152326107 0.02149999886751175
v 0.00741804763674736 -0.011334464885294437 0.02149999886751175
v -0.0024326778948307037 -0.010543926618993282 -0.02236810512840748
v 6.496886362228338e-13 -0.010449999943375587 -0.02250000275671482
v -0.002911066636443138 -0.010584586299955845 -0.02250000275671482
v -0.010679066181182861 -0.01231229119002819 0.02090834081172943
v -0.011388077400624752 -0.012576978653669357 0.020526865497231483
v -0.014063045382499695 -0.013757598586380482 0.03799999877810478
v -0.010679066181182861 -0.01231229119002819 0.02090834081172943
v -0.014063045382499695 -0.013757598586380482 0.03799999877810478
v -0.010424850508570671 -0.01222207210958004 0.02100556343793869
v -0.007962344214320183 -0.01147126592695713 0.02148388884961605
v -0.00863592978566885 -0.011654931120574474 0.02142069861292839
v -0.008634067140519619 -0.011654401198029518 0.03799999877810478
v -0.008634067140519619 -0.011654401198029518 0.03799999877810478
v -0.00863592978566885 -0.011654931120574474 0.02142069861292839
v -0.008900167420506477 -0.011731377802789211 0.021382974460721016
v -0.008634067140519619 -0.011654401198029518 0.03799999877810478
v -0.008900167420506477 -0.011731377802789211 0.021382974460721016
v -0.014063045382499695 -0.013757598586380482 0.03799999877810478
v -0.014063045382499695 -0.013757598586380482 0.03799999877810478
v -0.008900167420506477 -0.011731377802789211 0.021382974460721016
v -0.009124713949859142 -0.011798310093581676 0.021345071494579315
v -0.014063045382499695 -0.013757598586380482 0.03799999877810478
v -0.009124713949859142 -0.011798310093581676 0.021345071494579315
v -0.010424850508570671 -0.01222207210958004 0.02100556343793869
v -0.002911066636443138 -0.010584586299955845 0.03799999877810478
v -0.002911066636443138 -0.010584586299955845 0.022310884669423103
v -0.008634067140519619 -0.011654401198029518 0.03799999877810478
v -0.008634067140519619 -0.011654401198029518 0.03799999877810478
v -0.002911066636443138 -0.010584586299955845 0.022310884669423103
v -0.004836834967136383 -0.010822964832186699 0.02197396010160446
v -0.004836834967136383 -0.010822964832186699 0.02197396010160446
v -0.006633249577134848 -0.011155187152326107 0.02149999886751175
v -0.008634067140519619 -0.011654401198029518 0.03799999877810478
v -0.008634067140519619 -0.011654401198029518 0.03799999877810478
v -0.006633249577134848 -0.011155187152326107 0.02149999886751175
v -0.007418197579681873 -0.011334500275552273 0.02149999886751175
v -0.008634067140519619 -0.011654401198029518 0.03799999877810478
v -0.007418197579681873 -0.011334500275552273 0.02149999886751175
v -0.007962344214320183 -0.01147126592695713 0.02148388884961605
v 0.00741804763674736 -0.011334464885294437 0.02149999886751175
v 0.006633249577134848 -0.011155187152326107 0.02149999886751175
v 0.008634067140519619 -0.011654401198029518 0.03799999877810478
v 0.008634067140519619 -0.011654401198029518 0.03799999877810478
v 0.006633249577134848 -0.011155187152326107 0.02149999886751175
v 0.004836834967136383 -0.010822964832186699 0.02197396010160446
v 0.002911066636443138 -0.010584586299955845 0.03799999877810478
v 0.002911066636443138 -0.010584586299955845 0.03799999877810478
v 0.004836834967136383 -0.010822964832186699 0.02197396010160446
v 0.002911066636443138 -0.010584586299955845 0.022310884669423103
v 0.002911066636443138 -0.010584586299955845 0.03799999877810478
v 0.002911066636443138 -0.010584586299955845 0.022310884669423103
v -0.002911066636443138 -0.010584586299955845 0.03799999877810478
v -0.002911066636443138 -0.010584586299955845 0.03799999877810478
v 0.002911066636443138 -0.010584586299955845 0.022310884669423103
v -3.591790118662175e-06 -0.010449999943375587 0.022499997168779373
v -0.002911066636443138 -0.010584586299955845 0.03799999877810478
v -3.591790118662175e-06 -0.010449999943375587 0.022499997168779373
v -0.002911066636443138 -0.010584586299955845 0.022310884669423103
v 0.012488869950175285 -0.01302707102149725 0.019645078107714653
v 0.011388053186237812 -0.012576969340443611 0.020526885986328125
v 0.014063045382499695 -0.013757598586380482 0.03799999877810478
v 0.012488869950175285 -0.01302707102149725 0.019645078107714653
v 0.014063045382499695 -0.013757598586380482 0.03799999877810478
v 0.013356098905205727 -0.013416488654911518 0.01886574737727642
v 0.011388053186237812 -0.012576969340443611 0.020526885986328125
v 0.011205856688320637 -0.01250709779560566 0.020648915320634842
v 0.014063045382499695 -0.013757598586380482 0.03799999877810478
v 0.014063045382499695 -0.013757598586380482 0.03799999877810478
v 0.011205856688320637 -0.01250709779560566 0.020648915320634842
v 0.010842129588127136 -0.012371454387903214 0.020838022232055664
v 0.014063045382499695 -0.013757598586380482 0.03799999877810478
v 0.010842129588127136 -0.012371454387903214 0.020838022232055664
v 0.010299662128090858 -0.012178540229797363 0.021048802882432938
v 0.010299662128090858 -0.012178540229797363 0.021048802882432938
v 0.010108733549714088 -0.012113280594348907 0.021109689027071
v 0.014063045382499695 -0.013757598586380482 0.03799999877810478
v 0.014063045382499695 -0.013757598586380482 0.03799999877810478
v 0.010108733549714088 -0.012113280594348907 0.021109689027071
v 0.008804249577224255 -0.011703338474035263 0.02139752171933651
v 0.014063045382499695 -0.013757598586380482 0.03799999877810478
v 0.008804249577224255 -0.011703338474035263 0.02139752171933651
v 0.008634067140519619 -0.011654401198029518 0.03799999877810478
v 0.008634067140519619 -0.011654401198029518 0.03799999877810478
v 0.008804249577224255 -0.011703338474035263 0.02139752171933651
v 0.008634801022708416 -0.011654609814286232 0.02142084389925003
v 0.008634067140519619 -0.011654401198029518 0.03799999877810478
v 0.008634801022708416 -0.011654609814286232 0.02142084389925003
v 0.00741804763674736 -0.011334464885294437 0.02149999886751175
v 0.019013123586773872 -0.016822556033730507 0.03799999877810478
v 0.017148645594716072 -0.015517431311309338 0.014566190540790558
v 0.01632087118923664 -0.014999412931501865 0.015488033182919025
v 0.01632087118923664 -0.014999412931501865 0.015488033182919025
v 0.016150716692209244 -0.014897290617227554 0.015718771144747734
v 0.019013123586773872 -0.016822556033730507 0.03799999877810478
v 0.019013123586773872 -0.016822556033730507 0.03799999877810478
v 0.016150716692209244 -0.014897290617227554 0.015718771144747734
v 0.014908438548445702 -0.014194587245583534 0.017253711819648743
v 0.019013123586773872 -0.016822556033730507 0.03799999877810478
v 0.014908438548445702 -0.014194587245583534 0.017253711819648743
v 0.014063045382499695 -0.013757598586380482 0.03799999877810478
v 0.014063045382499695 -0.013757598586380482 0.03799999877810478
v 0.014908438548445702 -0.014194587245583534 0.017253711819648743
v 0.014077254571020603 -0.013764678500592709 0.018154215067625046
v 0.014063045382499695 -0.013757598586380482 0.03799999877810478
v 0.014077254571020603 -0.013764678500592709 0.018154215067625046
v 0.013356098905205727 -0.013416488654911518 0.01886574737727642
v 0.02090197615325451 -0.018367186188697815 -0.008328109048306942
v 0.021670842543244362 -0.01907017081975937 -0.006051826290786266
v 0.023315731436014175 -0.02074490301311016 -0.02250000275671482
v 0.021670842543244362 -0.01907017081975937 -0.006051826290786266
v 0.0222035963088274 -0.019585656002163887 -0.0036400961689651012
v 0.023315731436014175 -0.02074490301311016 -0.02250000275671482
v 0.023315731436014175 -0.02074490301311016 -0.02250000275671482
v 0.0222035963088274 -0.019585656002163887 -0.0036400961689651012
v 0.02246616594493389 -0.019848840311169624 -0.0012334475759416819
v 0.023315731436014175 -0.02074490301311016 -0.02250000275671482
v 0.02246616594493389 -0.019848840311169624 -0.0012334475759416819
v 0.022467002272605896 -0.019849687814712524 0.0012181242927908897
v 0.022467002272605896 -0.019849687814712524 0.0012181242927908897
v 0.022201035171747208 -0.019583120942115784 0.0036556797567754984
v 0.023315731436014175 -0.02074490301311016 0.03799999877810478
v 0.023315731436014175 -0.02074490301311016 0.03799999877810478
v 0.022201035171747208 -0.019583120942115784 0.0036556797567754984
v 0.021679874509572983 -0.019078711047768593 0.00601938646286726
v 0.021679874509572983 -0.019078711047768593 0.00601938646286726
v 0.02089095488190651 -0.018357442691922188 0.008355715312063694
v 0.023315731436014175 -0.02074490301311016 0.03799999877810478
v 0.023315731436014175 -0.02074490301311016 0.03799999877810478
v 0.02089095488190651 -0.018357442691922188 0.008355715312063694
v 0.019879020750522614 -0.017500469461083412 0.010539188981056213
v 0.023315731436014175 -0.02074490301311016 0.03799999877810478
v 0.019879020750522614 -0.017500469461083412 0.010539188981056213
v 0.019013123586773872 -0.016822556033730507 0.03799999877810478
v 0.019013123586773872 -0.016822556033730507 0.03799999877810478
v 0.019879020750522614 -0.017500469461083412 0.010539188981056213
v 0.019013123586773872 -0.016822556033730507 0.012031257152557373
v 0.019013123586773872 -0.016822556033730507 0.03799999877810478
v 0.019013123586773872 -0.016822556033730507 0.012031257152557373
v 0.017148645594716072 -0.015517431311309338 0.014566190540790558
v 0.014329942874610424 -0.013892078772187233 -0.01789003610610962
v 0.019013123586773872 -0.016822556033730507 -0.02250000275671482
v 0.014074827544391155 -0.013763468712568283 -0.018146200105547905
v 0.014074827544391155 -0.013763468712568283 -0.018146200105547905
v 0.019013123586773872 -0.016822556033730507 -0.02250000275671482
v 0.014063045382499695 -0.013757598586380482 -0.02250000275671482
v 0.014074827544391155 -0.013763468712568283 -0.018146200105547905
v 0.014063045382499695 -0.013757598586380482 -0.02250000275671482
v 0.013371139764785767 -0.013423522002995014 -0.018746180459856987
v 0.014329942874610424 -0.013892078772187233 -0.01789003610610962
v 0.015843624249100685 -0.014716633595526218 -0.016121841967105865
v 0.019013123586773872 -0.016822556033730507 -0.02250000275671482
v 0.019013123586773872 -0.016822556033730507 -0.02250000275671482
v 0.015843624249100685 -0.014716633595526218 -0.016121841967105865
v 0.01632087491452694 -0.014999416656792164 -0.015488029457628727
v 0.019013123586773872 -0.016822556033730507 -0.02250000275671482
v 0.01632087491452694 -0.014999416656792164 -0.015488029457628727
v 0.017530357465147972 -0.015768546611070633 -0.014104489237070084
v 0.017530357465147972 -0.015768546611070633 -0.014104489237070084
v 0.018622146919369698 -0.016532016918063164 -0.012627971358597279
v 0.019013123586773872 -0.016822556033730507 -0.02250000275671482
v 0.019013123586773872 -0.016822556033730507 -0.02250000275671482
v 0.018622146919369698 -0.016532016918063164 -0.012627971358597279
v 0.019013123586773872 -0.016822556033730507 -0.012031259015202522
v 0.019013123586773872 -0.016822556033730507 -0.02250000275671482
v 0.019013123586773872 -0.016822556033730507 -0.012031259015202522
v 0.023315731436014175 -0.02074490301311016 -0.02250000275671482
v 0.023315731436014175 -0.02074490301311016 -0.02250000275671482
v 0.019013123586773872 -0.016822556033730507 -0.012031259015202522
v 0.020039603114128113 -0.017631642520427704 -0.01023055985569954
v 0.023315731436014175 -0.02074490301311016 -0.02250000275671482
v 0.020039603114128113 -0.017631642520427704 -0.01023055985569954
v 0.02090197615325451 -0.018367186188697815 -0.008328109048306942
v 0.009887056425213814 -0.012039215303957462 -0.020684674382209778
v 0.014063045382499695 -0.013757598586380482 -0.02250000275671482
v 0.009051991626620293 -0.011776434257626534 -0.02099439688026905
v 0.009051991626620293 -0.011776434257626534 -0.02099439688026905
v 0.014063045382499695 -0.013757598586380482 -0.02250000275671482
v 0.008634067140519619 -0.011654401198029518 -0.02250000275671482
v 0.009887056425213814 -0.012039215303957462 -0.020684674382209778
v 0.011566036380827427 -0.012646476738154888 -0.019902586936950684
v 0.014063045382499695 -0.013757598586380482 -0.02250000275671482
v 0.014063045382499695 -0.013757598586380482 -0.02250000275671482
v 0.011566036380827427 -0.012646476738154888 -0.019902586936950684
v 0.012003929354250431 -0.012822814285755157 -0.019657820463180542
v 0.014063045382499695 -0.013757598586380482 -0.02250000275671482
v 0.012003929354250431 -0.012822814285755157 -0.019657820463180542
v 0.013371139764785767 -0.013423522002995014 -0.018746180459856987
v 0.006376845296472311 -0.011101159267127514 -0.021686026826500893
v 0.0072455559857189655 -0.011293251067399979 -0.02150866575539112
v 0.008634067140519619 -0.011654401198029518 -0.02250000275671482
v 0.008634067140519619 -0.011654401198029518 -0.02250000275671482
v 0.0072455559857189655 -0.011293251067399979 -0.02150866575539112
v 0.008638359606266022 -0.011655622161924839 -0.021130342036485672
v 0.008634067140519619 -0.011654401198029518 -0.02250000275671482
v 0.008638359606266022 -0.011655622161924839 -0.021130342036485672
v 0.009051991626620293 -0.011776434257626534 -0.02099439688026905
v 6.496886362228338e-13 -0.010449999943375587 -0.02250000275671482
v 0.0024326778948307037 -0.010543926618993282 -0.02236810512840748
v 0.002911066636443138 -0.010584586299955845 -0.02250000275671482
v 0.002911066636443138 -0.010584586299955845 -0.02250000275671482
v 0.0024326778948307037 -0.010543926618993282 -0.02236810512840748
v 0.002911066636443138 -0.010584586299955845 -0.022310888394713402
v 0.002911066636443138 -0.010584586299955845 -0.02250000275671482
v 0.002911066636443138 -0.010584586299955845 -0.022310888394713402
v 0.008634067140519619 -0.011654401198029518 -0.02250000275671482
v 0.008634067140519619 -0.011654401198029518 -0.02250000275671482
v 0.002911066636443138 -0.010584586299955845 -0.022310888394713402
v 0.005461765453219414 -0.010926351882517338 -0.021827029064297676
v 0.008634067140519619 -0.011654401198029518 -0.02250000275671482
v 0.005461765453219414 -0.010926351882517338 -0.021827029064297676
v 0.006376845296472311 -0.011101159267127514 -0.021686026826500893
v -0.008301826193928719 -0.011561830528080463 -0.021232783794403076
v -0.006448839791119099 -0.011116105131804943 -0.021672947332262993
v -0.008634067140519619 -0.011654401198029518 -0.02250000275671482
v -0.008634067140519619 -0.011654401198029518 -0.02250000275671482
v -0.006448839791119099 -0.011116105131804943 -0.021672947332262993
v -0.0054614972323179245 -0.010926304385066032 -0.02182709611952305
v -0.008634067140519619 -0.011654401198029518 -0.02250000275671482
v -0.0054614972323179245 -0.010926304385066032 -0.02182709611952305
v -0.002911066636443138 -0.010584586299955845 -0.02250000275671482
v -0.002911066636443138 -0.010584586299955845 -0.02250000275671482
v -0.0054614972323179245 -0.010926304385066032 -0.02182709611952305
v -0.002911066636443138 -0.010584586299955845 -0.022310888394713402
v -0.002911066636443138 -0.010584586299955845 -0.02250000275671482
v -0.002911066636443138 -0.010584586299955845 -0.022310888394713402
v -0.0024326778948307037 -0.010543926618993282 -0.02236810512840748
v -0.013659447431564331 -0.013560203835368156 -0.01851532980799675
v -0.01257254183292389 -0.0130632808431983 -0.01930915378034115
v -0.014063045382499695 -0.013757598586380482 -0.02250000275671482
v -0.01257254183292389 -0.0130632808431983 -0.01930915378034115
v -0.011316127143800259 -0.012549231760203838 -0.020034005865454674
v -0.014063045382499695 -0.013757598586380482 -0.02250000275671482
v -0.014063045382499695 -0.013757598586380482 -0.02250000275671482
v -0.011316127143800259 -0.012549231760203838 -0.020034005865454674
v -0.010071764700114727 -0.012100801803171635 -0.020609505474567413
v -0.014063045382499695 -0.013757598586380482 -0.02250000275671482
v -0.010071764700114727 -0.012100801803171635 -0.020609505474567413
v -0.008634067140519619 -0.011654401198029518 -0.02250000275671482
v -0.008634067140519619 -0.011654401198029518 -0.02250000275671482
v -0.010071764700114727 -0.012100801803171635 -0.020609505474567413
v -0.008638501167297363 -0.011655663140118122 -0.02113029547035694
v -0.008634067140519619 -0.011654401198029518 -0.02250000275671482
v -0.008638501167297363 -0.011655663140118122 -0.02113029547035694
v -0.008301826193928719 -0.011561830528080463 -0.021232783794403076
v -0.018623001873493195 -0.016532642766833305 -0.01262671034783125
v -0.017531435936689377 -0.015769269317388535 -0.014103149063885212
v -0.019013123586773872 -0.016822556033730507 -0.02250000275671482
v -0.019013123586773872 -0.016822556033730507 -0.02250000275671482
v -0.017531435936689377 -0.015769269317388535 -0.014103149063885212
v -0.016320891678333282 -0.01499942597001791 -0.015488012693822384
v -0.016320891678333282 -0.01499942597001791 -0.015488012693822384
v -0.014867202378809452 -0.014172517694532871 -0.017300594598054886
v -0.019013123586773872 -0.016822556033730507 -0.02250000275671482
v -0.019013123586773872 -0.016822556033730507 -0.02250000275671482
v -0.014867202378809452 -0.014172517694532871 -0.017300594598054886
v -0.014329914934933186 -0.013892063871026039 -0.017890064045786858
v -0.019013123586773872 -0.016822556033730507 -0.02250000275671482
v -0.014329914934933186 -0.013892063871026039 -0.017890064045786858
v -0.014063045382499695 -0.013757598586380482 -0.02250000275671482
v -0.014063045382499695 -0.013757598586380482 -0.02250000275671482
v -0.014329914934933186 -0.013892063871026039 -0.017890064045786858
v -0.014070730656385422 -0.013761426322162151 -0.018150096759200096
v -0.014063045382499695 -0.013757598586380482 -0.02250000275671482
v -0.014070730656385422 -0.013761426322162151 -0.018150096759200096
v -0.013659447431564331 -0.013560203835368156 -0.01851532980799675
v -0.020889632403850555 -0.01835627481341362 0.008359022438526154
v -0.021679874509572983 -0.019078711047768593 0.00601938646286726
v -0.023315731436014175 -0.02074490301311016 0.03799999877810478
v -0.023315731436014175 -0.02074490301311016 0.03799999877810478
v -0.021679874509572983 -0.019078711047768593 0.00601938646286726
v -0.022199178114533424 -0.019581280648708344 0.003666939679533243
v -0.023315731436014175 -0.02074490301311016 0.03799999877810478
v -0.022199178114533424 -0.019581280648708344 0.003666939679533243
v -0.022467002272605896 -0.019849687814712524 0.0012181242927908897
v -0.019013123586773872 -0.016822556033730507 0.03799999877810478
v -0.019013123586773872 -0.016822556033730507 0.012031257152557373
v -0.023315731436014175 -0.02074490301311016 0.03799999877810478
v -0.023315731436014175 -0.02074490301311016 0.03799999877810478
v -0.019013123586773872 -0.016822556033730507 0.012031257152557373
v -0.019879020750522614 -0.017500469461083412 0.010539188981056213
v -0.023315731436014175 -0.02074490301311016 0.03799999877810478
v -0.019879020750522614 -0.017500469461083412 0.010539188981056213
v -0.020889632403850555 -0.01835627481341362 0.008359022438526154
v -0.022466711699962616 -0.019849393516778946 -0.0012234615860506892
v -0.0222035963088274 -0.019585656002163887 -0.0036400961689651012
v -0.023315731436014175 -0.02074490301311016 -0.02250000275671482
v -0.023315731436014175 -0.02074490301311016 -0.02250000275671482
v -0.0222035963088274 -0.019585656002163887 -0.0036400961689651012
v -0.02167118526995182 -0.019070493057370186 -0.00605060113593936
v -0.02167118526995182 -0.019070493057370186 -0.00605060113593936
v -0.02090197615325451 -0.018367186188697815 -0.008328109048306942
v -0.023315731436014175 -0.02074490301311016 -0.02250000275671482
v -0.023315731436014175 -0.02074490301311016 -0.02250000275671482
v -0.02090197615325451 -0.018367186188697815 -0.008328109048306942
v -0.02003592438995838 -0.017628619447350502 -0.010237759910523891
v -0.023315731436014175 -0.02074490301311016 -0.02250000275671482
v -0.02003592438995838 -0.017628619447350502 -0.010237759910523891
v -0.019013123586773872 -0.016822556033730507 -0.02250000275671482
v -0.019013123586773872 -0.016822556033730507 -0.02250000275671482
v -0.02003592438995838 -0.017628619447350502 -0.010237759910523891
v -0.01903446763753891 -0.016838688403367996 -0.011997462250292301
v -0.019013123586773872 -0.016822556033730507 -0.02250000275671482
v -0.01903446763753891 -0.016838688403367996 -0.011997462250292301
v -0.018623001873493195 -0.016532642766833305 -0.01262671034783125
v -0.011388077400624752 -0.012576978653669357 0.020526865497231483
v -0.013103286735713482 -0.013299714773893356 0.01910117268562317
v -0.014063045382499695 -0.013757598586380482 0.03799999877810478
v -0.014063045382499695 -0.013757598586380482 0.03799999877810478
v -0.013103286735713482 -0.013299714773893356 0.01910117268562317
v -0.014077178202569485 -0.01376464031636715 0.018154291436076164
v -0.014063045382499695 -0.013757598586380482 0.03799999877810478
v -0.014077178202569485 -0.01376464031636715 0.018154291436076164
v -0.019013123586773872 -0.016822556033730507 0.03799999877810478
v -0.019013123586773872 -0.016822556033730507 0.03799999877810478
v -0.014077178202569485 -0.01376464031636715 0.018154291436076164
v -0.01470317505300045 -0.014085503295063972 0.017484694719314575
v -0.019013123586773872 -0.016822556033730507 0.03799999877810478
v -0.01470317505300045 -0.014085503295063972 0.017484694719314575
v -0.015589174814522266 -0.014570451341569424 0.016443483531475067
v -0.015589174814522266 -0.014570451341569424 0.016443483531475067
v -0.01632087305188179 -0.014999414794147015 0.015488029457628727
v -0.019013123586773872 -0.016822556033730507 0.03799999877810478
v -0.019013123586773872 -0.016822556033730507 0.03799999877810478
v -0.01632087305188179 -0.014999414794147015 0.015488029457628727
v -0.017148645594716072 -0.015517431311309338 0.014566190540790558
v -0.019013123586773872 -0.016822556033730507 0.03799999877810478
v -0.017148645594716072 -0.015517431311309338 0.014566190540790558
v -0.019013123586773872 -0.016822556033730507 0.012031257152557373
v 0.022467002272605896 -0.019849687814712524 0.0012181242927908897
v 0.023315731436014175 -0.02074490301311016 0.03799999877810478
v 0.023315731436014175 -0.02074490301311016 -0.02250000275671482
v 0.023315731436014175 -0.02074490301311016 -0.02250000275671482
v 0.023315731436014175 -0.02074490301311016 0.03799999877810478
v 0.026824351400136948 -0.02539106458425522 0.03799999877810478
v 0.026824351400136948 -0.02539106458425522 -0.02250000275671482
v 0.026824351400136948 -0.02539106458425522 -0.02250000275671482
v 0.026824351400136948 -0.02539106458425522 0.03799999877810478
v 0.02941949851810932 -0.030602825805544853 0.03799999877810478
v 0.02941949851810932 -0.030602825805544853 -0.02250000275671482
v 0.02941949851810932 -0.030602825805544853 -0.02250000275671482
v 0.02941949851810932 -0.030602825805544853 0.03799999877810478
v 0.031012801453471184 -0.036202702671289444 0.03799999877810478
v 0.031012801453471184 -0.036202702671289444 -0.02250000275671482
v 0.031012801453471184 -0.036202702671289444 -0.02250000275671482
v 0.031012801453471184 -0.036202702671289444 0.03799999877810478
v 0.031550001353025436 -0.041999999433755875 0.03799999877810478
v 0.031550001353025436 -0.041999999433755875 -0.02250000275671482
v 0.031550001353025436 -0.041999999433755875 -0.02250000275671482
v 0.031550001353025436 -0.041999999433755875 0.03799999877810478
v 0.031012801453471184 -0.047797296196222305 0.03799999877810478
v 0.031012801453471184 -0.047797296196222305 -0.02250000275671482
v 0.031012801453471184 -0.047797296196222305 -0.02250000275671482
v 0.031012801453471184 -0.047797296196222305 0.03799999877810478
v 0.02941949851810932 -0.053397174924612045 0.03799999877810478
v 0.02941949851810932 -0.053397174924612045 -0.02250000275671482
v 0.02941949851810932 -0.053397174924612045 -0.02250000275671482
v 0.02941949851810932 -0.053397174924612045 0.03799999877810478
v 0.026824351400136948 -0.05860893428325653 0.03799999877810478
v 0.026824351400136948 -0.05860893428325653 -0.02250000275671482
v 0.026824351400136948 -0.05860893428325653 -0.02250000275671482
v 0.026824351400136948 -0.05860893428325653 0.03799999877810478
v 0.023315731436014175 -0.06325509399175644 0.03799999877810478
v 0.023315731436014175 -0.06325509399175644 -0.02250000275671482
v 0.023315731436014175 -0.06325509399175644 -0.02250000275671482
v 0.023315731436014175 -0.06325509399175644 0.03799999877810478
v 0.019013123586773872 -0.06717744469642639 0.03799999877810478
v 0.019013123586773872 -0.06717744469642639 -0.02250000275671482
v 0.019013123586773872 -0.06717744469642639 -0.02250000275671482
v 0.019013123586773872 -0.06717744469642639 0.03799999877810478
v 0.014063045382499695 -0.07024240493774414 0.03799999877810478
v 0.014063045382499695 -0.07024240493774414 -0.02250000275671482
v 0.014063045382499695 -0.07024240493774414 -0.02250000275671482
v 0.014063045382499695 -0.07024240493774414 0.03799999877810478
v 0.008634067140519619 -0.07234559953212738 0.03799999877810478
v 0.008634067140519619 -0.07234559953212738 -0.02250000275671482
v 0.008634067140519619 -0.07234559953212738 -0.02250000275671482
v 0.008634067140519619 -0.07234559953212738 0.03799999877810478
v 0.002911066636443138 -0.07341541349887848 0.03799999877810478
v 0.002911066636443138 -0.07341541349887848 -0.02250000275671482
v 0.002911066636443138 -0.07341541349887848 -0.02250000275671482
v 0.002911066636443138 -0.07341541349887848 0.03799999877810478
v -0.002911066636443138 -0.07341541349887848 0.03799999877810478
v -0.002911066636443138 -0.07341541349887848 -0.02250000275671482
v -0.002911066636443138 -0.07341541349887848 -0.02250000275671482
v -0.002911066636443138 -0.07341541349887848 0.03799999877810478
v -0.008634067140519619 -0.07234559953212738 0.03799999877810478
v -0.008634067140519619 -0.07234559953212738 -0.02250000275671482
v -0.008634067140519619 -0.07234559953212738 -0.02250000275671482
v -0.008634067140519619 -0.07234559953212738 0.03799999877810478
v -0.014063045382499695 -0.07024240493774414 0.03799999877810478
v -0.014063045382499695 -0.07024240493774414 -0.02250000275671482
v -0.014063045382499695 -0.07024240493774414 -0.02250000275671482
v -0.014063045382499695 -0.07024240493774414 0.03799999877810478
v -0.019013123586773872 -0.06717744469642639 0.03799999877810478
v -0.019013123586773872 -0.06717744469642639 -0.02250000275671482
v -0.019013123586773872 -0.06717744469642639 -0.02250000275671482
v -0.019013123586773872 -0.06717744469642639 0.03799999877810478
v -0.023315731436014175 -0.06325509399175644 0.03799999877810478
v -0.023315731436014175 -0.06325509399175644 -0.02250000275671482
v -0.023315731436014175 -0.06325509399175644 -0.02250000275671482
v -0.023315731436014175 -0.06325509399175644 0.03799999877810478
v -0.026824351400136948 -0.05860893428325653 0.03799999877810478
v -0.026824351400136948 -0.05860893428325653 -0.02250000275671482
v -0.026824351400136948 -0.05860893428325653 -0.02250000275671482
v -0.026824351400136948 -0.05860893428325653 0.03799999877810478
v -0.02941949851810932 -0.053397174924612045 0.03799999877810478
v -0.02941949851810932 -0.053397174924612045 -0.02250000275671482
v -0.02941949851810932 -0.053397174924612045 -0.02250000275671482
v -0.02941949851810932 -0.053397174924612045 0.03799999877810478
v -0.031012801453471184 -0.047797296196222305 0.03799999877810478
v -0.031012801453471184 -0.047797296196222305 -0.02250000275671482
v -0.031012801453471184 -0.047797296196222305 -0.02250000275671482
v -0.031012801453471184 -0.047797296196222305 0.03799999877810478
v -0.031550001353025436 -0.041999999433755875 0.03799999877810478
v -0.031550001353025436 -0.041999999433755875 -0.02250000275671482
v -0.031550001353025436 -0.041999999433755875 -0.02250000275671482
v -0.031550001353025436 -0.041999999433755875 0.03799999877810478
v -0.031012801453471184 -0.036202702671289444 0.03799999877810478
v -0.031012801453471184 -0.036202702671289444 -0.02250000275671482
v -0.031012801453471184 -0.036202702671289444 -0.02250000275671482
v -0.031012801453471184 -0.036202702671289444 0.03799999877810478
v -0.02941949851810932 -0.030602825805544853 0.03799999877810478
v -0.02941949851810932 -0.030602825805544853 -0.02250000275671482
v -0.02941949851810932 -0.030602825805544853 -0.02250000275671482
v -0.02941949851810932 -0.030602825805544853 0.03799999877810478
v -0.026824351400136948 -0.02539106458425522 0.03799999877810478
v -0.026824351400136948 -0.02539106458425522 -0.02250000275671482
v -0.026824351400136948 -0.02539106458425522 -0.02250000275671482
v -0.026824351400136948 -0.02539106458425522 0.03799999877810478
v -0.023315731436014175 -0.02074490301311016 0.03799999877810478
v -0.023315731436014175 -0.02074490301311016 -0.02250000275671482
v -0.023315731436014175 -0.02074490301311016 -0.02250000275671482
v -0.023315731436014175 -0.02074490301311016 0.03799999877810478
v -0.022467002272605896 -0.019849687814712524 0.0012181242927908897
v -0.023315731436014175 -0.02074490301311016 -0.02250000275671482
v -0.022467002272605896 -0.019849687814712524 0.0012181242927908897
v -0.022466711699962616 -0.019849393516778946 -0.0012234615860506892
v 0.031550001353025436 -0.041999999433755875 0.03799999877810478
v 0.031012801453471184 -0.036202702671289444 0.03799999877810478
v 6.526792994954178e-13 -0.041999999433755875 0.03799999877810478
v 0.026824351400136948 -0.05860893428325653 0.03799999877810478
v 0.02941949851810932 -0.053397174924612045 0.03799999877810478
v 0.031012801453471184 -0.047797296196222305 0.03799999877810478
v 0.014063045382499695 -0.07024240493774414 0.03799999877810478
v 0.019013123586773872 -0.06717744469642639 0.03799999877810478
v 0.023315731436014175 -0.06325509399175644 0.03799999877810478
v -0.002911066636443138 -0.07341541349887848 0.03799999877810478
v 0.002911066636443138 -0.07341541349887848 0.03799999877810478
v 0.008634067140519619 -0.07234559953212738 0.03799999877810478
v -0.019013123586773872 -0.06717744469642639 0.03799999877810478
v -0.014063045382499695 -0.07024240493774414 0.03799999877810478
v -0.008634067140519619 -0.07234559953212738 0.03799999877810478
v -0.02941949851810932 -0.053397174924612045 0.03799999877810478
v -0.026824351400136948 -0.05860893428325653 0.03799999877810478
v -0.023315731436014175 -0.06325509399175644 0.03799999877810478
v -0.031012801453471184 -0.036202702671289444 0.03799999877810478
v -0.031550001353025436 -0.041999999433755875 0.03799999877810478
v -0.031012801453471184 -0.047797296196222305 0.03799999877810478
v -0.023315731436014175 -0.02074490301311016 0.03799999877810478
v -0.026824351400136948 -0.02539106458425522 0.03799999877810478
v -0.02941949851810932 -0.030602825805544853 0.03799999877810478
v -0.008634067140519619 -0.011654401198029518 0.03799999877810478
v -0.014063045382499695 -0.013757598586380482 0.03799999877810478
v -0.019013123586773872 -0.016822556033730507 0.03799999877810478
v 0.008634067140519619 -0.011654401198029518 0.03799999877810478
v 0.002911066636443138 -0.010584586299955845 0.03799999877810478
v -0.002911066636443138 -0.010584586299955845 0.03799999877810478
v 0.023315731436014175 -0.02074490301311016 0.03799999877810478
v 0.019013123586773872 -0.016822556033730507 0.03799999877810478
v 0.014063045382499695 -0.013757598586380482 0.03799999877810478
v 0.02941949851810932 -0.030602825805544853 0.03799999877810478
v 0.026824351400136948 -0.02539106458425522 0.03799999877810478
v 6.496886362228338e-13 -0.010449999943375587 -0.02250000275671482
v 0.002911066636443138 -0.010584586299955845 -0.02250000275671482
v 6.487111195441209e-13 -0.041999999433755875 -0.02250000275671482
v -0.002911066636443138 -0.010584586299955845 -0.02250000275671482
v -0.019013123586773872 -0.016822556033730507 -0.02250000275671482
v -0.014063045382499695 -0.013757598586380482 -0.02250000275671482
v -0.008634067140519619 -0.011654401198029518 -0.02250000275671482
v -0.02941949851810932 -0.030602825805544853 -0.02250000275671482
v -0.026824351400136948 -0.02539106458425522 -0.02250000275671482
v -0.023315731436014175 -0.02074490301311016 -0.02250000275671482
v -0.031012801453471184 -0.047797296196222305 -0.02250000275671482
v -0.031550001353025436 -0.041999999433755875 -0.02250000275671482
v -0.031012801453471184 -0.036202702671289444 -0.02250000275671482
v -0.023315731436014175 -0.06325509399175644 -0.02250000275671482
v -0.026824351400136948 -0.05860893428325653 -0.02250000275671482
v -0.02941949851810932 -0.053397174924612045 -0.02250000275671482
v -0.008634067140519619 -0.07234559953212738 -0.02250000275671482
v -0.014063045382499695 -0.07024240493774414 -0.02250000275671482
v -0.019013123586773872 -0.06717744469642639 -0.02250000275671482
v 0.008634067140519619 -0.07234559953212738 -0.02250000275671482
v 0.002911066636443138 -0.07341541349887848 -0.02250000275671482
v -0.002911066636443138 -0.07341541349887848 -0.02250000275671482
v 0.023315731436014175 -0.06325509399175644 -0.02250000275671482
v 0.019013123586773872 -0.06717744469642639 -0.02250000275671482
v 0.014063045382499695 -0.07024240493774414 -0.02250000275671482
v 0.031012801453471184 -0.047797296196222305 -0.02250000275671482
v 0.02941949851810932 -0.053397174924612045 -0.02250000275671482
v 0.026824351400136948 -0.05860893428325653 -0.02250000275671482
v 0.02941949851810932 -0.030602825805544853 -0.02250000275671482
v 0.031012801453471184 -0.036202702671289444 -0.02250000275671482
v 0.031550001353025436 -0.041999999433755875 -0.02250000275671482
v 0.019013123586773872 -0.016822556033730507 -0.02250000275671482
v 0.023315731436014175 -0.02074490301311016 -0.02250000275671482
v 0.026824351400136948 -0.02539106458425522 -0.02250000275671482
v 0.008634067140519619 -0.011654401198029518 -0.02250000275671482
v 0.014063045382499695 -0.013757598586380482 -0.02250000275671482
v 0.00626278156414628 -0.010709691792726517 -0.021610822528600693
v 0.007184171117842197 -0.010688157752156258 -0.021322237327694893
v 0.006376845296472311 -0.011101159267127514 -0.021686026826500893
v 0.012419749051332474 -0.01243212167173624 -0.018761660903692245
v 0.014329942874610424 -0.013892078772187233 -0.01789003610610962
v 0.014074827544391155 -0.013763468712568283 -0.018146200105547905
v 0.014074827544391155 -0.013763468712568283 -0.018146200105547905
v 0.013371139764785767 -0.013423522002995014 -0.018746180459856987
v 0.012419749051332474 -0.01243212167173624 -0.018761660903692245
v 0.012419749051332474 -0.01243212167173624 -0.018761660903692245
v 0.013371139764785767 -0.013423522002995014 -0.018746180459856987
v 0.012003929354250431 -0.012822814285755157 -0.019657820463180542
v 0.012419749051332474 -0.01243212167173624 -0.018761660903692245
v 0.012003929354250431 -0.012822814285755157 -0.019657820463180542
v 0.01160143967717886 -0.012000012211501598 -0.019278399646282196
v 0.01160143967717886 -0.012000012211501598 -0.019278399646282196
v 0.012003929354250431 -0.012822814285755157 -0.019657820463180542
v 0.011566036380827427 -0.012646476738154888 -0.019902586936950684
v 0.01160143967717886 -0.012000012211501598 -0.019278399646282196
v 0.011566036380827427 -0.012646476738154888 -0.019902586936950684
v 0.011432848870754242 -0.01191800832748413 -0.01937885582447052
v 0.011432848870754242 -0.01191800832748413 -0.01937885582447052
v 0.011566036380827427 -0.012646476738154888 -0.019902586936950684
v 0.010990984737873077 -0.011714339256286621 -0.019632838666439056
v 0.010436088778078556 -0.012029701843857765 -0.020328620448708534
v 0.008992038667201996 -0.011213979683816433 -0.0207446850836277
v 0.010990984737873077 -0.011714339256286621 -0.019632838666439056
v 0.010990984737873077 -0.011714339256286621 -0.019632838666439056
v 0.008992038667201996 -0.011213979683816433 -0.0207446850836277
v 0.009449114091694355 -0.011132230050861835 -0.020419703796505928
v 0.009449114091694355 -0.011132230050861835 -0.020419703796505928
v 0.008992038667201996 -0.011213979683816433 -0.0207446850836277
v 0.007950439117848873 -0.010774153284728527 -0.021048529073596
v 0.007950439117848873 -0.010774153284728527 -0.021048529073596
v 0.008992038667201996 -0.011213979683816433 -0.0207446850836277
v 0.008638359606266022 -0.011655622161924839 -0.021130342036485672
v 0.007950439117848873 -0.010774153284728527 -0.021048529073596
v 0.008638359606266022 -0.011655622161924839 -0.021130342036485672
v 0.0072455559857189655 -0.011293251067399979 -0.02150866575539112
v 0.006376845296472311 -0.011101159267127514 -0.021686026826500893
v 0.007184171117842197 -0.010688157752156258 -0.021322237327694893
v 0.0072455559857189655 -0.011293251067399979 -0.02150866575539112
v 0.0072455559857189655 -0.011293251067399979 -0.02150866575539112
v 0.007184171117842197 -0.010688157752156258 -0.021322237327694893
v 0.00732395937666297 -0.010697922669351101 -0.0212746262550354
v 0.0072455559857189655 -0.011293251067399979 -0.02150866575539112
v 0.00732395937666297 -0.010697922669351101 -0.0212746262550354
v 0.007950439117848873 -0.010774153284728527 -0.021048529073596
v 0.005461765453219414 -0.010926351882517338 -0.021827029064297676
v 0.005497423000633717 -0.010909744538366795 -0.021818075329065323
v 0.006376845296472311 -0.011101159267127514 -0.021686026826500893
v 0.006376845296472311 -0.011101159267127514 -0.021686026826500893
v 0.005497423000633717 -0.010909744538366795 -0.021818075329065323
v 0.006184172350913286 -0.010720264166593552 -0.0216334480792284
v 0.006376845296472311 -0.011101159267127514 -0.021686026826500893
v 0.006184172350913286 -0.010720264166593552 -0.0216334480792284
v 0.00626278156414628 -0.010709691792726517 -0.021610822528600693
v 0.010990984737873077 -0.011714339256286621 -0.019632838666439056
v 0.011566036380827427 -0.012646476738154888 -0.019902586936950684
v 0.010436088778078556 -0.012029701843857765 -0.020328620448708534
v 0.010436088778078556 -0.012029701843857765 -0.020328620448708534
v 0.011566036380827427 -0.012646476738154888 -0.019902586936950684
v 0.009887056425213814 -0.012039215303957462 -0.020684674382209778
v 0.010436088778078556 -0.012029701843857765 -0.020328620448708534
v 0.009887056425213814 -0.012039215303957462 -0.020684674382209778
v 0.008992038667201996 -0.011213979683816433 -0.0207446850836277
v 0.008992038667201996 -0.011213979683816433 -0.0207446850836277
v 0.009887056425213814 -0.012039215303957462 -0.020684674382209778
v 0.009051991626620293 -0.011776434257626534 -0.02099439688026905
v 0.008992038667201996 -0.011213979683816433 -0.0207446850836277
v 0.009051991626620293 -0.011776434257626534 -0.02099439688026905
v 0.008638359606266022 -0.011655622161924839 -0.021130342036485672
v -0.008306865580379963 -0.010838531889021397 -0.02091042883694172
v -0.0093312319368124 -0.011398311704397202 -0.02065275050699711
v -0.009698775596916676 -0.011212632060050964 -0.020302310585975647
v -0.014329914934933186 -0.013892063871026039 -0.017890064045786858
v -0.012419578619301319 -0.01243202667683363 -0.0187617726624012
v -0.014070730656385422 -0.013761426322162151 -0.018150096759200096
v -0.014070730656385422 -0.013761426322162151 -0.018150096759200096
v -0.012419578619301319 -0.01243202667683363 -0.0187617726624012
v -0.013659447431564331 -0.013560203835368156 -0.01851532980799675
v -0.011316127143800259 -0.012549231760203838 -0.020034005865454674
v -0.011208543553948402 -0.012496786192059517 -0.020080501213669777
v -0.010071764700114727 -0.012100801803171635 -0.020609505474567413
v -0.010071764700114727 -0.012100801803171635 -0.020609505474567413
v -0.011208543553948402 -0.012496786192059517 -0.020080501213669777
v -0.0093312319368124 -0.011398311704397202 -0.02065275050699711
v -0.010071764700114727 -0.012100801803171635 -0.020609505474567413
v -0.0093312319368124 -0.011398311704397202 -0.02065275050699711
v -0.008638501167297363 -0.011655663140118122 -0.02113029547035694
v -0.008638501167297363 -0.011655663140118122 -0.02113029547035694
v -0.0093312319368124 -0.011398311704397202 -0.02065275050699711
v -0.008301826193928719 -0.011561830528080463 -0.021232783794403076
v -0.008301826193928719 -0.011561830528080463 -0.021232783794403076
v -0.0093312319368124 -0.011398311704397202 -0.02065275050699711
v -0.008306865580379963 -0.010838531889021397 -0.02091042883694172
v -0.008301826193928719 -0.011561830528080463 -0.021232783794403076
v -0.008306865580379963 -0.010838531889021397 -0.02091042883694172
v -0.006448839791119099 -0.011116105131804943 -0.021672947332262993
v -0.008306865580379963 -0.010838531889021397 -0.02091042883694172
v -0.00797349400818348 -0.010777889750897884 -0.021039806306362152
v -0.006448839791119099 -0.011116105131804943 -0.021672947332262993
v -0.006448839791119099 -0.011116105131804943 -0.021672947332262993
v -0.00797349400818348 -0.010777889750897884 -0.021039806306362152
v -0.007185833528637886 -0.010688284412026405 -0.021321676671504974
v -0.006448839791119099 -0.011116105131804943 -0.021672947332262993
v -0.007185833528637886 -0.010688284412026405 -0.021321676671504974
v -0.006836042273789644 -0.010677224956452847 -0.021436385810375214
v -0.006836042273789644 -0.010677224956452847 -0.021436385810375214
v -0.006025762762874365 -0.010747103951871395 -0.021678104996681213
v -0.006448839791119099 -0.011116105131804943 -0.021672947332262993
v -0.006448839791119099 -0.011116105131804943 -0.021672947332262993
v -0.006025762762874365 -0.010747103951871395 -0.021678104996681213
v -0.005677348468452692 -0.01083866786211729 -0.021771950647234917
v -0.006448839791119099 -0.011116105131804943 -0.021672947332262993
v -0.005677348468452692 -0.01083866786211729 -0.021771950647234917
v -0.0054614972323179245 -0.010926304385066032 -0.02182709611952305
v -0.009698775596916676 -0.011212632060050964 -0.020302310585975647
v -0.0093312319368124 -0.011398311704397202 -0.02065275050699711
v -0.011073041707277298 -0.011750935576856136 -0.019586674869060516
v -0.011073041707277298 -0.011750935576856136 -0.019586674869060516
v -0.0093312319368124 -0.011398311704397202 -0.02065275050699711
v -0.011208543553948402 -0.012496786192059517 -0.020080501213669777
v -0.011073041707277298 -0.011750935576856136 -0.019586674869060516
v -0.011208543553948402 -0.012496786192059517 -0.020080501213669777
v -0.011604558676481247 -0.012001561000943184 -0.01927652209997177
v -0.011604558676481247 -0.012001561000943184 -0.01927652209997177
v -0.011208543553948402 -0.012496786192059517 -0.020080501213669777
v -0.011316127143800259 -0.012549231760203838 -0.020034005865454674
v -0.011604558676481247 -0.012001561000943184 -0.01927652209997177
v -0.011316127143800259 -0.012549231760203838 -0.020034005865454674
v -0.012419578619301319 -0.01243202667683363 -0.0187617726624012
v -0.012419578619301319 -0.01243202667683363 -0.0187617726624012
v -0.011316127143800259 -0.012549231760203838 -0.020034005865454674
v -0.01257254183292389 -0.0130632808431983 -0.01930915378034115
v -0.012419578619301319 -0.01243202667683363 -0.0187617726624012
v -0.01257254183292389 -0.0130632808431983 -0.01930915378034115
v -0.013659447431564331 -0.013560203835368156 -0.01851532980799675
v 0.009805352427065372 -0.011508475989103317 0.020735744386911392
v 0.009319298900663853 -0.011182937771081924 0.02079644426703453
v 0.009268904104828835 -0.011248677037656307 0.020915444940328598
v 0.009268904104828835 -0.011248677037656307 0.020915444940328598
v 0.010842129588127136 -0.012371454387903214 0.020838022232055664
v 0.009805352427065372 -0.011508475989103317 0.020735744386911392
v 0.009805352427065372 -0.011508475989103317 0.020735744386911392
v 0.010842129588127136 -0.012371454387903214 0.020838022232055664
v 0.011205856688320637 -0.01250709779560566 0.020648915320634842
v 0.009805352427065372 -0.011508475989103317 0.020735744386911392
v 0.011205856688320637 -0.01250709779560566 0.020648915320634842
v 0.011388053186237812 -0.012576969340443611 0.020526885986328125
v 0.008634801022708416 -0.011654609814286232 0.02142084389925003
v 0.008804249577224255 -0.011703338474035263 0.02139752171933651
v 0.009068944491446018 -0.011510546319186687 0.021229837089776993
v 0.009068944491446018 -0.011510546319186687 0.021229837089776993
v 0.008804249577224255 -0.011703338474035263 0.02139752171933651
v 0.010108733549714088 -0.012113280594348907 0.021109689027071
v 0.009068944491446018 -0.011510546319186687 0.021229837089776993
v 0.010108733549714088 -0.012113280594348907 0.021109689027071
v 0.009268904104828835 -0.011248677037656307 0.020915444940328598
v 0.009268904104828835 -0.011248677037656307 0.020915444940328598
v 0.010108733549714088 -0.012113280594348907 0.021109689027071
v 0.010299662128090858 -0.012178540229797363 0.021048802882432938
v 0.009268904104828835 -0.011248677037656307 0.020915444940328598
v 0.010299662128090858 -0.012178540229797363 0.021048802882432938
v 0.010842129588127136 -0.012371454387903214 0.020838022232055664
v 0.006788003258407116 -0.010395205579698086 0.021451640874147415
v 0.006702277343720198 -0.01048764493316412 0.021478580310940742
v 0.006650835741311312 -0.010604910552501678 0.021494563668966293
v 0.006633249577134848 -0.010750404559075832 0.02149999886751175
v 0.00741804763674736 -0.011334464885294437 0.02149999886751175
v 0.006650835741311312 -0.010604910552501678 0.021494563668966293
v 0.006650835741311312 -0.010604910552501678 0.021494563668966293
v 0.00741804763674736 -0.011334464885294437 0.02149999886751175
v 0.008634801022708416 -0.011654609814286232 0.02142084389925003
v 0.006650835741311312 -0.010604910552501678 0.021494563668966293
v 0.008634801022708416 -0.011654609814286232 0.02142084389925003
v 0.006788003258407116 -0.010395205579698086 0.021451640874147415
v 0.009319298900663853 -0.011182937771081924 0.02079644426703453
v 0.008287118747830391 -0.01050428207963705 0.020918259397149086
v 0.009268904104828835 -0.011248677037656307 0.020915444940328598
v 0.009268904104828835 -0.011248677037656307 0.020915444940328598
v 0.008287118747830391 -0.01050428207963705 0.020918259397149086
v 0.007508781272917986 -0.010294961743056774 0.021210094913840294
v 0.009268904104828835 -0.011248677037656307 0.020915444940328598
v 0.007508781272917986 -0.010294961743056774 0.021210094913840294
v 0.009068944491446018 -0.011510546319186687 0.021229837089776993
v 0.009068944491446018 -0.011510546319186687 0.021229837089776993
v 0.007508781272917986 -0.010294961743056774 0.021210094913840294
v 0.007139883004128933 -0.010278874076902866 0.021337103098630905
v 0.009068944491446018 -0.011510546319186687 0.021229837089776993
v 0.007139883004128933 -0.010278874076902866 0.021337103098630905
v 0.008634801022708416 -0.011654609814286232 0.02142084389925003
v 0.008634801022708416 -0.011654609814286232 0.02142084389925003
v 0.007139883004128933 -0.010278874076902866 0.021337103098630905
v 0.006923093926161528 -0.010322745889425278 0.021408425644040108
v 0.008634801022708416 -0.011654609814286232 0.02142084389925003
v 0.006923093926161528 -0.010322745889425278 0.021408425644040108
v 0.006788003258407116 -0.010395205579698086 0.021451640874147415
v -0.006633249577134848 -0.011155187152326107 0.02149999886751175
v -0.006633249577134848 -0.010750295594334602 0.02149999886751175
v -0.007418197579681873 -0.011334500275552273 0.02149999886751175
v -0.008900167420506477 -0.011731377802789211 0.021382974460721016
v -0.009069586172699928 -0.01151102315634489 0.021229824051260948
v -0.009124713949859142 -0.011798310093581676 0.021345071494579315
v -0.007418197579681873 -0.011334500275552273 0.02149999886751175
v -0.006633249577134848 -0.010750295594334602 0.02149999886751175
v -0.007962344214320183 -0.01147126592695713 0.02148388884961605
v -0.007962344214320183 -0.01147126592695713 0.02148388884961605
v -0.006633249577134848 -0.010750295594334602 0.02149999886751175
v -0.006651074625551701 -0.01060401275753975 0.021494491025805473
v -0.006964175961911678 -0.010309454053640366 0.02139509655535221
v -0.007962344214320183 -0.01147126592695713 0.02148388884961605
v -0.006806310266256332 -0.010381796397268772 0.02144584059715271
v -0.006806310266256332 -0.010381796397268772 0.02144584059715271
v -0.007962344214320183 -0.01147126592695713 0.02148388884961605
v -0.006651074625551701 -0.01060401275753975 0.021494491025805473
v -0.006806310266256332 -0.010381796397268772 0.02144584059715271
v -0.006651074625551701 -0.01060401275753975 0.021494491025805473
v -0.006714012008160353 -0.01047071348875761 0.021474914625287056
v -0.006964175961911678 -0.010309454053640366 0.02139509655535221
v -0.007275978568941355 -0.010275188833475113 0.021291078999638557
v -0.007962344214320183 -0.01147126592695713 0.02148388884961605
v -0.007962344214320183 -0.01147126592695713 0.02148388884961605
v -0.007275978568941355 -0.010275188833475113 0.021291078999638557
v -0.009069586172699928 -0.01151102315634489 0.021229824051260948
v -0.007962344214320183 -0.01147126592695713 0.02148388884961605
v -0.009069586172699928 -0.01151102315634489 0.021229824051260948
v -0.00863592978566885 -0.011654931120574474 0.02142069861292839
v -0.00863592978566885 -0.011654931120574474 0.02142069861292839
v -0.009069586172699928 -0.01151102315634489 0.021229824051260948
v -0.008900167420506477 -0.011731377802789211 0.021382974460721016
v -0.009124713949859142 -0.011798310093581676 0.021345071494579315
v -0.009069586172699928 -0.01151102315634489 0.021229824051260948
v -0.010424850508570671 -0.01222207210958004 0.02100556343793869
v -0.010424850508570671 -0.01222207210958004 0.02100556343793869
v -0.009069586172699928 -0.01151102315634489 0.021229824051260948
v -0.00926954299211502 -0.011249152012169361 0.02091541886329651
v -0.010424850508570671 -0.01222207210958004 0.02100556343793869
v -0.00926954299211502 -0.011249152012169361 0.02091541886329651
v -0.010679066181182861 -0.01231229119002819 0.02090834081172943
v -0.010679066181182861 -0.01231229119002819 0.02090834081172943
v -0.00926954299211502 -0.011249152012169361 0.02091541886329651
v -0.009319979697465897 -0.011183338239789009 0.02079627849161625
v -0.010679066181182861 -0.01231229119002819 0.02090834081172943
v -0.009319979697465897 -0.011183338239789009 0.02079627849161625
v -0.011388077400624752 -0.012576978653669357 0.020526865497231483
v -0.007275978568941355 -0.010275188833475113 0.021291078999638557
v -0.008006424643099308 -0.010409219190478325 0.02102729305624962
v -0.009069586172699928 -0.01151102315634489 0.021229824051260948
v -0.009069586172699928 -0.01151102315634489 0.021229824051260948
v -0.008006424643099308 -0.010409219190478325 0.02102729305624962
v -0.00820738635957241 -0.0104753989726305 0.020949671044945717
v -0.009069586172699928 -0.01151102315634489 0.021229824051260948
v -0.00820738635957241 -0.0104753989726305 0.020949671044945717
v -0.00926954299211502 -0.011249152012169361 0.02091541886329651
v -0.00926954299211502 -0.011249152012169361 0.02091541886329651
v -0.00820738635957241 -0.0104753989726305 0.020949671044945717
v -0.008287100121378899 -0.01050429604947567 0.020918266847729683
v -0.00926954299211502 -0.011249152012169361 0.02091541886329651
v -0.008287100121378899 -0.01050429604947567 0.020918266847729683
v -0.009319979697465897 -0.011183338239789009 0.02079627849161625
v -0.011388077400624752 -0.012576978653669357 0.020526865497231483
v -0.011099251918494701 -0.012113655917346478 0.02009597234427929
v -0.01257917657494545 -0.01288444921374321 0.019213348627090454
v -0.009448756463825703 -0.010966535657644272 0.02041986584663391
v -0.00964637752622366 -0.011051311157643795 0.020327255129814148
v -0.011099251918494701 -0.012113655917346478 0.02009597234427929
v -0.011388077400624752 -0.012576978653669357 0.020526865497231483
v -0.009319979697465897 -0.011183338239789009 0.02079627849161625
v -0.011099251918494701 -0.012113655917346478 0.02009597234427929
v -0.011099251918494701 -0.012113655917346478 0.02009597234427929
v -0.009319979697465897 -0.011183338239789009 0.02079627849161625
v -0.008287100121378899 -0.01050429604947567 0.020918266847729683
v -0.011099251918494701 -0.012113655917346478 0.02009597234427929
v -0.008287100121378899 -0.01050429604947567 0.020918266847729683
v -0.009448756463825703 -0.010966535657644272 0.02041986584663391
v -0.01470317505300045 -0.014085503295063972 0.017484694719314575
v -0.014077178202569485 -0.01376464031636715 0.018154291436076164
v -0.013992790132761002 -0.013711411505937576 0.01821688376367092
v -0.013992790132761002 -0.013711411505937576 0.01821688376367092
v -0.014077178202569485 -0.01376464031636715 0.018154291436076164
v -0.013103286735713482 -0.013299714773893356 0.01910117268562317
v -0.01632087305188179 -0.014999414794147015 0.015488029457628727
v -0.015589174814522266 -0.014570451341569424 0.016443483531475067
v -0.014725948683917522 -0.013858890160918236 0.017011653631925583
v -0.014725948683917522 -0.013858890160918236 0.017011653631925583
v -0.015589174814522266 -0.014570451341569424 0.016443483531475067
v -0.01470317505300045 -0.014085503295063972 0.017484694719314575
v -0.014725948683917522 -0.013858890160918236 0.017011653631925583
v -0.01470317505300045 -0.014085503295063972 0.017484694719314575
v -0.013618255034089088 -0.013141344301402569 0.01791069656610489
v -0.013618255034089088 -0.013141344301402569 0.01791069656610489
v -0.01470317505300045 -0.014085503295063972 0.017484694719314575
v -0.013992790132761002 -0.013711411505937576 0.01821688376367092
v -0.013618255034089088 -0.013141344301402569 0.01791069656610489
v -0.013992790132761002 -0.013711411505937576 0.01821688376367092
v -0.01257917657494545 -0.01288444921374321 0.019213348627090454
v -0.01257917657494545 -0.01288444921374321 0.019213348627090454
v -0.013992790132761002 -0.013711411505937576 0.01821688376367092
v -0.013103286735713482 -0.013299714773893356 0.01910117268562317
v -0.01257917657494545 -0.01288444921374321 0.019213348627090454
v -0.013103286735713482 -0.013299714773893356 0.01910117268562317
v -0.011388077400624752 -0.012576978653669357 0.020526865497231483
v -0.00964637752622366 -0.011051311157643795 0.020327255129814148
v -0.010990417562425137 -0.011675652116537094 0.019633151590824127
v -0.011099251918494701 -0.012113655917346478 0.02009597234427929
v -0.011099251918494701 -0.012113655917346478 0.02009597234427929
v -0.010990417562425137 -0.011675652116537094 0.019633151590824127
v -0.011428490281105042 -0.011897287331521511 0.01938142254948616
v -0.011099251918494701 -0.012113655917346478 0.02009597234427929
v -0.011428490281105042 -0.011897287331521511 0.01938142254948616
v -0.01257917657494545 -0.01288444921374321 0.019213348627090454
v -0.01257917657494545 -0.01288444921374321 0.019213348627090454
v -0.011428490281105042 -0.011897287331521511 0.01938142254948616
v -0.013121810741722584 -0.012839184142649174 0.018277527764439583
v -0.01257917657494545 -0.01288444921374321 0.019213348627090454
v -0.013121810741722584 -0.012839184142649174 0.018277527764439583
v -0.013618255034089088 -0.013141344301402569 0.01791069656610489
v -0.013364016078412533 -0.012985113076865673 -0.018101191148161888
v -0.012419578619301319 -0.01243202667683363 -0.0187617726624012
v -0.014329914934933186 -0.013892063871026039 -0.017890064045786858
v -0.016320891678333282 -0.01499942597001791 -0.015488012693822384
v -0.01547361258417368 -0.014377569779753685 -0.016334544867277145
v -0.014867202378809452 -0.014172517694532871 -0.017300594598054886
v -0.014867202378809452 -0.014172517694532871 -0.017300594598054886
v -0.01547361258417368 -0.014377569779753685 -0.016334544867277145
v -0.01507683377712965 -0.01409883238375187 -0.01670147106051445
v -0.014867202378809452 -0.014172517694532871 -0.017300594598054886
v -0.01507683377712965 -0.01409883238375187 -0.01670147106051445
v -0.014329914934933186 -0.013892063871026039 -0.017890064045786858
v -0.014329914934933186 -0.013892063871026039 -0.017890064045786858
v -0.01507683377712965 -0.01409883238375187 -0.01670147106051445
v -0.01445327140390873 -0.013676650822162628 -0.017243927344679832
v -0.014329914934933186 -0.013892063871026039 -0.017890064045786858
v -0.01445327140390873 -0.013676650822162628 -0.017243927344679832
v -0.013364016078412533 -0.012985113076865673 -0.018101191148161888
v 0.014329942874610424 -0.013892078772187233 -0.01789003610610962
v 0.012419749051332474 -0.01243212167173624 -0.018761660903692245
v 0.013003118336200714 -0.012768704444169998 -0.01836216077208519
v 0.013003118336200714 -0.012768704444169998 -0.01836216077208519
v 0.014708527363836765 -0.013847136870026588 -0.01702672243118286
v 0.014329942874610424 -0.013892078772187233 -0.01789003610610962
v 0.014329942874610424 -0.013892078772187233 -0.01789003610610962
v 0.014708527363836765 -0.013847136870026588 -0.01702672243118286
v 0.01547407079488039 -0.014377896673977375 -0.016334110870957375
v 0.014329942874610424 -0.013892078772187233 -0.01789003610610962
v 0.01547407079488039 -0.014377896673977375 -0.016334110870957375
v 0.015843624249100685 -0.014716633595526218 -0.016121841967105865
v 0.015843624249100685 -0.014716633595526218 -0.016121841967105865
v 0.01547407079488039 -0.014377896673977375 -0.016334110870957375
v 0.01632087491452694 -0.014999416656792164 -0.015488029457628727
v 0.01632087118923664 -0.014999412931501865 0.015488033182919025
v 0.01605766825377941 -0.014802324585616589 0.015760749578475952
v 0.016150716692209244 -0.014897290617227554 0.015718771144747734
v 0.016150716692209244 -0.014897290617227554 0.015718771144747734
v 0.01605766825377941 -0.014802324585616589 0.015760749578475952
v 0.014908438548445702 -0.014194587245583534 0.017253711819648743
v 0.014908438548445702 -0.014194587245583534 0.017253711819648743
v 0.01605766825377941 -0.014802324585616589 0.015760749578475952
v 0.015219721011817455 -0.014198300428688526 0.01657136157155037
v 0.014908438548445702 -0.014194587245583534 0.017253711819648743
v 0.015219721011817455 -0.014198300428688526 0.01657136157155037
v 0.013996468856930733 -0.013713684864342213 0.018214082345366478
v 0.011388053186237812 -0.012576969340443611 0.020526885986328125
v 0.012488869950175285 -0.01302707102149725 0.019645078107714653
v 0.011246883310377598 -0.012186226435005665 0.020014656707644463
v 0.011246883310377598 -0.012186226435005665 0.020014656707644463
v 0.012488869950175285 -0.01302707102149725 0.019645078107714653
v 0.013356098905205727 -0.013416488654911518 0.01886574737727642
v 0.011246883310377598 -0.012186226435005665 0.020014656707644463
v 0.013356098905205727 -0.013416488654911518 0.01886574737727642
v 0.013996468856930733 -0.013713684864342213 0.018214082345366478
v 0.013996468856930733 -0.013713684864342213 0.018214082345366478
v 0.013356098905205727 -0.013416488654911518 0.01886574737727642
v 0.014077254571020603 -0.013764678500592709 0.018154215067625046
v 0.013996468856930733 -0.013713684864342213 0.018214082345366478
v 0.014077254571020603 -0.013764678500592709 0.018154215067625046
v 0.014908438548445702 -0.014194587245583534 0.017253711819648743
v 0.011388053186237812 -0.012576969340443611 0.020526885986328125
v 0.011246883310377598 -0.012186226435005665 0.020014656707644463
v 0.009805352427065372 -0.011508475989103317 0.020735744386911392
v 0.009805352427065372 -0.011508475989103317 0.020735744386911392
v 0.011246883310377598 -0.012186226435005665 0.020014656707644463
v 0.009817308746278286 -0.011126081459224224 0.020245255902409554
v 0.009805352427065372 -0.011508475989103317 0.020735744386911392
v 0.009817308746278286 -0.011126081459224224 0.020245255902409554
v 0.009319298900663853 -0.011182937771081924 0.02079644426703453
v 0.009319298900663853 -0.011182937771081924 0.02079644426703453
v 0.009817308746278286 -0.011126081459224224 0.020245255902409554
v 0.009449838660657406 -0.010966992937028408 0.020419364795088768
v 0.009319298900663853 -0.011182937771081924 0.02079644426703453
v 0.009449838660657406 -0.010966992937028408 0.020419364795088768
v 0.008287118747830391 -0.01050428207963705 0.020918259397149086
v 0.015219721011817455 -0.014198300428688526 0.01657136157155037
v 0.013616847805678844 -0.01314047072082758 0.017911767587065697
v 0.013996468856930733 -0.013713684864342213 0.018214082345366478
v 0.013996468856930733 -0.013713684864342213 0.018214082345366478
v 0.013616847805678844 -0.01314047072082758 0.017911767587065697
v 0.013529538176953793 -0.013086470775306225 0.01797780580818653
v 0.013996468856930733 -0.013713684864342213 0.018214082345366478
v 0.013529538176953793 -0.013086470775306225 0.01797780580818653
v 0.011246883310377598 -0.012186226435005665 0.020014656707644463
v 0.011246883310377598 -0.012186226435005665 0.020014656707644463
v 0.013529538176953793 -0.013086470775306225 0.01797780580818653
v 0.011726122349500656 -0.01205300260335207 0.019202811643481255
v 0.011246883310377598 -0.012186226435005665 0.020014656707644463
v 0.011726122349500656 -0.01205300260335207 0.019202811643481255
v 0.009817308746278286 -0.011126081459224224 0.020245255902409554
f 1 2 3
f 4 5 6
f 7 8 9
f 10 11 12
f 13 14 15
f 16 17 18
f 19 20 21
f 22 23 24
f 25 26 27
f 28 29 30
f 31 32 33
f 34 35 36
f 37 38 39
f 40 41 42
f 43 44 45
f 46 47 48
f 49 50 51
f 52 53 54
f 55 56 57
f 58 59 60
f 61 62 63
f 64 65 66
f 67 68 69
f 70 71 72
f 73 74 75
f 76 77 78
f 79 80 81
f 82 83 84
f 85 86 87
f 88 89 90
f 91 92 93
f 94 95 96
f 97 98 99
f 100 101 102
f 103 104 105
f 106 107 108
f 109 110 111
f 112 113 114
f 115 116 117
f 118 119 120
f 121 122 123
f 124 125 126
f 127 128 129
f 130 131 132
f 133 134 135
f 136 137 138
f 139 140 141
f 142 143 144
f 145 146 147
f 148 149 150
f 151 152 153
f 154 155 156
f 157 158 159
f 160 161 162
f 163 164 165
f 166 167 168
f 169 170 171
f 172 173 174
f 175 176 177
f 178 179 180
f 181 182 183
f 184 185 186
f 187 188 189
f 190 191 192
f 193 194 195
f 196 197 198
f 199 200 201
f 202 203 204
f 205 206 207
f 208 209 210
f 211 212 213
f 214 215 216
f 217 218 219
f 220 221 222
f 223 224 225
f 226 227 228
f 229 230 231
f 232 233 234
f 235 236 237
f 238 239 240
f 241 242 243
f 244 245 246
f 247 248 249
f 250 251 252
f 253 254 255
f 256 257 258
f 259 260 261
f 262 263 264
f 265 266 267
f 268 269 270
f 271 272 273
f 274 275 276
f 277 278 279
f 280 281 282
f 283 284 285
f 286 287 288
f 289 290 291
f 292 293 294
f 295 296 297
f 298 299 300
f 301 302 303
f 304 305 306
f 307 308 309
f 310 311 312
f 313 314 315
f 316 317 318
f 319 320 321
f 322 323 324
f 325 326 327
f 328 329 330
f 331 332 333
f 334 335 336
f 337 338 339
f 340 341 342
f 343 344 345
f 346 347 348
f 349 350 351
f 352 353 354
f 355 356 357
f 358 359 360
f 361 362 363
f 364 365 366
f 367 368 369
f 370 371 372
f 373 374 375
f 376 377 378
f 379 380 381
f 382 383 384
f 385 386 387
f 388 389 390
f 391 392 393
f 394 395 396
f 397 398 399
f 400 401 402
f 403 404 405
f 406 407 408
f 409 410 411
f 409 411 412
f 413 414 411
f 411 414 415
f 411 415 412
f 416 417 411
f 411 417 418
f 411 418 413
f 419 420 411
f 411 420 421
f 411 421 416
f 422 423 411
f 411 423 424
f 411 424 419
f 425 426 411
f 411 426 427
f 411 427 422
f 428 429 411
f 411 429 430
f 411 430 425
f 431 432 411
f 411 432 433
f 411 433 428
f 434 435 411
f 411 435 436
f 411 436 431
f 410 437 411
f 411 437 438
f 411 438 434
f 439 440 441
f 442 443 444
f 445 446 447
f 448 449 450
f 451 452 453
f 454 455 456
f 457 458 459
f 460 461 462
f 463 464 465
f 466 467 468
f 469 470 471
f 472 473 474
f 475 476 477
f 478 479 480
f 481 482 483
f 484 485 486
f 484 486 487
f 488 489 490
f 491 492 493
f 494 495 496
f 497 498 499
f 500 501 502
f 503 504 505
f 506 507 508
f 509 510 511
f 512 513 514
f 515 516 517
f 518 519 520
f 521 522 523
f 524 525 526
f 527 528 529
f 530 531 532
f 533 534 535
f 536 537 538
f 539 540 541
f 542 543 544
f 545 546 547
f 548 549 550
f 551 552 553
f 554 555 556
f 557 558 559
f 560 561 562
f 563 564 565
f 566 567 568
f 569 570 571
f 572 573 574
f 575 576 577
f 578 579 580
f 581 582 583
f 584 585 586
f 587 588 589
f 590 591 592
f 593 594 595
f 596 597 598
f 599 600 601
f 602 603 604
f 605 606 607
f 608 609 610
f 611 612 613
f 614 615 616
f 617 618 619
f 620 621 622
f 623 624 625
f 626 627 628
f 629 630 631
f 632 633 634
f 635 636 637
f 638 639 640
f 641 642 643
f 644 645 646
f 647 648 649
f 650 651 652
f 653 654 655
f 656 657 658
f 659 660 661
f 662 663 664
f 665 666 667
f 668 669 670
f 671 672 673
f 674 675 676
f 677 678 679
f 680 681 682
f 683 684 685
f 686 687 688
f 689 690 691
f 692 693 694
f 695 696 697
f 698 699 700
f 701 702 703
f 704 705 706
f 707 708 709
f 710 711 712
f 713 714 715
f 716 717 718
f 719 720 721
f 722 723 724
f 725 726 727
f 728 729 730
f 731 732 733
f 734 735 736
f 737 738 739
f 740 741 742
f 743 744 745
f 746 747 748
f 749 750 751
f 752 753 754
f 755 756 757
f 758 759 760
f 761 762 763
f 764 765 766
f 767 768 769
f 770 771 772
f 773 774 775
f 773 775 776
f 777 778 779
f 777 779 780
f 781 782 783
f 781 783 784
f 785 786 787
f 785 787 788
f 789 790 791
f 789 791 792
f 793 794 795
f 793 795 796
f 797 798 799
f 797 799 800
f 801 802 803
f 801 803 804
f 805 806 807
f 805 807 808
f 809 810 811
f 809 811 812
f 813 814 815
f 813 815 816
f 817 818 819
f 817 819 820
f 821 822 823
f 821 823 824
f 825 826 827
f 825 827 828
f 829 830 831
f 829 831 832
f 833 834 835
f 833 835 836
f 837 838 839
f 837 839 840
f 841 842 843
f 841 843 844
f 845 846 847
f 845 847 848
f 849 850 851
f 849 851 852
f 853 854 855
f 853 855 856
f 857 858 859
f 857 859 860
f 861 862 863
f 861 863 864
f 865 866 867
f 865 867 868
f 869 870 871
f 869 871 872
f 873 874 875
f 876 877 878
f 879 880 881
f 882 883 881
f 881 883 884
f 881 884 879
f 885 886 881
f 881 886 887
f 881 887 882
f 888 889 881
f 881 889 890
f 881 890 885
f 891 892 881
f 881 892 893
f 881 893 888
f 894 895 881
f 881 895 896
f 881 896 891
f 897 898 881
f 881 898 899
f 881 899 894
f 900 901 881
f 881 901 902
f 881 902 897
f 903 904 881
f 881 904 905
f 881 905 900
f 906 907 881
f 881 907 908
f 881 908 903
f 909 910 881
f 881 910 911
f 881 911 906
f 880 912 881
f 881 912 913
f 881 913 909
f 914 915 916
f 914 916 917
f 918 919 916
f 916 919 920
f 916 920 917
f 921 922 916
f 916 922 923
f 916 923 918
f 924 925 916
f 916 925 926
f 916 926 921
f 927 928 916
f 916 928 929
f 916 929 924
f 930 931 916
f 916 931 932
f 916 932 927
f 933 934 916
f 916 934 935
f 916 935 930
f 936 937 916
f 916 937 938
f 916 938 933
f 939 940 916
f 916 940 941
f 916 941 936
f 942 943 916
f 916 943 944
f 916 944 939
f 945 946 916
f 916 946 947
f 916 947 942
f 915 948 916
f 916 948 949
f 916 949 945
f 950 951 952
f 953 954 955
f 956 957 958
f 959 960 961
f 962 963 964
f 965 966 967
f 968 969 970
f 971 972 973
f 974 975 976
f 977 978 979
f 980 981 982
f 983 984 985
f 986 987 988
f 989 990 991
f 992 993 994
f 995 996 997
f 998 999 1000
f 1001 1002 1003
f 1004 1005 1006
f 1007 1008 1009
f 1010 1011 1012
f 1013 1014 1015
f 1016 1017 1018
f 1019 1020 1021
f 1022 1023 1024
f 1025 1026 1027
f 1028 1029 1030
f 1031 1032 1033
f 1034 1035 1036
f 1037 1038 1039
f 1040 1041 1042
f 1043 1044 1045
f 1046 1047 1048
f 1049 1050 1051
f 1052 1053 1054
f 1055 1056 1057
f 1058 1059 1060
f 1061 1062 1063
f 1064 1065 1066
f 1067 1068 1069
f 1070 1071 1072
f 1073 1074 1075
f 1076 1077 1078
f 1079 1080 1081
f 1082 1083 1084
f 1085 1086 1087
f 1088 1089 1090
f 1091 1092 1093
f 1094 1095 1096
f 1097 1098 1099
f 1100 1101 1102
f 1103 1104 1105
f 1106 1107 1108
f 1109 1110 1111
f 1112 1113 1114
f 1115 1116 1117
f 1118 1119 1120
f 1121 1122 1123
f 1124 1125 1126
f 1127 1128 1129
f 1130 1131 1132
f 1133 1134 1135
f 1136 1137 1138
f 1139 1140 1141
f 1142 1143 1144
f 1145 1146 1147
f 1148 1149 1150
f 1151 1152 1153
f 1154 1155 1156
f 1157 1158 1159
f 1160 1161 1162
f 1163 1164 1165
f 1166 1167 1168
f 1169 1170 1171
f 1172 1173 1174
f 1175 1176 1177
f 1178 1179 1180
f 1181 1182 1183
f 1184 1185 1186
f 1187 1188 1189
f 1190 1191 1192
f 1193 1194 1195
f 1196 1197 1198
f 1199 1200 1201
f 1202 1203 1204
f 1205 1206 1207
f 1208 1209 1210
f 1211 1212 1213
f 1214 1215 1216
f 1217 1218 1219
f 1220 1221 1222
f 1223 1224 1225
f 1226 1227 1228
f 1229 1230 1231
f 1232 1233 1234
f 1235 1236 1237
f 1238 1239 1240
f 1241 1242 1243
f 1244 1245 1246
f 1247 1248 1249
f 1250 1251 1252
f 1253 1254 1255
f 1256 1257 1258
f 1259 1260 1261
f 1262 1263 1264
f 1265 1266 1267
f 1268 1269 1270
f 1271 1272 1273
f 1274 1275 1276
f 1277 1278 1279
f 1280 1281 1282
f 1283 1284 1285
f 1286 1287 1288
f 1289 1290 1291
f 1292 1293 1294
f 1295 1296 1297
f 1298 1299 1300
f 1301 1302 1303
f 1304 1305 1306
f 1307 1308 1309
f 1310 1311 1312
f 1313 1314 1315
f 1316 1317 1318
f 1319 1320 1321
f 1322 1323 1324
f 1325 1326 1327
f 1328 1329 1330
f 1331 1332 1333
f 1334 1335 1336
f 1337 1338 1339
f 1340 1341 1342
f 1343 1344 1345
f 1346 1347 1348
f 1349 1350 1351
f 1352 1353 1354
f 1355 1356 1357
