mtllib camera_mask.mtl
v -0.024670371785759926 -0.00129409518558532 -0.0023149999324232344
v -0.02449999935925007 -1.224646790546622e-18 -0.0023149999324232344
v -0.02449999935925007 0.0 -0.002439999952912331
v -0.025169873610138893 -0.0024999999441206455 -0.0023149999324232344
v -0.024670371785759926 -0.00129409518558532 -0.002439999952912331
v -0.025964466854929924 -0.0035355337895452976 -0.0023149999324232344
v -0.025469129905104637 -0.0028899998869746923 -0.0023149999324232344
v -0.025469129905104637 -0.0028899998869746923 -0.002439999952912331
v -0.025169873610138893 -0.0024999999441206455 -0.002439999952912331
v -0.027000000700354576 -0.0043301270343363285 -0.0023149999324232344
v -0.025964466854929924 -0.0035355337895452976 -0.002439999952912331
v -0.028205905109643936 -0.004829629324376583 -0.0023149999324232344
v -0.027000000700354576 -0.0043301270343363285 -0.002439999952912331
v -0.029500000178813934 -0.004999999888241291 -0.0023149999324232344
v -0.028205905109643936 -0.004829629324376583 -0.002439999952912331
v -0.030794095247983932 -0.004829629324376583 -0.0023149999324232344
v -0.029500000178813934 -0.004999999888241291 -0.002439999952912331
v -0.03200000151991844 -0.0043301270343363285 -0.0023149999324232344
v -0.030794095247983932 -0.004829629324376583 -0.002439999952912331
v -0.033035535365343094 -0.0035355337895452976 -0.0023149999324232344
v -0.03200000151991844 -0.0043301270343363285 -0.002439999952912331
v -0.033830128610134125 -0.0024999999441206455 -0.0023149999324232344
v -0.03353086858987808 -0.0028899998869746923 -0.0023149999324232344
v -0.03353086858987808 -0.0028899998869746923 -0.002439999952912331
v -0.033035535365343094 -0.0035355337895452976 -0.002439999952912331
v -0.03432963043451309 -0.00129409518558532 -0.0023149999324232344
v -0.033830128610134125 -0.0024999999441206455 -0.002439999952912331
v -0.03449999913573265 2.832769549989152e-18 -0.0023149999324232344
v -0.03432963043451309 -0.00129409518558532 -0.002439999952912331
v -0.03432963043451309 0.00129409518558532 -0.0023149999324232344
v -0.03449999913573265 6.12323395273311e-19 -0.002439999952912331
v -0.033830128610134125 0.0024999999441206455 -0.0023149999324232344
v -0.03432963043451309 0.00129409518558532 -0.002439999952912331
v -0.033035535365343094 0.0035355337895452976 -0.0023149999324232344
v -0.033830128610134125 0.0024999999441206455 -0.002439999952912331
v -0.03200000151991844 0.0043301270343363285 -0.0023149999324232344
v -0.033035535365343094 0.0035355337895452976 -0.002439999952912331
v -0.030794095247983932 0.004829629324376583 -0.0023149999324232344
v -0.03200000151991844 0.0043301270343363285 -0.002439999952912331
v -0.029500000178813934 0.004999999888241291 -0.0023149999324232344
v -0.030794095247983932 0.004829629324376583 -0.002439999952912331
v -0.028205905109643936 0.004829629324376583 -0.0023149999324232344
v -0.029500000178813934 0.004999999888241291 -0.002439999952912331
v -0.027000000700354576 0.0043301270343363285 -0.0023149999324232344
v -0.028205905109643936 0.004829629324376583 -0.002439999952912331
v -0.025964466854929924 0.0035355337895452976 -0.0023149999324232344
v -0.027000000700354576 0.0043301270343363285 -0.002439999952912331
v -0.025169873610138893 0.0024999999441206455 -0.0023149999324232344
v -0.025964466854929924 0.0035355337895452976 -0.002439999952912331
v -0.024670371785759926 0.00129409518558532 -0.0023149999324232344
v -0.025169873610138893 0.0024999999441206455 -0.002439999952912331
v -0.024670371785759926 0.00129409518558532 -0.002439999952912331
v -0.03819999843835831 0.0007800000021234155 -0.002439999952912331
v -0.03880000114440918 0.0007800000021234155 -0.002439999952912331
v -0.041039999574422836 0.008200000040233135 -0.002439999952912331
v -0.03880000114440918 -0.0007800000021234155 -0.002439999952912331
v -0.03819999843835831 -0.0007800000021234155 -0.002439999952912331
v -0.03596000000834465 0.008200000040233135 -0.002439999952912331
v -0.03799812123179436 0.0007534221513196826 -0.002439999952912331
v -0.03900187835097313 -0.0007534221513196826 -0.002439999952912331
v -0.03781000152230263 0.0006754997884854674 -0.002439999952912331
v -0.03919000178575516 -0.0006754997884854674 -0.002439999952912331
v -0.03900187835097313 0.0007534221513196826 -0.002439999952912331
v -0.03799812123179436 -0.0007534221513196826 -0.002439999952912331
v -0.03919000178575516 0.0006754997884854674 -0.002439999952912331
v -0.03744657710194588 0.0002018788509303704 -0.002439999952912331
v -0.037524498999118805 0.00039000000106170774 -0.002439999952912331
v -0.03742000088095665 -1.9104489756751422e-19 -0.002439999952912331
v -0.03781000152230263 -0.0006754997884854674 -0.002439999952912331
v -0.03955342248082161 -0.0002018788509303704 -0.002439999952912331
v -0.03947550058364868 -0.00039000000106170774 -0.002439999952912331
v -0.03955342248082161 0.0002018788509303704 -0.002439999952912331
v -0.03935154154896736 0.0005515433149412274 -0.002439999952912331
v -0.03947550058364868 0.00039000000106170774 -0.002439999952912331
v -0.037648458033800125 0.0005515433149412274 -0.002439999952912331
v -0.037648458033800125 -0.0005515433149412274 -0.002439999952912331
v -0.037524498999118805 -0.00039000000106170774 -0.002439999952912331
v -0.03935154154896736 -0.0005515433149412274 -0.002439999952912331
v -0.03957999870181084 9.552244878375711e-20 -0.002439999952912331
v -0.03744657710194588 -0.0002018788509303704 -0.002439999952912331
v 0.02568499930202961 0.008200000040233135 -0.002439999952912331
v 0.03928999975323677 0.008200000040233135 -0.002439999952912331
v 0.03530000150203705 0.0007800000021234155 -0.002439999952912331
v 0.0350981205701828 -0.0007534221513196826 -0.002439999952912331
v 0.035501878708601 0.0007534221513196826 -0.002439999952912331
v 0.03491000086069107 -0.0006754997884854674 -0.002439999952912331
v 0.0350981205701828 0.0007534221513196826 -0.002439999952912331
v 0.03530000150203705 -0.0007800000021234155 -0.002439999952912331
v 0.03568999841809273 0.0006754997884854674 -0.002439999952912331
v 0.035501878708601 -0.0007534221513196826 -0.002439999952912331
v 0.03491000086069107 0.0006754997884854674 -0.002439999952912331
v 0.03605342283844948 0.0002018788509303704 -0.002439999952912331
v 0.03597550094127655 0.00039000000106170774 -0.002439999952912331
v 0.036079999059438705 0.0 -0.002439999952912331
v 0.03585154190659523 -0.0005515433149412274 -0.002439999952912331
v 0.03597550094127655 -0.00039000000106170774 -0.002439999952912331
v 0.03568999841809273 -0.0006754997884854674 -0.002439999952912331
v 0.03462449833750725 -0.00039000000106170774 -0.002439999952912331
v 0.03474845737218857 -0.0005515433149412274 -0.002439999952912331
v 0.03454657644033432 0.0002018788509303704 -0.002439999952912331
v 0.03474845737218857 0.0005515433149412274 -0.002439999952912331
v 0.03462449833750725 0.00039000000106170774 -0.002439999952912331
v 0.03585154190659523 0.0005515433149412274 -0.002439999952912331
v 0.03605342283844948 -0.0002018788509303704 -0.002439999952912331
v 0.03452000021934509 4.419120398721404e-19 -0.002439999952912331
v 0.03454657644033432 -0.0002018788509303704 -0.002439999952912331
v -0.054349999874830246 -0.0028899998869746923 -0.002439999952912331
v -0.041039999574422836 -0.008200000040233135 -0.002439999952912331
v -0.03596000000834465 -0.008200000040233135 -0.002439999952912331
v -0.020500000566244125 -0.008200000040233135 -0.002439999952912331
v -0.0016749999485909939 -0.008200000040233135 -0.002439999952912331
v 0.02568499930202961 -0.008200000040233135 -0.002439999952912331
v 0.03928999975323677 -0.008200000040233135 -0.002439999952912331
v 0.009999999776482582 -0.006850000005215406 -0.002439999952912331
v 0.0065750000067055225 -0.005932273808866739 -0.002439999952912331
v 0.008227089419960976 -0.006616591941565275 -0.002439999952912331
v 0.003846121719107032 -0.0028899998869746923 -0.002439999952912331
v 0.004067725967615843 -0.003425000002607703 -0.002439999952912331
v 0.011772910133004189 -0.006616591941565275 -0.002439999952912331
v 0.005156318657100201 -0.004843681585043669 -0.002439999952912331
v 0.015932273119688034 -0.003425000002607703 -0.002439999952912331
v 0.013425000011920929 -0.005932273808866739 -0.002439999952912331
v 0.014843681827187538 -0.004843681585043669 -0.002439999952912331
v 0.016850000247359276 -1.2583246220061059e-18 -0.002439999952912331
v 0.016616592183709145 0.0017729104729369283 -0.002439999952912331
v -0.0016749999485909939 0.008200000040233135 -0.002439999952912331
v 0.0033834080677479506 0.0017729104729369283 -0.002439999952912331
v 0.0065750000067055225 0.005932273808866739 -0.002439999952912331
v 0.005156318657100201 0.004843681585043669 -0.002439999952912331
v 0.0031500000040978193 1.9404470166315016e-18 -0.002439999952912331
v 0.0033834080677479506 -0.0017729104729369283 -0.002439999952912331
v 0.004067725967615843 0.003425000002607703 -0.002439999952912331
v 0.008227089419960976 0.006616591941565275 -0.002439999952912331
v 0.016616592183709145 -0.0017729104729369283 -0.002439999952912331
v 0.009999999776482582 0.006850000005215406 -0.002439999952912331
v 0.015932273119688034 0.003425000002607703 -0.002439999952912331
v 0.011772910133004189 0.006616591941565275 -0.002439999952912331
v 0.014843681827187538 0.004843681585043669 -0.002439999952912331
v 0.013425000011920929 0.005932273808866739 -0.002439999952912331
v 0.01615387760102749 -0.0028899998869746923 -0.002439999952912331
v 0.046205904334783554 -0.004829629324376583 -0.002439999952912331
v 0.04749999940395355 -0.004999999888241291 -0.002439999952912331
v 0.054349999874830246 -0.007524999789893627 -0.002439999952912331
v 0.04879409447312355 -0.004829629324376583 -0.002439999952912331
v 0.04500000178813934 -0.0043301270343363285 -0.002439999952912331
v 0.054349999874830246 -0.0028899998869746923 -0.002439999952912331
v 0.05103553459048271 -0.0035355337895452976 -0.002439999952912331
v 0.04396446794271469 -0.0035355337895452976 -0.002439999952912331
v 0.043469130992889404 -0.0028899998869746923 -0.002439999952912331
v 0.05000000074505806 -0.0043301270343363285 -0.002439999952912331
v -0.04749999940395355 -0.004999999888241291 -0.002439999952912331
v -0.046205904334783554 -0.004829629324376583 -0.002439999952912331
v -0.05000000074505806 -0.0043301270343363285 -0.002439999952912331
v -0.04879409447312355 -0.004829629324376583 -0.002439999952912331
v -0.04396446794271469 -0.0035355337895452976 -0.002439999952912331
v -0.05103553459048271 -0.0035355337895452976 -0.002439999952912331
v -0.0515308678150177 -0.0028899998869746923 -0.002439999952912331
v -0.04500000178813934 -0.0043301270343363285 -0.002439999952912331
v -0.046205904334783554 0.004829629324376583 -0.002439999952912331
v -0.04749999940395355 0.004999999888241291 -0.002439999952912331
v -0.05342499911785126 0.008200000040233135 -0.002439999952912331
v -0.04879409447312355 0.004829629324376583 -0.002439999952912331
v -0.05000000074505806 0.0043301270343363285 -0.002439999952912331
v -0.04500000178813934 0.0043301270343363285 -0.002439999952912331
v -0.05232962965965271 0.00129409518558532 -0.002439999952912331
v -0.05249999836087227 6.12323395273311e-19 -0.002439999952912331
v -0.04396446794271469 0.0035355337895452976 -0.002439999952912331
v -0.042670369148254395 0.00129409518558532 -0.002439999952912331
v -0.04316987469792366 0.0024999999441206455 -0.002439999952912331
v -0.05232962965965271 -0.00129409518558532 -0.002439999952912331
v -0.05183012783527374 -0.0024999999441206455 -0.002439999952912331
v -0.05103553459048271 0.0035355337895452976 -0.002439999952912331
v -0.05183012783527374 0.0024999999441206455 -0.002439999952912331
v -0.042500000447034836 0.0 -0.002439999952912331
v -0.042670369148254395 -0.00129409518558532 -0.002439999952912331
v -0.043469130992889404 -0.0028899998869746923 -0.002439999952912331
v -0.04316987469792366 -0.0024999999441206455 -0.002439999952912331
v -0.007964465767145157 -0.0035355337895452976 -0.002439999952912331
v -0.008999999612569809 -0.0043301270343363285 -0.002439999952912331
v -0.011500000022351742 -0.004999999888241291 -0.002439999952912331
v -0.015530869364738464 -0.0028899998869746923 -0.002439999952912331
v -0.015035534277558327 -0.0035355337895452976 -0.002439999952912331
v -0.010205904953181744 -0.004829629324376583 -0.002439999952912331
v -0.01279409509152174 -0.004829629324376583 -0.002439999952912331
v -0.014000000432133675 -0.0043301270343363285 -0.002439999952912331
v -0.020500000566244125 0.008200000040233135 -0.002439999952912331
v -0.01279409509152174 0.004829629324376583 -0.002439999952912331
v -0.014000000432133675 0.0043301270343363285 -0.002439999952912331
v -0.010205904953181744 0.004829629324376583 -0.002439999952912331
v -0.011500000022351742 0.004999999888241291 -0.002439999952912331
v -0.015035534277558327 0.0035355337895452976 -0.002439999952912331
v -0.008999999612569809 0.0043301270343363285 -0.002439999952912331
v -0.007964465767145157 0.0035355337895452976 -0.002439999952912331
v -0.006670370697975159 0.00129409518558532 -0.002439999952912331
v -0.007169872988015413 0.0024999999441206455 -0.002439999952912331
v -0.006500000134110451 0.0 -0.002439999952912331
v -0.016329629346728325 0.00129409518558532 -0.002439999952912331
v -0.006670370697975159 -0.00129409518558532 -0.002439999952912331
v -0.016499999910593033 6.12323395273311e-19 -0.002439999952912331
v -0.016329629346728325 -0.00129409518558532 -0.002439999952912331
v -0.015830127522349358 0.0024999999441206455 -0.002439999952912331
v -0.007469130679965019 -0.0028899998869746923 -0.002439999952912331
v -0.007169872988015413 -0.0024999999441206455 -0.002439999952912331
v -0.015830127522349358 -0.0024999999441206455 -0.002439999952912331
v 0.05368289351463318 0.008200000040233135 -0.002439999952912331
v 0.04749999940395355 0.004999999888241291 -0.002439999952912331
v 0.046205904334783554 0.004829629324376583 -0.002439999952912331
v 0.04500000178813934 0.0043301270343363285 -0.002439999952912331
v 0.04879409447312355 0.004829629324376583 -0.002439999952912331
v 0.05000000074505806 0.0043301270343363285 -0.002439999952912331
v 0.05103553459048271 0.0035355337895452976 -0.002439999952912331
v 0.042670369148254395 0.00129409518558532 -0.002439999952912331
v 0.042500000447034836 2.832769549989152e-18 -0.002439999952912331
v 0.054349999874830246 0.007532893214374781 -0.002439999952912331
v 0.05232962965965271 0.00129409518558532 -0.002439999952912331
v 0.05183012783527374 0.0024999999441206455 -0.002439999952912331
v 0.042670369148254395 -0.00129409518558532 -0.002439999952912331
v 0.04316987469792366 -0.0024999999441206455 -0.002439999952912331
v 0.04396446794271469 0.0035355337895452976 -0.002439999952912331
v 0.04316987469792366 0.0024999999441206455 -0.002439999952912331
v 0.05249999836087227 0.0 -0.002439999952912331
v 0.05232962965965271 -0.00129409518558532 -0.002439999952912331
v 0.0515308678150177 -0.0028899998869746923 -0.002439999952912331
v 0.05183012783527374 -0.0024999999441206455 -0.002439999952912331
v 0.054349999874830246 -0.007532893214374781 -0.002439999952912331
v 0.05368289351463318 -0.008200000040233135 -0.002439999952912331
v -0.054349999874830246 -0.007524999789893627 -0.002439999952912331
v -0.05368289351463318 -0.008200000040233135 -0.002439999952912331
v -0.05342499911785126 -0.008200000040233135 -0.002439999952912331
v -0.054349999874830246 0.007532893214374781 -0.002439999952912331
v -0.05368289351463318 0.008200000040233135 -0.002439999952912331
v -0.054349999874830246 -0.007532893214374781 -0.002439999952912331
v -0.05342499911785126 -0.007524999789893627 -0.002439999952912331
v 0.03928999975323677 -0.007524999789893627 -0.002439999952912331
v 0.03928999975323677 -0.0028899998869746923 -0.002439999952912331
v -0.020500000566244125 -0.0028899998869746923 -0.002439999952912331
v -0.03596000000834465 -0.0028899998869746923 -0.002439999952912331
v -0.020500000566244125 -0.007524999789893627 -0.002439999952912331
v -0.03596000000834465 -0.007524999789893627 -0.002439999952912331
v -0.0016749999485909939 -0.0028899998869746923 -0.002439999952912331
v -0.0016749999485909939 -0.007524999789893627 -0.002439999952912331
v -0.041039999574422836 -0.0028899998869746923 -0.002439999952912331
v -0.05342499911785126 -0.0028899998869746923 -0.002439999952912331
v -0.041039999574422836 -0.007524999789893627 -0.002439999952912331
v 0.02568499930202961 -0.0028899998869746923 -0.002439999952912331
v 0.02568499930202961 -0.007524999789893627 -0.002439999952912331
v 0.03928999975323677 0.008200000040233135 -0.0023149999324232344
v 0.02568499930202961 0.008200000040233135 -0.0023149999324232344
v -0.0016749999485909939 0.008200000040233135 -0.0023149999324232344
v -0.020500000566244125 0.008200000040233135 -0.0023149999324232344
v -0.03596000000834465 0.008200000040233135 -0.0023149999324232344
v -0.041039999574422836 0.008200000040233135 -0.0023149999324232344
v -0.05342499911785126 0.008200000040233135 -0.0023149999324232344
v -0.05368289351463318 0.008200000040233135 -0.0023149999324232344
v 0.05368289351463318 0.008200000040233135 -0.0023149999324232344
v 0.054349999874830246 0.007532893214374781 -0.0023149999324232344
v 0.054349999874830246 -0.007524999789893627 -0.0023149999324232344
v 0.054349999874830246 -0.0028899998869746923 -0.0023149999324232344
v 0.054349999874830246 -0.007532893214374781 -0.0023149999324232344
v 0.05368289351463318 -0.008200000040233135 -0.0023149999324232344
v -0.05342499911785126 -0.008200000040233135 -0.0023149999324232344
v -0.041039999574422836 -0.008200000040233135 -0.0023149999324232344
v -0.03596000000834465 -0.008200000040233135 -0.0023149999324232344
v -0.020500000566244125 -0.008200000040233135 -0.0023149999324232344
v -0.0016749999485909939 -0.008200000040233135 -0.0023149999324232344
v 0.02568499930202961 -0.008200000040233135 -0.0023149999324232344
v 0.03928999975323677 -0.008200000040233135 -0.0023149999324232344
v -0.05368289351463318 -0.008200000040233135 -0.0023149999324232344
v -0.054349999874830246 -0.007532893214374781 -0.0023149999324232344
v -0.054349999874830246 -0.0028899998869746923 -0.0023149999324232344
v -0.054349999874830246 -0.007524999789893627 -0.0023149999324232344
v -0.054349999874830246 0.007532893214374781 -0.0023149999324232344
v -0.03819999843835831 0.0007800000021234155 -0.0023149999324232344
v -0.03880000114440918 0.0007800000021234155 -0.0023149999324232344
v -0.03900187835097313 -0.0007534221513196826 -0.0023149999324232344
v -0.03880000114440918 -0.0007800000021234155 -0.0023149999324232344
v -0.03919000178575516 -0.0006754997884854674 -0.0023149999324232344
v -0.03935154154896736 -0.0005515433149412274 -0.0023149999324232344
v -0.03947550058364868 -0.00039000000106170774 -0.0023149999324232344
v -0.03955342248082161 -0.0002018788509303704 -0.0023149999324232344
v -0.03957999870181084 9.552244878375711e-20 -0.0023149999324232344
v -0.03955342248082161 0.0002018788509303704 -0.0023149999324232344
v -0.03947550058364868 0.00039000000106170774 -0.0023149999324232344
v -0.03935154154896736 0.0005515433149412274 -0.0023149999324232344
v -0.03919000178575516 0.0006754997884854674 -0.0023149999324232344
v -0.03900187835097313 0.0007534221513196826 -0.0023149999324232344
v -0.03819999843835831 -0.0007800000021234155 -0.0023149999324232344
v -0.03799812123179436 0.0007534221513196826 -0.0023149999324232344
v -0.03781000152230263 0.0006754997884854674 -0.0023149999324232344
v -0.037648458033800125 0.0005515433149412274 -0.0023149999324232344
v -0.037524498999118805 0.00039000000106170774 -0.0023149999324232344
v -0.03744657710194588 0.0002018788509303704 -0.0023149999324232344
v -0.03742000088095665 -1.9104489756751422e-19 -0.0023149999324232344
v -0.03744657710194588 -0.0002018788509303704 -0.0023149999324232344
v -0.037524498999118805 -0.00039000000106170774 -0.0023149999324232344
v -0.037648458033800125 -0.0005515433149412274 -0.0023149999324232344
v -0.03781000152230263 -0.0006754997884854674 -0.0023149999324232344
v -0.03799812123179436 -0.0007534221513196826 -0.0023149999324232344
v -0.006670370697975159 -0.00129409518558532 -0.0023149999324232344
v -0.006500000134110451 -1.224646790546622e-18 -0.0023149999324232344
v -0.007169872988015413 -0.0024999999441206455 -0.0023149999324232344
v -0.007964465767145157 -0.0035355337895452976 -0.0023149999324232344
v -0.007469130679965019 -0.0028899998869746923 -0.0023149999324232344
v -0.008999999612569809 -0.0043301270343363285 -0.0023149999324232344
v -0.010205904953181744 -0.004829629324376583 -0.0023149999324232344
v -0.011500000022351742 -0.004999999888241291 -0.0023149999324232344
v -0.01279409509152174 -0.004829629324376583 -0.0023149999324232344
v -0.014000000432133675 -0.0043301270343363285 -0.0023149999324232344
v -0.015035534277558327 -0.0035355337895452976 -0.0023149999324232344
v -0.015830127522349358 -0.0024999999441206455 -0.0023149999324232344
v -0.015530869364738464 -0.0028899998869746923 -0.0023149999324232344
v -0.016329629346728325 -0.00129409518558532 -0.0023149999324232344
v -0.016499999910593033 2.832769549989152e-18 -0.0023149999324232344
v -0.016329629346728325 0.00129409518558532 -0.0023149999324232344
v -0.015830127522349358 0.0024999999441206455 -0.0023149999324232344
v -0.015035534277558327 0.0035355337895452976 -0.0023149999324232344
v -0.014000000432133675 0.0043301270343363285 -0.0023149999324232344
v -0.01279409509152174 0.004829629324376583 -0.0023149999324232344
v -0.011500000022351742 0.004999999888241291 -0.0023149999324232344
v -0.010205904953181744 0.004829629324376583 -0.0023149999324232344
v -0.008999999612569809 0.0043301270343363285 -0.0023149999324232344
v -0.007964465767145157 0.0035355337895452976 -0.0023149999324232344
v -0.007169872988015413 0.0024999999441206455 -0.0023149999324232344
v -0.006670370697975159 0.00129409518558532 -0.0023149999324232344
v -0.042670369148254395 -0.00129409518558532 -0.0023149999324232344
v -0.042500000447034836 -1.224646790546622e-18 -0.0023149999324232344
v -0.04316987469792366 -0.0024999999441206455 -0.0023149999324232344
v -0.04396446794271469 -0.0035355337895452976 -0.0023149999324232344
v -0.043469130992889404 -0.0028899998869746923 -0.0023149999324232344
v -0.04500000178813934 -0.0043301270343363285 -0.0023149999324232344
v -0.046205904334783554 -0.004829629324376583 -0.0023149999324232344
v -0.04749999940395355 -0.004999999888241291 -0.0023149999324232344
v -0.04879409447312355 -0.004829629324376583 -0.0023149999324232344
v -0.05000000074505806 -0.0043301270343363285 -0.0023149999324232344
v -0.05103553459048271 -0.0035355337895452976 -0.0023149999324232344
v -0.05183012783527374 -0.0024999999441206455 -0.0023149999324232344
v -0.0515308678150177 -0.0028899998869746923 -0.0023149999324232344
v -0.05232962965965271 -0.00129409518558532 -0.0023149999324232344
v -0.05249999836087227 2.832769549989152e-18 -0.0023149999324232344
v -0.05232962965965271 0.00129409518558532 -0.0023149999324232344
v -0.05183012783527374 0.0024999999441206455 -0.0023149999324232344
v -0.05103553459048271 0.0035355337895452976 -0.0023149999324232344
v -0.05000000074505806 0.0043301270343363285 -0.0023149999324232344
v -0.04879409447312355 0.004829629324376583 -0.0023149999324232344
v -0.04749999940395355 0.004999999888241291 -0.0023149999324232344
v -0.046205904334783554 0.004829629324376583 -0.0023149999324232344
v -0.04500000178813934 0.0043301270343363285 -0.0023149999324232344
v -0.04396446794271469 0.0035355337895452976 -0.0023149999324232344
v -0.04316987469792366 0.0024999999441206455 -0.0023149999324232344
v -0.042670369148254395 0.00129409518558532 -0.0023149999324232344
v 0.05232962965965271 -0.00129409518558532 -0.0023149999324232344
v 0.05249999836087227 -1.224646790546622e-18 -0.0023149999324232344
v 0.05183012783527374 -0.0024999999441206455 -0.0023149999324232344
v 0.05103553459048271 -0.0035355337895452976 -0.0023149999324232344
v 0.0515308678150177 -0.0028899998869746923 -0.0023149999324232344
v 0.05000000074505806 -0.0043301270343363285 -0.0023149999324232344
v 0.04879409447312355 -0.004829629324376583 -0.0023149999324232344
v 0.04749999940395355 -0.004999999888241291 -0.0023149999324232344
v 0.046205904334783554 -0.004829629324376583 -0.0023149999324232344
v 0.04500000178813934 -0.0043301270343363285 -0.0023149999324232344
v 0.04396446794271469 -0.0035355337895452976 -0.0023149999324232344
v 0.04316987469792366 -0.0024999999441206455 -0.0023149999324232344
v 0.043469130992889404 -0.0028899998869746923 -0.0023149999324232344
v 0.042670369148254395 -0.00129409518558532 -0.0023149999324232344
v 0.042500000447034836 1.836970237518721e-18 -0.0023149999324232344
v 0.042670369148254395 0.00129409518558532 -0.0023149999324232344
v 0.04316987469792366 0.0024999999441206455 -0.0023149999324232344
v 0.04396446794271469 0.0035355337895452976 -0.0023149999324232344
v 0.04500000178813934 0.0043301270343363285 -0.0023149999324232344
v 0.046205904334783554 0.004829629324376583 -0.0023149999324232344
v 0.04749999940395355 0.004999999888241291 -0.0023149999324232344
v 0.04879409447312355 0.004829629324376583 -0.0023149999324232344
v 0.05000000074505806 0.0043301270343363285 -0.0023149999324232344
v 0.05103553459048271 0.0035355337895452976 -0.0023149999324232344
v 0.05183012783527374 0.0024999999441206455 -0.0023149999324232344
v 0.05232962965965271 0.00129409518558532 -0.0023149999324232344
v 0.03605342283844948 -0.0002018788509303704 -0.0023149999324232344
v 0.036079999059438705 -1.9104489756751422e-19 -0.0023149999324232344
v 0.03597550094127655 -0.00039000000106170774 -0.0023149999324232344
v 0.03585154190659523 -0.0005515433149412274 -0.0023149999324232344
v 0.03568999841809273 -0.0006754997884854674 -0.0023149999324232344
v 0.035501878708601 -0.0007534221513196826 -0.0023149999324232344
v 0.03530000150203705 -0.0007800000021234155 -0.0023149999324232344
v 0.0350981205701828 -0.0007534221513196826 -0.0023149999324232344
v 0.03491000086069107 -0.0006754997884854674 -0.0023149999324232344
v 0.03474845737218857 -0.0005515433149412274 -0.0023149999324232344
v 0.03462449833750725 -0.00039000000106170774 -0.0023149999324232344
v 0.03454657644033432 -0.0002018788509303704 -0.0023149999324232344
v 0.03452000021934509 2.865673398889228e-19 -0.0023149999324232344
v 0.03454657644033432 0.0002018788509303704 -0.0023149999324232344
v 0.03462449833750725 0.00039000000106170774 -0.0023149999324232344
v 0.03474845737218857 0.0005515433149412274 -0.0023149999324232344
v 0.03491000086069107 0.0006754997884854674 -0.0023149999324232344
v 0.0350981205701828 0.0007534221513196826 -0.0023149999324232344
v 0.03530000150203705 0.0007800000021234155 -0.0023149999324232344
v 0.035501878708601 0.0007534221513196826 -0.0023149999324232344
v 0.03568999841809273 0.0006754997884854674 -0.0023149999324232344
v 0.03585154190659523 0.0005515433149412274 -0.0023149999324232344
v 0.03597550094127655 0.00039000000106170774 -0.0023149999324232344
v 0.03605342283844948 0.0002018788509303704 -0.0023149999324232344
v 0.004067725967615843 -0.003425000002607703 -0.0023149999324232344
v 0.005156318657100201 -0.004843681585043669 -0.0023149999324232344
v 0.0065750000067055225 -0.005932273808866739 -0.0023149999324232344
v 0.009999999776482582 -0.006850000005215406 -0.0023149999324232344
v 0.008227089419960976 -0.006616591941565275 -0.0023149999324232344
v 0.011772910133004189 -0.006616591941565275 -0.0023149999324232344
v 0.013425000011920929 -0.005932273808866739 -0.0023149999324232344
v 0.01615387760102749 -0.0028899998869746923 -0.0023149999324232344
v 0.015932273119688034 -0.003425000002607703 -0.0023149999324232344
v 0.014843681827187538 -0.004843681585043669 -0.0023149999324232344
v 0.016616592183709145 0.0017729104729369283 -0.0023149999324232344
v 0.016850000247359276 -2.9360906123516194e-18 -0.0023149999324232344
v 0.005156318657100201 0.004843681585043669 -0.0023149999324232344
v 0.0065750000067055225 0.005932273808866739 -0.0023149999324232344
v 0.015932273119688034 0.003425000002607703 -0.0023149999324232344
v 0.004067725967615843 0.003425000002607703 -0.0023149999324232344
v 0.0031500000040978193 1.9404470166315016e-18 -0.0023149999324232344
v 0.0033834080677479506 0.0017729104729369283 -0.0023149999324232344
v 0.014843681827187538 0.004843681585043669 -0.0023149999324232344
v 0.008227089419960976 0.006616591941565275 -0.0023149999324232344
v 0.016616592183709145 -0.0017729104729369283 -0.0023149999324232344
v 0.011772910133004189 0.006616591941565275 -0.0023149999324232344
v 0.013425000011920929 0.005932273808866739 -0.0023149999324232344
v 0.009999999776482582 0.006850000005215406 -0.0023149999324232344
v 0.0033834080677479506 -0.0017729104729369283 -0.0023149999324232344
v 0.003846121719107032 -0.0028899998869746923 -0.0023149999324232344
v 0.02568499930202961 -0.0028899998869746923 -0.0023149999324232344
v -0.041039999574422836 -0.0028899998869746923 -0.0023149999324232344
v 0.03928999975323677 -0.0028899998869746923 -0.0023149999324232344
v -0.05342499911785126 -0.007524999789893627 -0.0023149999324232344
v -0.03596000000834465 -0.0028899998869746923 -0.0023149999324232344
v -0.020500000566244125 -0.0028899998869746923 -0.0023149999324232344
v -0.020500000566244125 -0.007524999789893627 -0.0023149999324232344
v -0.03596000000834465 -0.007524999789893627 -0.0023149999324232344
v -0.0016749999485909939 -0.0028899998869746923 -0.0023149999324232344
v -0.0016749999485909939 -0.007524999789893627 -0.0023149999324232344
v -0.05342499911785126 -0.0028899998869746923 -0.0023149999324232344
v -0.041039999574422836 -0.007524999789893627 -0.0023149999324232344
v 0.03928999975323677 -0.007524999789893627 -0.0023149999324232344
v 0.02568499930202961 -0.007524999789893627 -0.0023149999324232344
v 0.011654009111225605 0.006172847468405962 -0.002465837867930532
v 0.013195301406085491 0.005534423515200615 -0.002465837867930532
v 0.014518838375806808 0.004518838133662939 -0.002465837867930532
v 0.015534423291683197 0.003195300931110978 -0.002465837867930532
v 0.016172846779227257 0.0016540094511583447 -0.002465837867930532
v 0.01639060117304325 -1.1739345185401037e-18 -0.002465837867930532
v 0.016172846779227257 -0.0016540094511583447 -0.002465837867930532
v 0.015534423291683197 -0.003195300931110978 -0.002465837867930532
v 0.014518838375806808 -0.004518838133662939 -0.002465837867930532
v 0.013195301406085491 -0.005534423515200615 -0.002465837867930532
v 0.011654009111225605 -0.006172847468405962 -0.002465837867930532
v 0.009999999776482582 -0.006390601862221956 -0.002465837867930532
v 0.00834599044173956 -0.006172847468405962 -0.002465837867930532
v 0.006804699078202248 -0.005534423515200615 -0.002465837867930532
v 0.00548116210848093 -0.004518838133662939 -0.002465837867930532
v 0.004465576261281967 -0.003195300931110978 -0.002465837867930532
v 0.0038271525409072638 -0.0016540094511583447 -0.002465837867930532
v 0.0036093981470912695 1.810310206376137e-18 -0.002465837867930532
v 0.0038271525409072638 0.0016540094511583447 -0.002465837867930532
v 0.004465576261281967 0.003195300931110978 -0.002465837867930532
v 0.00548116210848093 0.004518838133662939 -0.002465837867930532
v 0.006804699078202248 0.005534423515200615 -0.002465837867930532
v 0.00834599044173956 0.006172847468405962 -0.002465837867930532
v 0.009999999776482582 0.006390601862221956 -0.002465837867930532
v 0.009999999776482582 0.006524151656776667 -0.002386323176324368
v 0.00831142533570528 0.006301846355199814 -0.002386323176324368
v 0.006737924180924892 0.005650080740451813 -0.002386323176324368
v 0.005386728327721357 0.004613271914422512 -0.002386323176324368
v 0.004349919036030769 0.0032620758283883333 -0.002386323176324368
v 0.003698153654113412 0.0016885746736079454 -0.002386323176324368
v 0.0034758485853672028 1.4486526770999634e-18 -0.002386323176324368
v 0.003698153654113412 -0.0016885746736079454 -0.002386323176324368
v 0.004349919036030769 -0.0032620758283883333 -0.002386323176324368
v 0.005386728327721357 -0.004613271914422512 -0.002386323176324368
v 0.006737924180924892 -0.005650080740451813 -0.002386323176324368
v 0.00831142533570528 -0.006301846355199814 -0.002386323176324368
v 0.009999999776482582 -0.006524151656776667 -0.002386323176324368
v 0.011688574217259884 -0.006301846355199814 -0.002386323176324368
v 0.013262075372040272 -0.005650080740451813 -0.002386323176324368
v 0.014613271690905094 -0.004613271914422512 -0.002386323176324368
v 0.015650080516934395 -0.0032620758283883333 -0.002386323176324368
v 0.016301846131682396 -0.0016885746736079454 -0.002386323176324368
v 0.01652415096759796 -4.3459577211071605e-18 -0.002386323176324368
v 0.016301846131682396 0.0016885746736079454 -0.002386323176324368
v 0.015650080516934395 0.0032620758283883333 -0.002386323176324368
v 0.014613271690905094 0.004613271914422512 -0.002386323176324368
v 0.013262075372040272 0.005650080740451813 -0.002386323176324368
v 0.011688574217259884 0.006301846355199814 -0.002386323176324368
v 0.005265741143375635 -0.004734258633106947 -0.002330504590645433
v 0.004201740957796574 -0.00334762642160058 -0.002330504590645433
v 0.006652373820543289 -0.0057982588186860085 -0.002330504590645433
v 0.008267140947282314 -0.006467117462307215 -0.002330504590645433
v 0.009999999776482582 -0.00669525284320116 -0.002330504590645433
v 0.01173285860568285 -0.006467117462307215 -0.002330504590645433
v 0.01334762666374445 -0.0057982588186860085 -0.002330504590645433
v 0.014734258875250816 -0.004734258633106947 -0.002330504590645433
v 0.015798259526491165 -0.00334762642160058 -0.002330504590645433
v 0.01646711677312851 -0.0017328589456155896 -0.002330504590645433
v 0.016695253551006317 -4.45993411053023e-18 -0.002330504590645433
v 0.01646711677312851 0.0017328589456155896 -0.002330504590645433
v 0.015798259526491165 0.00334762642160058 -0.002330504590645433
v 0.014734258875250816 0.004734258633106947 -0.002330504590645433
v 0.01334762666374445 0.0057982588186860085 -0.002330504590645433
v 0.01173285860568285 0.006467117462307215 -0.002330504590645433
v 0.009999999776482582 0.00669525284320116 -0.002330504590645433
v 0.008267140947282314 0.006467117462307215 -0.002330504590645433
v 0.006652373820543289 0.0057982588186860085 -0.002330504590645433
v 0.005265741143375635 0.004734258633106947 -0.002330504590645433
v 0.004201740957796574 0.00334762642160058 -0.002330504590645433
v 0.0035328823141753674 0.0017328589456155896 -0.002330504590645433
v 0.0033047471661120653 1.4866447724417943e-18 -0.002330504590645433
v 0.0035328823141753674 -0.0017328589456155896 -0.002330504590645433
v 0.008832912892103195 0.004355627112090588 -0.0038505371194332847
v 0.0077453614212572575 0.0039051484782248735 -0.0038505371194332847
v 0.006811459548771381 0.0031885404605418444 -0.0038505371194332847
v 0.006094851531088352 0.0022546385880559683 -0.0038505371194332847
v 0.0056443726643919945 0.001167086767964065 -0.0038505371194332847
v 0.005490723066031933 1.2773742813204724e-18 -0.0038505371194332847
v 0.0056443726643919945 -0.001167086767964065 -0.0038505371194332847
v 0.006094851531088352 -0.0022546385880559683 -0.0038505371194332847
v 0.006811459548771381 -0.0031885404605418444 -0.0038505371194332847
v 0.0077453614212572575 -0.0039051484782248735 -0.0038505371194332847
v 0.008832912892103195 -0.004355627112090588 -0.0038505371194332847
v 0.009999999776482582 -0.004509277176111937 -0.0038505371194332847
v 0.011167086660861969 -0.004355627112090588 -0.0038505371194332847
v 0.012254638597369194 -0.0039051484782248735 -0.0038505371194332847
v 0.013188540004193783 -0.0031885404605418444 -0.0038505371194332847
v 0.013905148953199387 -0.0022546385880559683 -0.0038505371194332847
v 0.01435562688857317 -0.001167086767964065 -0.0038505371194332847
v 0.014509277418255806 -8.283407850609216e-19 -0.0038505371194332847
v 0.01435562688857317 0.001167086767964065 -0.0038505371194332847
v 0.013905148953199387 0.0022546385880559683 -0.0038505371194332847
v 0.013188540004193783 0.0031885404605418444 -0.0038505371194332847
v 0.012254638597369194 0.0039051484782248735 -0.0038505371194332847
v 0.011167086660861969 0.004355627112090588 -0.0038505371194332847
v 0.009999999776482582 0.004509277176111937 -0.0038505371194332847
v 0.00884825550019741 0.004298369865864515 -0.003869999898597599
v 0.0077749998308718204 0.0038538130465894938 -0.003869999898597599
v 0.006853374652564526 0.0031466251239180565 -0.003869999898597599
v 0.006146186962723732 0.0022249999456107616 -0.003869999898597599
v 0.005701629910618067 0.0011517447419464588 -0.003869999898597599
v 0.005549999885261059 1.2605824114880694e-18 -0.003869999898597599
v 0.005701629910618067 -0.0011517447419464588 -0.003869999898597599
v 0.006146186962723732 -0.0022249999456107616 -0.003869999898597599
v 0.006853374652564526 -0.0031466251239180565 -0.003869999898597599
v 0.0077749998308718204 -0.0038538130465894938 -0.003869999898597599
v 0.00884825550019741 -0.004298369865864515 -0.003869999898597599
v 0.009999999776482582 -0.004449999891221523 -0.003869999898597599
v 0.011151744984090328 -0.004298369865864515 -0.003869999898597599
v 0.012225000187754631 -0.0038538130465894938 -0.003869999898597599
v 0.013146624900400639 -0.0031466251239180565 -0.003869999898597599
v 0.013853812590241432 -0.0022249999456107616 -0.003869999898597599
v 0.014298370108008385 -0.0011517447419464588 -0.003869999898597599
v 0.014449999667704105 -8.174517277784852e-19 -0.003869999898597599
v 0.014298370108008385 0.0011517447419464588 -0.003869999898597599
v 0.013853812590241432 0.0022249999456107616 -0.003869999898597599
v 0.013146624900400639 0.0031466251239180565 -0.003869999898597599
v 0.012225000187754631 0.0038538130465894938 -0.003869999898597599
v 0.011151744984090328 0.004298369865864515 -0.003869999898597599
v 0.009999999776482582 0.004449999891221523 -0.003869999898597599
v 0.008842822164297104 0.004318647086620331 -0.0038677717093378314
v 0.007764503825455904 0.003871993161737919 -0.0038677717093378314
v 0.006838530767709017 0.003161469241604209 -0.0038677717093378314
v 0.0061280070804059505 0.0022354961838573217 -0.0038677717093378314
v 0.005681352689862251 0.0011571780778467655 -0.0038677717093378314
v 0.005529007408767939 9.927597339120283e-19 -0.0038677717093378314
v 0.005681352689862251 -0.0011571780778467655 -0.0038677717093378314
v 0.0061280070804059505 -0.0022354961838573217 -0.0038677717093378314
v 0.006838530767709017 -0.003161469241604209 -0.0038677717093378314
v 0.007764503825455904 -0.003871993161737919 -0.0038677717093378314
v 0.008842822164297104 -0.004318647086620331 -0.0038677717093378314
v 0.009999999776482582 -0.0044709923677146435 -0.0038677717093378314
v 0.011157178319990635 -0.004318647086620331 -0.0038677717093378314
v 0.012235496193170547 -0.003871993161737919 -0.0038677717093378314
v 0.013161469250917435 -0.003161469241604209 -0.0038677717093378314
v 0.013871992938220501 -0.0022354961838573217 -0.0038677717093378314
v 0.014318646863102913 -0.0011571780778467655 -0.0038677717093378314
v 0.014470992609858513 -2.9782793051336615e-18 -0.0038677717093378314
v 0.014318646863102913 0.0011571780778467655 -0.0038677717093378314
v 0.013871992938220501 0.0022354961838573217 -0.0038677717093378314
v 0.013161469250917435 0.003161469241604209 -0.0038677717093378314
v 0.012235496193170547 0.003871993161737919 -0.0038677717093378314
v 0.011157178319990635 0.004318647086620331 -0.0038677717093378314
v 0.009999999776482582 0.0044709923677146435 -0.0038677717093378314
v 0.008837630972266197 0.004338020924478769 -0.0038611863274127254
v 0.0077544753439724445 0.0038893630262464285 -0.0038611863274127254
v 0.006824348587542772 0.003175651654601097 -0.0038611863274127254
v 0.006110636983066797 0.002245524665340781 -0.0038611863274127254
v 0.0056619793176651 0.0011623691534623504 -0.0038611863274127254
v 0.00550895044580102 9.972132743300138e-19 -0.0038611863274127254
v 0.0056619793176651 -0.0011623691534623504 -0.0038611863274127254
v 0.006110636983066797 -0.002245524665340781 -0.0038611863274127254
v 0.006824348587542772 -0.003175651654601097 -0.0038611863274127254
v 0.0077544753439724445 -0.0038893630262464285 -0.0038611863274127254
v 0.008837630972266197 -0.004338020924478769 -0.0038611863274127254
v 0.009999999776482582 -0.004491049330681562 -0.0038611863274127254
v 0.011162369512021542 -0.004338020924478769 -0.0038611863274127254
v 0.012245524674654007 -0.0038893630262464285 -0.0038611863274127254
v 0.01317565143108368 -0.003175651654601097 -0.0038611863274127254
v 0.013889363035559654 -0.002245524665340781 -0.0038611863274127254
v 0.014338021166622639 -0.0011623691534623504 -0.0038611863274127254
v 0.014491049572825432 -2.991639926387618e-18 -0.0038611863274127254
v 0.014338021166622639 0.0011623691534623504 -0.0038611863274127254
v 0.013889363035559654 0.002245524665340781 -0.0038611863274127254
v 0.01317565143108368 0.003175651654601097 -0.0038611863274127254
v 0.012245524674654007 0.0038893630262464285 -0.0038611863274127254
v 0.011162369512021542 0.004338020924478769 -0.0038611863274127254
v 0.009999999776482582 0.004491049330681562 -0.0038611863274127254
v 0.009999999776482582 0.0042500002309679985 -0.003869999898597599
v 0.008900019340217113 0.004105184692889452 -0.003869999898597599
v 0.00787500012665987 0.0036806080024689436 -0.003869999898597599
v 0.006994795985519886 0.003005203790962696 -0.003869999898597599
v 0.006994795985519886 -0.003005203790962696 -0.003869999898597599
v 0.00787500012665987 -0.0036806080024689436 -0.003869999898597599
v 0.006319392006844282 0.0021250001154839993 -0.003869999898597599
v 0.00589481508359313 0.001099980901926756 -0.003869999898597599
v 0.005750000011175871 1.2039270535755108e-18 -0.003869999898597599
v 0.008900019340217113 -0.004105184692889452 -0.003869999898597599
v 0.009999999776482582 -0.0042500002309679985 -0.003869999898597599
v 0.011099981144070625 -0.004105184692889452 -0.003869999898597599
v 0.00589481508359313 -0.001099980901926756 -0.003869999898597599
v 0.006319392006844282 -0.0021250001154839993 -0.003869999898597599
v 0.012125000357627869 -0.0036806080024689436 -0.003869999898597599
v 0.013005203567445278 -0.003005203790962696 -0.003869999898597599
v 0.013005203567445278 0.003005203790962696 -0.003869999898597599
v 0.012125000357627869 0.0036806080024689436 -0.003869999898597599
v 0.014105184935033321 0.001099980901926756 -0.003869999898597599
v 0.01368060801178217 0.0021250001154839993 -0.003869999898597599
v 0.011099981144070625 0.004105184692889452 -0.003869999898597599
v 0.01368060801178217 -0.0021250001154839993 -0.003869999898597599
v 0.014105184935033321 -0.001099980901926756 -0.003869999898597599
v 0.01425000000745058 -4.5554705761479604e-18 -0.003869999898597599
v 0.009999999776482582 0.0042500002309679985 -0.003994999919086696
v 0.011099981144070625 0.004105184692889452 -0.003994999919086696
v 0.012125000357627869 0.0036806080024689436 -0.003994999919086696
v 0.013005203567445278 0.003005203790962696 -0.003994999919086696
v 0.01368060801178217 0.0021250001154839993 -0.003994999919086696
v 0.014105184935033321 0.001099980901926756 -0.003994999919086696
v 0.01425000000745058 -4.5554705761479604e-18 -0.003994999919086696
v 0.014105184935033321 -0.001099980901926756 -0.003994999919086696
v 0.01368060801178217 -0.0021250001154839993 -0.003994999919086696
v 0.013005203567445278 -0.003005203790962696 -0.003994999919086696
v 0.012125000357627869 -0.0036806080024689436 -0.003994999919086696
v 0.011099981144070625 -0.004105184692889452 -0.003994999919086696
v 0.009999999776482582 -0.0042500002309679985 -0.003994999919086696
v 0.008900019340217113 -0.004105184692889452 -0.003994999919086696
v 0.00787500012665987 -0.0036806080024689436 -0.003994999919086696
v 0.006994795985519886 -0.003005203790962696 -0.003994999919086696
v 0.006319392006844282 -0.0021250001154839993 -0.003994999919086696
v 0.00589481508359313 -0.001099980901926756 -0.003994999919086696
v 0.005750000011175871 1.2039270535755108e-18 -0.003994999919086696
v 0.00589481508359313 0.001099980901926756 -0.003994999919086696
v 0.006319392006844282 0.0021250001154839993 -0.003994999919086696
v 0.006994795985519886 0.003005203790962696 -0.003994999919086696
v 0.00787500012665987 0.0036806080024689436 -0.003994999919086696
v 0.008900019340217113 0.004105184692889452 -0.003994999919086696
v 0.013146624900400639 -0.0031466251239180565 -0.003994999919086696
v 0.012225000187754631 -0.0038538130465894938 -0.003994999919086696
v 0.011151744984090328 -0.004298369865864515 -0.003994999919086696
v 0.009999999776482582 -0.004449999891221523 -0.003994999919086696
v 0.005549999885261059 1.2605824114880694e-18 -0.003994999919086696
v 0.005701629910618067 0.0011517447419464588 -0.003994999919086696
v 0.00884825550019741 -0.004298369865864515 -0.003994999919086696
v 0.006146186962723732 0.0022249999456107616 -0.003994999919086696
v 0.006853374652564526 0.0031466251239180565 -0.003994999919086696
v 0.0077749998308718204 0.0038538130465894938 -0.003994999919086696
v 0.011151744984090328 0.004298369865864515 -0.003994999919086696
v 0.012225000187754631 0.0038538130465894938 -0.003994999919086696
v 0.013853812590241432 0.0022249999456107616 -0.003994999919086696
v 0.014298370108008385 0.0011517447419464588 -0.003994999919086696
v 0.0077749998308718204 -0.0038538130465894938 -0.003994999919086696
v 0.006853374652564526 -0.0031466251239180565 -0.003994999919086696
v 0.00884825550019741 0.004298369865864515 -0.003994999919086696
v 0.009999999776482582 0.004449999891221523 -0.003994999919086696
v 0.013146624900400639 0.0031466251239180565 -0.003994999919086696
v 0.014449999667704105 -8.174517277784852e-19 -0.003994999919086696
v 0.006146186962723732 -0.0022249999456107616 -0.003994999919086696
v 0.005701629910618067 -0.0011517447419464588 -0.003994999919086696
v 0.014298370108008385 -0.0011517447419464588 -0.003994999919086696
v 0.013853812590241432 -0.0022249999456107616 -0.003994999919086696
v 0.009999999776482582 0.004583373665809631 -0.003951208200305701
v 0.008813736028969288 0.0044271987862885 -0.003951208200305701
v 0.007708313409239054 0.003969317767769098 -0.003951208200305701
v 0.006759065203368664 0.0032409345731139183 -0.003951208200305701
v 0.006030682008713484 0.0022916868329048157 -0.003951208200305701
v 0.005572800990194082 0.0011862643295899034 -0.003951208200305701
v 0.005416626576334238 1.298364092761582e-18 -0.003951208200305701
v 0.005572800990194082 -0.0011862643295899034 -0.003951208200305701
v 0.006030682008713484 -0.0022916868329048157 -0.003951208200305701
v 0.006759065203368664 -0.0032409345731139183 -0.003951208200305701
v 0.007708313409239054 -0.003969317767769098 -0.003951208200305701
v 0.008813736028969288 -0.0044271987862885 -0.003951208200305701
v 0.009999999776482582 -0.004583373665809631 -0.003951208200305701
v 0.011186264455318451 -0.0044271987862885 -0.003951208200305701
v 0.012291686609387398 -0.003969317767769098 -0.003951208200305701
v 0.0132409343495965 -0.0032409345731139183 -0.003951208200305701
v 0.013969318009912968 -0.0022916868329048157 -0.003951208200305701
v 0.01442719902843237 -0.0011862643295899034 -0.003951208200305701
v 0.014583373442292213 -8.419520937392699e-19 -0.003951208200305701
v 0.01442719902843237 0.0011862643295899034 -0.003951208200305701
v 0.013969318009912968 0.0022916868329048157 -0.003951208200305701
v 0.0132409343495965 0.0032409345731139183 -0.003951208200305701
v 0.012291686609387398 0.003969317767769098 -0.003951208200305701
v 0.011186264455318451 0.0044271987862885 -0.003951208200305701
v 0.00882435031235218 0.004387584049254656 -0.003975169267505408
v 0.007728819269686937 0.003933800384402275 -0.003975169267505408
v 0.006788065191358328 0.0032119345851242542 -0.003975169267505408
v 0.006066199392080307 0.0022711807396262884 -0.003975169267505408
v 0.005612415727227926 0.0011756496969610453 -0.003975169267505408
v 0.005457638297230005 1.0086068600873192e-18 -0.003975169267505408
v 0.005612415727227926 -0.0011756496969610453 -0.003975169267505408
v 0.006066199392080307 -0.0022711807396262884 -0.003975169267505408
v 0.006788065191358328 -0.0032119345851242542 -0.003975169267505408
v 0.007728819269686937 -0.003933800384402275 -0.003975169267505408
v 0.00882435031235218 -0.004387584049254656 -0.003975169267505408
v 0.009999999776482582 -0.004542361479252577 -0.003975169267505408
v 0.011175649240612984 -0.004387584049254656 -0.003975169267505408
v 0.012271180748939514 -0.003933800384402275 -0.003975169267505408
v 0.013211934827268124 -0.0032119345851242542 -0.003975169267505408
v 0.013933800160884857 -0.0022711807396262884 -0.003975169267505408
v 0.014387584291398525 -0.0011756496969610453 -0.003975169267505408
v 0.014542361721396446 -3.025820476864381e-18 -0.003975169267505408
v 0.014387584291398525 0.0011756496969610453 -0.003975169267505408
v 0.013933800160884857 0.0022711807396262884 -0.003975169267505408
v 0.013211934827268124 0.0032119345851242542 -0.003975169267505408
v 0.012271180748939514 0.003933800384402275 -0.003975169267505408
v 0.011175649240612984 0.004387584049254656 -0.003975169267505408
v 0.009999999776482582 0.004542361479252577 -0.003975169267505408
v 0.008836030028760433 0.004343993496149778 -0.0039899866096675405
v 0.007751383353024721 0.0038947181310504675 -0.0039899866096675405
v 0.006819976028054953 0.0031800242140889168 -0.0039899866096675405
v 0.006105281878262758 0.0022486166562885046 -0.0039899866096675405
v 0.005656006280332804 0.001163969631306827 -0.0039899866096675405
v 0.00550276692956686 9.985863941468518e-19 -0.0039899866096675405
v 0.005656006280332804 -0.001163969631306827 -0.0039899866096675405
v 0.006105281878262758 -0.0022486166562885046 -0.0039899866096675405
v 0.006819976028054953 -0.0031800242140889168 -0.0039899866096675405
v 0.007751383353024721 -0.0038947181310504675 -0.0039899866096675405
v 0.008836030028760433 -0.004343993496149778 -0.0039899866096675405
v 0.009999999776482582 -0.004497233312577009 -0.0039899866096675405
v 0.011163969524204731 -0.004343993496149778 -0.0039899866096675405
v 0.01224861666560173 -0.0038947181310504675 -0.0039899866096675405
v 0.013180023990571499 -0.0031800242140889168 -0.0039899866096675405
v 0.013894718140363693 -0.0022486166562885046 -0.0039899866096675405
v 0.014343993738293648 -0.001163969631306827 -0.0039899866096675405
v 0.014497233554720879 -2.995759079042979e-18 -0.0039899866096675405
v 0.014343993738293648 0.001163969631306827 -0.0039899866096675405
v 0.013894718140363693 0.0022486166562885046 -0.0039899866096675405
v 0.013180023990571499 0.0031800242140889168 -0.0039899866096675405
v 0.01224861666560173 0.0038947181310504675 -0.0039899866096675405
v 0.011163969524204731 0.004343993496149778 -0.0039899866096675405
v 0.009999999776482582 0.004497233312577009 -0.0039899866096675405
v 0.009999999776482582 0.006464698351919651 -0.002566509181633592
v 0.008326812647283077 0.006244419142603874 -0.002566509181633592
v 0.006767650600522757 0.005598593037575483 -0.002566509181633592
v 0.005428767763078213 0.004571232013404369 -0.002566509181633592
v 0.004401406738907099 0.0032323491759598255 -0.002566509181633592
v 0.0037555808667093515 0.0016731871291995049 -0.002566509181633592
v 0.0035353016573935747 1.8313001212148233e-18 -0.002566509181633592
v 0.0037555808667093515 -0.0016731871291995049 -0.002566509181633592
v 0.004401406738907099 -0.0032323491759598255 -0.002566509181633592
v 0.005428767763078213 -0.004571232013404369 -0.002566509181633592
v 0.006767650600522757 -0.005598593037575483 -0.002566509181633592
v 0.008326812647283077 -0.006244419142603874 -0.002566509181633592
v 0.009999999776482582 -0.006464698351919651 -0.002566509181633592
v 0.011673186905682087 -0.006244419142603874 -0.002566509181633592
v 0.013232349418103695 -0.005598593037575483 -0.002566509181633592
v 0.014571231789886951 -0.004571232013404369 -0.002566509181633592
v 0.015598593279719353 -0.0032323491759598255 -0.002566509181633592
v 0.016244418919086456 -0.0016731871291995049 -0.002566509181633592
v 0.016464699059724808 -1.1875458789172404e-18 -0.002566509181633592
v 0.016244418919086456 0.0016731871291995049 -0.002566509181633592
v 0.015598593279719353 0.0032323491759598255 -0.002566509181633592
v 0.014571231789886951 0.004571232013404369 -0.002566509181633592
v 0.013232349418103695 0.005598593037575483 -0.002566509181633592
v 0.011673186905682087 0.006244419142603874 -0.002566509181633592
v 0.015814103186130524 -0.0033567743375897408 -0.0024544836487621073
v 0.016484789550304413 -0.001737594255246222 -0.0024544836487621073
v 0.0147471958771348 -0.0047471956349909306 -0.0024544836487621073
v 0.013356774114072323 -0.005814103409647942 -0.0024544836487621073
v 0.01173759438097477 -0.006484789773821831 -0.0024544836487621073
v 0.009999999776482582 -0.0067135486751794815 -0.0024544836487621073
v 0.00826240610331297 -0.006484789773821831 -0.0024544836487621073
v 0.006643225904554129 -0.005814103409647942 -0.0024544836487621073
v 0.0052528041414916515 -0.0047471956349909306 -0.0024544836487621073
v 0.0041858963668346405 -0.0033567743375897408 -0.0024544836487621073
v 0.003515210235491395 -0.001737594255246222 -0.0024544836487621073
v 0.003286451566964388 1.4907072632251953e-18 -0.0024544836487621073
v 0.003515210235491395 0.001737594255246222 -0.0024544836487621073
v 0.0041858963668346405 0.0033567743375897408 -0.0024544836487621073
v 0.0052528041414916515 0.0047471956349909306 -0.0024544836487621073
v 0.006643225904554129 0.005814103409647942 -0.0024544836487621073
v 0.00826240610331297 0.006484789773821831 -0.0024544836487621073
v 0.009999999776482582 0.0067135486751794815 -0.0024544836487621073
v 0.01173759438097477 0.006484789773821831 -0.0024544836487621073
v 0.013356774114072323 0.005814103409647942 -0.0024544836487621073
v 0.0147471958771348 0.0047471956349909306 -0.0024544836487621073
v 0.015814103186130524 0.0033567743375897408 -0.0024544836487621073
v 0.016484789550304413 0.001737594255246222 -0.0024544836487621073
v 0.016713548451662064 -4.472121789675586e-18 -0.0024544836487621073
v 0.008296147920191288 0.006358861457556486 -0.0024972893297672276
v 0.006708411034196615 0.005701199173927307 -0.0024972893297672276
v 0.00534499017521739 0.004655009601265192 -0.0024972893297672276
v 0.004298800602555275 0.0032915889751166105 -0.0024972893297672276
v 0.003641138318926096 0.001703851856291294 -0.0024972893297672276
v 0.0034168220590800047 1.461759147110713e-18 -0.0024972893297672276
v 0.003641138318926096 -0.001703851856291294 -0.0024972893297672276
v 0.004298800602555275 -0.0032915889751166105 -0.0024972893297672276
v 0.00534499017521739 -0.004655009601265192 -0.0024972893297672276
v 0.006708411034196615 -0.005701199173927307 -0.0024972893297672276
v 0.008296147920191288 -0.006358861457556486 -0.0024972893297672276
v 0.009999999776482582 -0.006583177950233221 -0.0024972893297672276
v 0.011703851632773876 -0.006358861457556486 -0.0024972893297672276
v 0.013291588984429836 -0.005701199173927307 -0.0024972893297672276
v 0.014655009843409061 -0.004655009601265192 -0.0024972893297672276
v 0.01570119895040989 -0.0032915889751166105 -0.0024972893297672276
v 0.016358861699700356 -0.001703851856291294 -0.0024972893297672276
v 0.01658317819237709 -4.3852773379345624e-18 -0.0024972893297672276
v 0.016358861699700356 0.001703851856291294 -0.0024972893297672276
v 0.01570119895040989 0.0032915889751166105 -0.0024972893297672276
v 0.014655009843409061 0.004655009601265192 -0.0024972893297672276
v 0.013291588984429836 0.005701199173927307 -0.0024972893297672276
v 0.011703851632773876 0.006358861457556486 -0.0024972893297672276
v 0.009999999776482582 0.006583177950233221 -0.0024972893297672276
usemtl head_darkblack
f 233 229 228
f 143 225 234
f 225 226 234
f 234 226 113
f 146 223 224
f 215 214 221
f 214 146 221
f 221 146 222
f 146 224 222
f 208 219 82
f 219 220 82
f 220 212 82
f 82 212 235
f 212 213 235
f 235 213 217
f 215 216 214
f 216 211 214
f 214 211 205
f 211 210 205
f 210 209 205
f 209 206 205
f 205 206 82
f 206 207 82
f 82 207 208
f 35 33 58
f 8 9 236
f 9 5 236
f 236 5 3
f 58 33 237
f 33 31 237
f 237 31 29
f 3 52 186
f 52 51 186
f 186 51 49
f 41 39 58
f 39 37 58
f 58 37 35
f 49 47 186
f 47 45 186
f 186 45 58
f 45 43 58
f 58 43 41
f 8 236 11
f 236 238 11
f 11 238 13
f 29 27 237
f 27 24 237
f 237 24 239
f 24 25 239
f 239 25 21
f 21 19 239
f 19 17 239
f 239 17 238
f 17 15 238
f 238 15 13
f 236 199 200
f 3 186 236
f 186 197 236
f 236 197 199
f 194 126 196
f 126 240 196
f 196 240 198
f 240 203 198
f 194 195 126
f 195 193 126
f 126 193 192
f 188 191 186
f 191 201 186
f 186 201 197
f 192 189 126
f 189 190 126
f 126 190 186
f 190 187 186
f 186 187 188
f 200 204 236
f 204 181 236
f 236 181 238
f 181 182 238
f 238 182 185
f 183 241 180
f 241 238 180
f 180 238 184
f 238 185 184
f 183 179 241
f 179 178 241
f 241 178 240
f 178 202 240
f 240 202 203
f 176 177 242
f 177 175 242
f 242 175 174
f 173 165 161
f 166 170 243
f 174 168 55
f 168 169 55
f 55 169 167
f 230 231 243
f 231 161 243
f 243 161 166
f 161 165 166
f 162 163 161
f 163 172 161
f 161 172 173
f 167 164 55
f 164 159 55
f 55 159 161
f 159 160 161
f 161 160 162
f 170 171 243
f 171 157 243
f 243 157 233
f 157 156 233
f 233 156 153
f 176 242 155
f 242 244 155
f 155 244 158
f 153 154 233
f 154 151 233
f 233 151 244
f 151 152 244
f 244 152 158
f 217 218 235
f 218 149 235
f 235 149 234
f 149 148 234
f 234 148 145
f 223 146 147
f 146 143 147
f 147 143 150
f 145 141 234
f 141 142 234
f 234 142 143
f 142 144 143
f 143 144 150
f 136 138 81
f 138 139 81
f 139 137 81
f 137 135 81
f 81 135 126
f 245 134 124
f 135 133 126
f 133 128 126
f 126 128 129
f 130 240 127
f 240 126 127
f 127 126 132
f 126 129 132
f 245 124 81
f 124 125 81
f 81 125 136
f 122 123 246
f 123 121 246
f 246 121 245
f 121 140 245
f 245 140 134
f 241 120 115
f 130 131 240
f 131 117 240
f 240 117 241
f 117 118 241
f 241 118 120
f 115 116 241
f 116 114 241
f 241 114 246
f 114 119 246
f 246 119 122
f 109 239 110
f 239 238 110
f 110 238 111
f 238 241 111
f 111 241 112
f 241 246 112
f 112 246 113
f 229 233 108
f 233 244 108
f 108 244 109
f 230 243 107
f 243 233 107
f 107 233 227
f 233 228 227
f 227 228 232
f 106 98 245
f 91 101 81
f 93 103 82
f 103 89 82
f 101 102 81
f 102 100 81
f 81 100 245
f 100 105 245
f 245 105 106
f 235 95 96
f 96 104 235
f 104 94 235
f 235 94 82
f 94 92 82
f 82 92 93
f 88 90 235
f 90 97 235
f 235 97 95
f 98 99 245
f 99 86 245
f 245 86 84
f 113 246 234
f 246 245 234
f 234 245 235
f 245 84 235
f 235 84 88
f 89 85 82
f 85 83 82
f 82 83 81
f 83 87 81
f 81 87 91
f 74 72 55
f 237 76 77
f 67 75 58
f 75 61 58
f 174 55 242
f 55 72 242
f 242 72 79
f 79 70 242
f 70 71 242
f 242 71 78
f 77 80 237
f 80 68 237
f 237 68 58
f 68 66 58
f 58 66 67
f 63 65 55
f 65 73 55
f 55 73 74
f 57 64 237
f 64 69 237
f 237 69 76
f 78 62 242
f 62 60 242
f 242 60 56
f 109 244 239
f 244 242 239
f 239 242 237
f 242 56 237
f 237 56 57
f 61 59 58
f 59 53 58
f 58 53 55
f 53 54 55
f 55 54 63
f 255 205 247
f 205 82 247
f 247 82 248
f 82 81 248
f 248 81 249
f 81 126 249
f 249 126 250
f 126 186 250
f 250 186 251
f 186 58 251
f 251 58 252
f 58 55 252
f 252 55 253
f 55 161 253
f 253 161 254
f 161 231 254
f 255 256 205
f 256 214 205
f 259 225 257
f 225 143 257
f 257 143 258
f 143 146 258
f 258 146 256
f 146 214 256
f 259 260 225
f 260 226 225
f 268 228 261
f 228 229 261
f 261 229 262
f 229 108 262
f 262 108 263
f 108 109 263
f 263 109 264
f 109 110 264
f 264 110 265
f 110 111 265
f 265 111 266
f 111 112 266
f 266 112 267
f 112 113 267
f 267 113 260
f 113 226 260
f 268 269 228
f 269 232 228
f 272 230 270
f 230 107 270
f 270 107 271
f 107 227 271
f 271 227 269
f 227 232 269
f 272 254 230
f 254 231 230
f 421 408 427
f 327 329 428
f 254 272 270
f 367 368 247
f 429 363 362
f 362 364 429
f 364 365 429
f 429 365 247
f 365 366 247
f 247 366 367
f 368 369 247
f 369 370 247
f 247 370 255
f 370 371 255
f 371 372 255
f 372 373 255
f 255 373 256
f 373 374 256
f 374 375 256
f 375 376 256
f 256 376 258
f 376 352 258
f 258 352 351
f 269 268 430
f 431 23 22
f 30 251 28
f 251 431 28
f 28 431 26
f 431 22 26
f 30 32 251
f 32 34 251
f 251 34 36
f 36 38 251
f 38 40 251
f 251 40 250
f 40 42 250
f 42 44 250
f 250 44 46
f 46 48 250
f 48 50 250
f 250 50 432
f 50 2 432
f 432 2 1
f 1 4 432
f 4 7 432
f 432 7 433
f 7 6 433
f 433 6 10
f 18 20 434
f 10 12 433
f 12 14 433
f 433 14 434
f 14 16 434
f 434 16 18
f 300 299 435
f 310 312 432
f 312 313 432
f 432 313 250
f 313 314 250
f 321 322 249
f 322 323 249
f 314 315 250
f 315 316 250
f 250 316 317
f 300 435 324
f 317 318 250
f 318 319 250
f 250 319 249
f 319 320 249
f 249 320 321
f 299 301 435
f 301 303 435
f 435 303 436
f 303 302 436
f 436 302 304
f 304 305 436
f 305 306 436
f 436 306 433
f 306 307 433
f 307 308 433
f 308 309 433
f 433 309 432
f 309 311 432
f 432 311 310
f 350 326 428
f 326 325 428
f 428 325 327
f 437 337 336
f 340 253 339
f 253 437 339
f 339 437 338
f 437 336 338
f 340 341 253
f 341 342 253
f 253 342 343
f 343 344 253
f 344 345 253
f 253 345 252
f 345 346 252
f 252 346 347
f 347 348 252
f 348 349 252
f 252 349 350
f 328 330 438
f 328 438 329
f 337 437 335
f 437 430 335
f 335 430 334
f 330 331 438
f 331 332 438
f 438 332 430
f 332 333 430
f 430 333 334
f 360 361 439
f 351 353 258
f 353 355 258
f 258 355 257
f 355 354 257
f 257 354 356
f 356 357 257
f 357 358 257
f 257 358 439
f 358 359 439
f 439 359 360
f 248 249 424
f 424 422 248
f 422 423 248
f 248 423 419
f 425 417 435
f 417 249 435
f 435 249 324
f 249 323 324
f 417 418 249
f 418 416 249
f 249 416 413
f 413 414 249
f 414 420 249
f 249 420 424
f 419 415 248
f 415 411 248
f 248 411 427
f 411 412 427
f 427 412 421
f 408 409 440
f 409 410 440
f 440 410 407
f 407 406 440
f 406 404 440
f 440 404 436
f 404 405 436
f 436 405 403
f 403 402 436
f 402 401 436
f 436 401 435
f 401 426 435
f 435 426 425
f 388 389 427
f 391 392 248
f 397 398 247
f 427 389 248
f 389 390 248
f 248 390 391
f 397 247 396
f 377 379 429
f 379 380 429
f 429 380 381
f 385 386 427
f 386 387 427
f 427 387 388
f 398 399 247
f 399 400 247
f 247 400 429
f 400 378 429
f 429 378 377
f 381 382 429
f 382 383 429
f 429 383 427
f 383 384 427
f 427 384 385
f 392 393 248
f 393 394 248
f 248 394 247
f 394 395 247
f 247 395 396
f 277 278 428
f 289 290 251
f 277 428 275
f 350 428 252
f 428 281 252
f 252 281 282
f 289 251 288
f 294 295 431
f 295 296 431
f 431 296 297
f 278 279 428
f 279 280 428
f 428 280 281
f 282 283 252
f 283 284 252
f 252 284 285
f 290 291 251
f 291 292 251
f 251 292 431
f 292 293 431
f 431 293 294
f 297 298 431
f 298 287 431
f 431 287 428
f 287 276 428
f 428 276 275
f 285 286 252
f 286 274 252
f 252 274 251
f 274 273 251
f 251 273 288
f 408 440 427
f 440 439 427
f 427 439 429
f 439 361 429
f 429 361 363
f 329 438 428
f 438 434 428
f 428 434 431
f 434 20 431
f 431 20 23
f 253 254 437
f 254 270 437
f 437 270 430
f 270 271 430
f 430 271 269
f 268 261 430
f 261 262 430
f 430 262 438
f 262 263 438
f 438 263 434
f 263 264 434
f 434 264 433
f 264 265 433
f 433 265 436
f 265 266 436
f 436 266 440
f 266 267 440
f 440 267 439
f 267 260 439
f 439 260 257
f 260 259 257
f 3 2 52
f 2 50 52
f 52 50 51
f 50 48 51
f 51 48 49
f 48 46 49
f 49 46 47
f 46 44 47
f 47 44 45
f 44 42 45
f 45 42 43
f 42 40 43
f 43 40 41
f 40 38 41
f 41 38 39
f 38 36 39
f 39 36 37
f 36 34 37
f 37 34 35
f 34 32 35
f 35 32 33
f 32 30 33
f 33 30 31
f 30 28 31
f 31 28 29
f 28 26 29
f 29 26 27
f 26 22 27
f 27 22 24
f 22 23 24
f 24 23 25
f 23 20 25
f 25 20 21
f 20 18 21
f 21 18 19
f 18 16 19
f 19 16 17
f 16 14 17
f 17 14 15
f 14 12 15
f 15 12 13
f 12 10 13
f 13 10 11
f 10 6 11
f 11 6 8
f 6 7 8
f 8 7 9
f 7 4 9
f 9 4 5
f 4 1 5
f 5 1 3
f 1 2 3
f 196 300 194
f 300 324 194
f 194 324 195
f 324 323 195
f 195 323 193
f 323 322 193
f 193 322 192
f 322 321 192
f 192 321 189
f 321 320 189
f 189 320 190
f 320 319 190
f 190 319 187
f 319 318 187
f 187 318 188
f 318 317 188
f 188 317 191
f 317 316 191
f 191 316 201
f 316 315 201
f 201 315 197
f 315 314 197
f 197 314 199
f 314 313 199
f 199 313 200
f 313 312 200
f 200 312 204
f 312 310 204
f 204 310 181
f 310 311 181
f 181 311 182
f 311 309 182
f 182 309 185
f 309 308 185
f 185 308 184
f 308 307 184
f 184 307 180
f 307 306 180
f 180 306 183
f 306 305 183
f 183 305 179
f 305 304 179
f 179 304 178
f 304 302 178
f 178 302 202
f 302 303 202
f 202 303 203
f 303 301 203
f 203 301 198
f 301 299 198
f 198 299 196
f 299 300 196
f 609 560 610
f 560 537 610
f 610 537 611
f 537 538 611
f 611 538 612
f 538 539 612
f 612 539 615
f 539 540 615
f 615 540 616
f 540 541 616
f 616 541 617
f 541 542 617
f 617 542 621
f 542 543 621
f 621 543 622
f 543 544 622
f 622 544 613
f 544 545 613
f 613 545 614
f 545 546 614
f 614 546 618
f 546 547 618
f 618 547 619
f 547 548 619
f 619 548 620
f 548 549 620
f 620 549 623
f 549 550 623
f 623 550 624
f 550 551 624
f 624 551 630
f 551 552 630
f 630 552 631
f 552 553 631
f 631 553 632
f 553 554 632
f 632 554 627
f 554 555 627
f 627 555 628
f 555 556 628
f 628 556 625
f 556 557 625
f 625 557 626
f 557 558 626
f 626 558 629
f 558 559 629
f 629 559 609
f 559 560 609
f 633 609 656
f 609 610 656
f 656 610 655
f 610 611 655
f 655 611 654
f 611 612 654
f 654 612 653
f 612 615 653
f 653 615 652
f 615 616 652
f 652 616 651
f 616 617 651
f 651 617 650
f 617 621 650
f 650 621 649
f 621 622 649
f 649 622 648
f 622 613 648
f 648 613 647
f 613 614 647
f 647 614 646
f 614 618 646
f 646 618 645
f 618 619 645
f 645 619 644
f 619 620 644
f 644 620 643
f 620 623 643
f 643 623 642
f 623 624 642
f 642 624 641
f 624 630 641
f 641 630 640
f 630 631 640
f 640 631 639
f 631 632 639
f 639 632 638
f 632 627 638
f 638 627 637
f 627 628 637
f 637 628 636
f 628 625 636
f 636 625 635
f 625 626 635
f 635 626 634
f 626 629 634
f 634 629 633
f 629 609 633
f 643 658 644
f 658 659 644
f 644 659 645
f 659 660 645
f 645 660 646
f 660 663 646
f 646 663 647
f 663 671 647
f 647 671 648
f 671 672 648
f 648 672 649
f 672 677 649
f 649 677 650
f 677 678 650
f 650 678 651
f 678 661 651
f 651 661 652
f 661 662 652
f 652 662 653
f 662 664 653
f 653 664 654
f 664 665 654
f 654 665 655
f 665 666 655
f 655 666 656
f 666 673 656
f 656 673 633
f 673 674 633
f 633 674 634
f 674 667 634
f 634 667 635
f 667 668 635
f 635 668 636
f 668 675 636
f 636 675 637
f 675 669 637
f 637 669 638
f 669 670 638
f 638 670 639
f 670 676 639
f 639 676 640
f 676 679 640
f 640 679 641
f 679 680 641
f 641 680 642
f 680 657 642
f 642 657 643
f 657 658 643
f 681 705 682
f 705 706 682
f 682 706 683
f 706 707 683
f 683 707 684
f 707 708 684
f 684 708 685
f 708 709 685
f 685 709 686
f 709 710 686
f 686 710 687
f 710 711 687
f 687 711 688
f 711 712 688
f 688 712 689
f 712 713 689
f 689 713 690
f 713 714 690
f 690 714 691
f 714 715 691
f 691 715 692
f 715 716 692
f 692 716 693
f 716 717 693
f 693 717 694
f 717 718 694
f 694 718 695
f 718 719 695
f 695 719 696
f 719 720 696
f 696 720 697
f 720 721 697
f 697 721 698
f 721 722 698
f 698 722 699
f 722 723 699
f 699 723 700
f 723 724 700
f 700 724 701
f 724 725 701
f 701 725 702
f 725 726 702
f 702 726 703
f 726 727 703
f 703 727 704
f 727 728 704
f 704 728 681
f 728 705 681
f 728 729 705
f 729 730 705
f 705 730 706
f 730 731 706
f 706 731 707
f 731 732 707
f 707 732 708
f 732 733 708
f 708 733 709
f 733 734 709
f 709 734 710
f 734 735 710
f 710 735 711
f 735 736 711
f 711 736 712
f 736 737 712
f 712 737 713
f 737 738 713
f 713 738 714
f 738 739 714
f 714 739 715
f 739 740 715
f 715 740 716
f 740 741 716
f 716 741 717
f 741 742 717
f 717 742 718
f 742 743 718
f 718 743 719
f 743 744 719
f 719 744 720
f 744 745 720
f 720 745 721
f 745 746 721
f 721 746 722
f 746 747 722
f 722 747 723
f 747 748 723
f 723 748 724
f 748 749 724
f 724 749 725
f 749 750 725
f 725 750 726
f 750 751 726
f 726 751 727
f 751 752 727
f 727 752 728
f 752 729 728
f 752 673 729
f 673 666 729
f 729 666 730
f 666 665 730
f 730 665 731
f 665 664 731
f 731 664 732
f 664 662 732
f 732 662 733
f 662 661 733
f 733 661 734
f 661 678 734
f 734 678 735
f 678 677 735
f 735 677 736
f 677 672 736
f 736 672 737
f 672 671 737
f 737 671 738
f 671 663 738
f 738 663 739
f 663 660 739
f 739 660 740
f 660 659 740
f 740 659 741
f 659 658 741
f 741 658 742
f 658 657 742
f 742 657 743
f 657 680 743
f 743 680 744
f 680 679 744
f 744 679 745
f 679 676 745
f 745 676 746
f 676 670 746
f 746 670 747
f 670 669 747
f 747 669 748
f 669 675 748
f 748 675 749
f 675 668 749
f 749 668 750
f 668 667 750
f 750 667 751
f 667 674 751
f 751 674 752
f 674 673 752
f 778 140 777
f 140 121 777
f 777 121 779
f 121 123 779
f 779 123 780
f 123 122 780
f 780 122 781
f 122 119 781
f 781 119 782
f 119 114 782
f 782 114 783
f 114 116 783
f 783 116 784
f 116 115 784
f 784 115 785
f 115 120 785
f 785 120 786
f 120 118 786
f 118 117 786
f 786 117 787
f 117 131 787
f 787 131 788
f 131 130 788
f 788 130 789
f 130 127 789
f 789 127 790
f 127 132 790
f 790 132 791
f 132 129 791
f 791 129 792
f 129 128 792
f 792 128 793
f 128 133 793
f 793 133 794
f 133 135 794
f 794 135 795
f 135 137 795
f 795 137 796
f 137 139 796
f 796 139 797
f 139 138 797
f 797 138 798
f 138 136 798
f 798 136 799
f 136 125 799
f 799 125 800
f 125 124 800
f 800 124 778
f 124 134 778
f 778 134 140
f 793 801 792
f 801 802 792
f 792 802 791
f 802 803 791
f 791 803 790
f 803 804 790
f 790 804 789
f 804 805 789
f 789 805 788
f 805 806 788
f 788 806 787
f 806 807 787
f 787 807 786
f 807 808 786
f 786 808 785
f 808 809 785
f 785 809 784
f 809 810 784
f 784 810 783
f 810 811 783
f 783 811 782
f 811 812 782
f 782 812 781
f 812 813 781
f 781 813 780
f 813 814 780
f 780 814 779
f 814 815 779
f 779 815 777
f 815 816 777
f 777 816 778
f 816 817 778
f 778 817 800
f 817 818 800
f 800 818 799
f 818 819 799
f 799 819 798
f 819 820 798
f 798 820 797
f 820 821 797
f 797 821 796
f 821 822 796
f 796 822 795
f 822 823 795
f 795 823 794
f 823 824 794
f 794 824 793
f 824 801 793
f 801 754 802
f 754 755 802
f 802 755 803
f 755 756 803
f 803 756 804
f 756 757 804
f 804 757 805
f 757 758 805
f 805 758 806
f 758 759 806
f 806 759 807
f 759 760 807
f 807 760 808
f 760 761 808
f 808 761 809
f 761 762 809
f 809 762 810
f 762 763 810
f 810 763 811
f 763 764 811
f 811 764 812
f 764 765 812
f 812 765 813
f 765 766 813
f 813 766 814
f 766 767 814
f 814 767 815
f 767 768 815
f 815 768 816
f 768 769 816
f 816 769 817
f 769 770 817
f 817 770 818
f 770 771 818
f 818 771 819
f 771 772 819
f 819 772 820
f 772 773 820
f 820 773 821
f 773 774 821
f 821 774 822
f 774 775 822
f 822 775 823
f 775 776 823
f 823 776 824
f 776 753 824
f 824 753 801
f 753 754 801
f 753 682 754
f 682 683 754
f 754 683 755
f 683 684 755
f 755 684 756
f 684 685 756
f 756 685 757
f 685 686 757
f 757 686 758
f 686 687 758
f 758 687 759
f 687 688 759
f 759 688 760
f 688 689 760
f 760 689 761
f 689 690 761
f 761 690 762
f 690 691 762
f 762 691 763
f 691 692 763
f 763 692 764
f 692 693 764
f 764 693 765
f 693 694 765
f 765 694 766
f 694 695 766
f 766 695 767
f 695 696 767
f 767 696 768
f 696 697 768
f 768 697 769
f 697 698 769
f 769 698 770
f 698 699 770
f 770 699 771
f 699 700 771
f 771 700 772
f 700 701 772
f 772 701 773
f 701 702 773
f 773 702 774
f 702 703 774
f 774 703 775
f 703 704 775
f 775 704 776
f 704 681 776
f 776 681 753
f 681 682 753
f 537 561 538
f 561 562 538
f 538 562 539
f 562 563 539
f 539 563 540
f 563 564 540
f 540 564 541
f 564 565 541
f 541 565 542
f 565 566 542
f 542 566 543
f 566 567 543
f 543 567 544
f 567 568 544
f 544 568 545
f 568 569 545
f 545 569 546
f 569 570 546
f 546 570 547
f 570 571 547
f 547 571 548
f 571 572 548
f 548 572 549
f 572 573 549
f 549 573 550
f 573 574 550
f 550 574 551
f 574 575 551
f 551 575 552
f 575 576 552
f 552 576 553
f 576 577 553
f 553 577 554
f 577 578 554
f 554 578 555
f 578 579 555
f 555 579 556
f 579 580 556
f 556 580 557
f 580 581 557
f 557 581 558
f 581 582 558
f 558 582 559
f 582 583 559
f 559 583 560
f 583 584 560
f 560 584 537
f 584 561 537
f 561 585 562
f 585 586 562
f 562 586 563
f 586 587 563
f 563 587 564
f 587 588 564
f 564 588 565
f 588 589 565
f 565 589 566
f 589 590 566
f 566 590 567
f 590 591 567
f 567 591 568
f 591 592 568
f 568 592 569
f 592 593 569
f 569 593 570
f 593 594 570
f 570 594 571
f 594 595 571
f 571 595 572
f 595 596 572
f 572 596 573
f 596 597 573
f 573 597 574
f 597 598 574
f 574 598 575
f 598 599 575
f 575 599 576
f 599 600 576
f 576 600 577
f 600 601 577
f 577 601 578
f 601 602 578
f 578 602 579
f 602 603 579
f 579 603 580
f 603 604 580
f 580 604 581
f 604 605 581
f 581 605 582
f 605 606 582
f 582 606 583
f 606 607 583
f 583 607 584
f 607 608 584
f 584 608 561
f 608 585 561
f 585 513 586
f 513 514 586
f 586 514 587
f 514 515 587
f 587 515 588
f 515 516 588
f 588 516 589
f 516 517 589
f 589 517 590
f 517 518 590
f 590 518 591
f 518 519 591
f 591 519 592
f 519 520 592
f 592 520 593
f 520 521 593
f 593 521 594
f 521 522 594
f 594 522 595
f 522 523 595
f 595 523 596
f 523 524 596
f 596 524 597
f 524 525 597
f 597 525 598
f 525 526 598
f 598 526 599
f 526 527 599
f 599 527 600
f 527 528 600
f 600 528 601
f 528 529 601
f 601 529 602
f 529 530 602
f 602 530 603
f 530 531 603
f 603 531 604
f 531 532 604
f 604 532 605
f 532 533 605
f 605 533 606
f 533 534 606
f 606 534 607
f 534 535 607
f 607 535 608
f 535 536 608
f 608 536 585
f 536 513 585
f 513 463 514
f 463 462 514
f 514 462 515
f 462 461 515
f 515 461 516
f 461 460 516
f 516 460 517
f 460 459 517
f 517 459 518
f 459 458 518
f 518 458 519
f 458 457 519
f 519 457 520
f 457 456 520
f 520 456 521
f 456 455 521
f 521 455 522
f 455 454 522
f 522 454 523
f 454 453 523
f 523 453 524
f 453 452 524
f 524 452 525
f 452 451 525
f 525 451 526
f 451 450 526
f 526 450 527
f 450 449 527
f 527 449 528
f 449 448 528
f 528 448 529
f 448 447 529
f 529 447 530
f 447 446 530
f 530 446 531
f 446 445 531
f 531 445 532
f 445 444 532
f 532 444 533
f 444 443 533
f 533 443 534
f 443 442 534
f 534 442 535
f 442 441 535
f 535 441 536
f 441 464 536
f 536 464 513
f 464 463 513
f 441 465 464
f 465 466 464
f 464 466 463
f 466 467 463
f 463 467 462
f 467 468 462
f 462 468 461
f 468 469 461
f 461 469 460
f 469 470 460
f 460 470 459
f 470 471 459
f 459 471 458
f 471 472 458
f 458 472 457
f 472 473 457
f 457 473 456
f 473 474 456
f 456 474 455
f 474 475 455
f 455 475 454
f 475 476 454
f 454 476 453
f 476 477 453
f 453 477 452
f 477 478 452
f 452 478 451
f 478 479 451
f 451 479 450
f 479 480 450
f 450 480 449
f 480 481 449
f 449 481 448
f 481 482 448
f 448 482 447
f 482 483 447
f 447 483 446
f 483 484 446
f 446 484 445
f 484 485 445
f 445 485 444
f 485 486 444
f 444 486 443
f 486 487 443
f 443 487 442
f 487 488 442
f 442 488 441
f 488 465 441
f 490 402 489
f 402 403 489
f 489 403 491
f 403 405 491
f 491 405 492
f 405 404 492
f 492 404 493
f 404 406 493
f 493 406 494
f 406 407 494
f 494 407 495
f 407 410 495
f 495 410 496
f 410 409 496
f 496 409 497
f 409 408 497
f 497 408 498
f 408 421 498
f 421 412 498
f 498 412 499
f 412 411 499
f 499 411 500
f 411 415 500
f 500 415 501
f 415 419 501
f 501 419 502
f 419 423 502
f 502 423 503
f 423 422 503
f 503 422 504
f 422 424 504
f 504 424 505
f 424 420 505
f 505 420 506
f 420 414 506
f 506 414 507
f 414 413 507
f 507 413 508
f 413 416 508
f 508 416 509
f 416 418 509
f 509 418 510
f 418 417 510
f 510 417 511
f 417 425 511
f 511 425 512
f 425 426 512
f 512 426 490
f 426 401 490
f 490 401 402
f 465 506 466
f 506 507 466
f 466 507 467
f 507 508 467
f 467 508 468
f 508 509 468
f 468 509 469
f 509 510 469
f 469 510 470
f 510 511 470
f 470 511 471
f 511 512 471
f 471 512 472
f 512 490 472
f 472 490 473
f 490 489 473
f 473 489 474
f 489 491 474
f 474 491 475
f 491 492 475
f 475 492 476
f 492 493 476
f 476 493 477
f 493 494 477
f 477 494 478
f 494 495 478
f 478 495 479
f 495 496 479
f 479 496 480
f 496 497 480
f 480 497 481
f 497 498 481
f 481 498 482
f 498 499 482
f 482 499 483
f 499 500 483
f 483 500 484
f 500 501 484
f 484 501 485
f 501 502 485
f 485 502 486
f 502 503 486
f 486 503 487
f 503 504 487
f 487 504 488
f 504 505 488
f 488 505 465
f 505 506 465
f 57 287 64
f 287 298 64
f 64 298 69
f 298 297 69
f 69 297 76
f 297 296 76
f 76 296 77
f 296 295 77
f 77 295 80
f 295 294 80
f 80 294 68
f 294 293 68
f 68 293 66
f 293 292 66
f 66 292 67
f 292 291 67
f 67 291 75
f 291 290 75
f 75 290 61
f 290 289 61
f 61 289 59
f 289 288 59
f 59 288 53
f 288 273 53
f 56 276 57
f 276 287 57
f 54 274 63
f 274 286 63
f 63 286 65
f 286 285 65
f 65 285 73
f 285 284 73
f 73 284 74
f 284 283 74
f 74 283 72
f 283 282 72
f 72 282 79
f 282 281 79
f 79 281 70
f 281 280 70
f 70 280 71
f 280 279 71
f 71 279 78
f 279 278 78
f 78 278 62
f 278 277 62
f 62 277 60
f 277 275 60
f 60 275 56
f 275 276 56
f 53 273 54
f 273 274 54
f 94 378 92
f 378 400 92
f 92 400 93
f 400 399 93
f 93 399 103
f 399 398 103
f 103 398 89
f 398 397 89
f 89 397 85
f 397 396 85
f 85 396 83
f 396 395 83
f 83 395 87
f 395 394 87
f 87 394 91
f 394 393 91
f 91 393 101
f 393 392 101
f 101 392 102
f 392 391 102
f 102 391 100
f 391 390 100
f 100 390 105
f 390 389 105
f 105 389 106
f 389 388 106
f 106 388 98
f 388 387 98
f 98 387 99
f 387 386 99
f 99 386 86
f 386 385 86
f 86 385 84
f 385 384 84
f 84 384 88
f 384 383 88
f 88 383 90
f 383 382 90
f 90 382 97
f 382 381 97
f 97 381 95
f 381 380 95
f 95 380 96
f 380 379 96
f 96 379 104
f 379 377 104
f 104 377 94
f 377 378 94
f 221 352 215
f 352 376 215
f 215 376 216
f 376 375 216
f 216 375 211
f 375 374 211
f 211 374 210
f 374 373 210
f 210 373 209
f 373 372 209
f 209 372 206
f 372 371 206
f 206 371 207
f 371 370 207
f 207 370 208
f 370 369 208
f 208 369 219
f 369 368 219
f 219 368 220
f 368 367 220
f 220 367 212
f 367 366 212
f 212 366 213
f 366 365 213
f 213 365 217
f 365 364 217
f 217 364 218
f 364 362 218
f 218 362 149
f 362 363 149
f 149 363 148
f 363 361 148
f 148 361 145
f 361 360 145
f 145 360 141
f 360 359 141
f 141 359 142
f 359 358 142
f 142 358 144
f 358 357 144
f 144 357 150
f 357 356 150
f 150 356 147
f 356 354 147
f 147 354 223
f 354 355 223
f 223 355 224
f 355 353 224
f 224 353 222
f 353 351 222
f 222 351 221
f 351 352 221
f 174 326 168
f 326 350 168
f 168 350 169
f 350 349 169
f 169 349 167
f 349 348 167
f 167 348 164
f 348 347 164
f 164 347 159
f 347 346 159
f 159 346 160
f 346 345 160
f 160 345 162
f 345 344 162
f 162 344 163
f 344 343 163
f 163 343 172
f 343 342 172
f 172 342 173
f 342 341 173
f 173 341 165
f 341 340 165
f 165 340 166
f 340 339 166
f 166 339 170
f 339 338 170
f 170 338 171
f 338 336 171
f 171 336 157
f 336 337 157
f 157 337 156
f 337 335 156
f 156 335 153
f 335 334 153
f 153 334 154
f 334 333 154
f 154 333 151
f 333 332 151
f 151 332 152
f 332 331 152
f 152 331 158
f 331 330 158
f 158 330 155
f 330 328 155
f 155 328 176
f 328 329 176
f 176 329 177
f 329 327 177
f 177 327 175
f 327 325 175
f 175 325 174
f 325 326 174
