v 0.09999999925494203 0.0 -0.10000007078051511
v 0.09807852862716826 0.01950901603364742 -0.10000007078051511
v 0.09238795402357025 0.038268314941404875 -0.10000007078051511
v 0.08314696440736238 0.05555697863185942 -0.10000007078051511
v 0.0707106775737504 0.07071062278284766 -0.10000007078051511
v 0.055557021680794544 0.08314689998007366 -0.10000007078051511
v 0.03826834459402904 0.09238788243580477 -0.10000007078051511
v 0.019509031150422775 0.09807845263000196 -0.10000007078051511
v 6.123233740848166e-18 0.09999992176890427 -0.10000007078051511
v -0.019509031150422775 0.09807845263000196 -0.10000007078051511
v -0.03826834459402904 0.09238788243580477 -0.10000007078051511
v -0.055557021680794544 0.08314689998007366 -0.10000007078051511
v -0.0707106775737504 0.07071062278284766 -0.10000007078051511
v -0.08314696440736238 0.05555697863185942 -0.10000007078051511
v -0.09238795402357025 0.038268314941404875 -0.10000007078051511
v -0.09807852862716826 0.01950901603364742 -0.10000007078051511
v -0.09999999925494203 1.2246457992393842e-17 -0.10000007078051511
v -0.09807852862716826 -0.01950901603364742 -0.10000007078051511
v -0.09238795402357025 -0.038268314941404875 -0.10000007078051511
v -0.08314696440736238 -0.05555697863185942 -0.10000007078051511
v -0.0707106775737504 -0.07071062278284766 -0.10000007078051511
v -0.055557021680794544 -0.08314689998007366 -0.10000007078051511
v -0.03826834459402904 -0.09238788243580477 -0.10000007078051511
v -0.019509031150422775 -0.09807845263000196 -0.10000007078051511
v -1.8369701646060968e-17 -0.09999992176890427 -0.10000007078051511
v 0.019509031150422775 -0.09807845263000196 -0.10000007078051511
v 0.03826834459402904 -0.09238788243580477 -0.10000007078051511
v 0.055557021680794544 -0.08314689998007366 -0.10000007078051511
v 0.0707106775737504 -0.07071062278284766 -0.10000007078051511
v 0.08314696440736238 -0.05555697863185942 -0.10000007078051511
v 0.09238795402357025 -0.038268314941404875 -0.10000007078051511
v 0.09807852862716826 -0.01950901603364742 -0.10000007078051511
v 0.09999999925494203 0.0 0.10000007078051511
v 0.09807852862716826 0.01950901603364742 0.10000007078051511
v 0.09238795402357025 0.038268314941404875 0.10000007078051511
v 0.08314696440736238 0.05555697863185942 0.10000007078051511
v 0.0707106775737504 0.07071062278284766 0.10000007078051511
v 0.055557021680794544 0.08314689998007366 0.10000007078051511
v 0.03826834459402904 0.09238788243580477 0.10000007078051511
v 0.019509031150422775 0.09807845263000196 0.10000007078051511
v 6.123233740848166e-18 0.09999992176890427 0.10000007078051511
v -0.019509031150422775 0.09807845263000196 0.10000007078051511
v -0.03826834459402904 0.09238788243580477 0.10000007078051511
v -0.055557021680794544 0.08314689998007366 0.10000007078051511
v -0.0707106775737504 0.07071062278284766 0.10000007078051511
v -0.08314696440736238 0.05555697863185942 0.10000007078051511
v -0.09238795402357025 0.038268314941404875 0.10000007078051511
v -0.09807852862716826 0.01950901603364742 0.10000007078051511
v -0.09999999925494203 1.2246457992393842e-17 0.10000007078051511
v -0.09807852862716826 -0.01950901603364742 0.10000007078051511
v -0.09238795402357025 -0.038268314941404875 0.10000007078051511
v -0.08314696440736238 -0.05555697863185942 0.10000007078051511
v -0.0707106775737504 -0.07071062278284766 0.10000007078051511
v -0.055557021680794544 -0.08314689998007366 0.10000007078051511
v -0.03826834459402904 -0.09238788243580477 0.10000007078051511
v -0.019509031150422775 -0.09807845263000196 0.10000007078051511
v -1.8369701646060968e-17 -0.09999992176890427 0.10000007078051511
v 0.019509031150422775 -0.09807845263000196 0.10000007078051511
v 0.03826834459402904 -0.09238788243580477 0.10000007078051511
v 0.055557021680794544 -0.08314689998007366 0.10000007078051511
v 0.0707106775737504 -0.07071062278284766 0.10000007078051511
v 0.08314696440736238 -0.05555697863185942 0.10000007078051511
v 0.09238795402357025 -0.038268314941404875 0.10000007078051511
v 0.09807852862716826 -0.01950901603364742 0.10000007078051511
v 0.0 0.0 -0.10000007078051511
v 0.09999999925494203 0.0 -0.10000007078051511
v 0.09807852862716826 0.01950901603364742 -0.10000007078051511
v 0.09238795402357025 0.038268314941404875 -0.10000007078051511
v 0.08314696440736238 0.05555697863185942 -0.10000007078051511
v 0.0707106775737504 0.07071062278284766 -0.10000007078051511
v 0.055557021680794544 0.08314689998007366 -0.10000007078051511
v 0.03826834459402904 0.09238788243580477 -0.10000007078051511
v 0.019509031150422775 0.09807845263000196 -0.10000007078051511
v 6.123233740848166e-18 0.09999992176890427 -0.10000007078051511
v -0.019509031150422775 0.09807845263000196 -0.10000007078051511
v -0.03826834459402904 0.09238788243580477 -0.10000007078051511
v -0.055557021680794544 0.08314689998007366 -0.10000007078051511
v -0.0707106775737504 0.07071062278284766 -0.10000007078051511
v -0.08314696440736238 0.05555697863185942 -0.10000007078051511
v -0.09238795402357025 0.038268314941404875 -0.10000007078051511
v -0.09807852862716826 0.01950901603364742 -0.10000007078051511
v -0.09999999925494203 1.2246457992393842e-17 -0.10000007078051511
v -0.09807852862716826 -0.01950901603364742 -0.10000007078051511
v -0.09238795402357025 -0.038268314941404875 -0.10000007078051511
v -0.08314696440736238 -0.05555697863185942 -0.10000007078051511
v -0.0707106775737504 -0.07071062278284766 -0.10000007078051511
v -0.055557021680794544 -0.08314689998007366 -0.10000007078051511
v -0.03826834459402904 -0.09238788243580477 -0.10000007078051511
v -0.019509031150422775 -0.09807845263000196 -0.10000007078051511
v -1.8369701646060968e-17 -0.09999992176890427 -0.10000007078051511
v 0.019509031150422775 -0.09807845263000196 -0.10000007078051511
v 0.03826834459402904 -0.09238788243580477 -0.10000007078051511
v 0.055557021680794544 -0.08314689998007366 -0.10000007078051511
v 0.0707106775737504 -0.07071062278284766 -0.10000007078051511
v 0.08314696440736238 -0.05555697863185942 -0.10000007078051511
v 0.09238795402357025 -0.038268314941404875 -0.10000007078051511
v 0.09807852862716826 -0.01950901603364742 -0.10000007078051511
v 0.0 0.0 0.10000007078051511
v 0.09999999925494203 0.0 0.10000007078051511
v 0.09807852862716826 0.01950901603364742 0.10000007078051511
v 0.09238795402357025 0.038268314941404875 0.10000007078051511
v 0.08314696440736238 0.05555697863185942 0.10000007078051511
v 0.0707106775737504 0.07071062278284766 0.10000007078051511
v 0.055557021680794544 0.08314689998007366 0.10000007078051511
v 0.03826834459402904 0.09238788243580477 0.10000007078051511
v 0.019509031150422775 0.09807845263000196 0.10000007078051511
v 6.123233740848166e-18 0.09999992176890427 0.10000007078051511
v -0.019509031150422775 0.09807845263000196 0.10000007078051511
v -0.03826834459402904 0.09238788243580477 0.10000007078051511
v -0.055557021680794544 0.08314689998007366 0.10000007078051511
v -0.0707106775737504 0.07071062278284766 0.10000007078051511
v -0.08314696440736238 0.05555697863185942 0.10000007078051511
v -0.09238795402357025 0.038268314941404875 0.10000007078051511
v -0.09807852862716826 0.01950901603364742 0.10000007078051511
v -0.09999999925494203 1.2246457992393842e-17 0.10000007078051511
v -0.09807852862716826 -0.01950901603364742 0.10000007078051511
v -0.09238795402357025 -0.038268314941404875 0.10000007078051511
v -0.08314696440736238 -0.05555697863185942 0.10000007078051511
v -0.0707106775737504 -0.07071062278284766 0.10000007078051511
v -0.055557021680794544 -0.08314689998007366 0.10000007078051511
v -0.03826834459402904 -0.09238788243580477 0.10000007078051511
v -0.019509031150422775 -0.09807845263000196 0.10000007078051511
v -1.8369701646060968e-17 -0.09999992176890427 0.10000007078051511
v 0.019509031150422775 -0.09807845263000196 0.10000007078051511
v 0.03826834459402904 -0.09238788243580477 0.10000007078051511
v 0.055557021680794544 -0.08314689998007366 0.10000007078051511
v 0.0707106775737504 -0.07071062278284766 0.10000007078051511
v 0.08314696440736238 -0.05555697863185942 0.10000007078051511
v 0.09238795402357025 -0.038268314941404875 0.10000007078051511
v 0.09807852862716826 -0.01950901603364742 0.10000007078051511
f 1 2 34 33
f 2 3 35 34
f 3 4 36 35
f 4 5 37 36
f 5 6 38 37
f 6 7 39 38
f 7 8 40 39
f 8 9 41 40
f 9 10 42 41
f 10 11 43 42
f 11 12 44 43
f 12 13 45 44
f 13 14 46 45
f 14 15 47 46
f 15 16 48 47
f 16 17 49 48
f 17 18 50 49
f 18 19 51 50
f 19 20 52 51
f 20 21 53 52
f 21 22 54 53
f 22 23 55 54
f 23 24 56 55
f 24 25 57 56
f 25 26 58 57
f 26 27 59 58
f 27 28 60 59
f 28 29 61 60
f 29 30 62 61
f 30 31 63 62
f 31 32 64 63
f 32 1 33 64
f 65 67 66
f 65 68 67
f 65 69 68
f 65 70 69
f 65 71 70
f 65 72 71
f 65 73 72
f 65 74 73
f 65 75 74
f 65 76 75
f 65 77 76
f 65 78 77
f 65 79 78
f 65 80 79
f 65 81 80
f 65 82 81
f 65 83 82
f 65 84 83
f 65 85 84
f 65 86 85
f 65 87 86
f 65 88 87
f 65 89 88
f 65 90 89
f 65 91 90
f 65 92 91
f 65 93 92
f 65 94 93
f 65 95 94
f 65 96 95
f 65 97 96
f 65 66 97
f 98 99 100
f 98 100 101
f 98 101 102
f 98 102 103
f 98 103 104
f 98 104 105
f 98 105 106
f 98 106 107
f 98 107 108
f 98 108 109
f 98 109 110
f 98 110 111
f 98 111 112
f 98 112 113
f 98 113 114
f 98 114 115
f 98 115 116
f 98 116 117
f 98 117 118
f 98 118 119
f 98 119 120
f 98 120 121
f 98 121 122
f 98 122 123
f 98 123 124
f 98 124 125
f 98 125 126
f 98 126 127
f 98 127 128
f 98 128 129
f 98 129 130
f 98 130 99
