mtllib Front_mask.mtl
v -0.005366371013224125 -0.0016435009893029928 -0.0006750000175088645
v -0.005150000099092722 -1.555301383669155e-18 -0.0006750000175088645
v -0.005150000099092722 0.0 -0.0008050000178627672
v -0.006000738590955734 -0.00317499996162951 -0.0006750000175088645
v -0.005366371013224125 -0.0016435009893029928 -0.0008050000178627672
v -0.007009871769696474 -0.004490128252655268 -0.0006750000175088645
v -0.006000738590955734 -0.00317499996162951 -0.0008050000178627672
v -0.008325000293552876 -0.0054992614313960075 -0.0006750000175088645
v -0.007009871769696474 -0.004490128252655268 -0.0008050000178627672
v -0.009856498800218105 -0.006133629009127617 -0.0006750000175088645
v -0.008325000293552876 -0.0054992614313960075 -0.0008050000178627672
v -0.011500000022351742 -0.00634999992325902 -0.0006750000175088645
v -0.009856498800218105 -0.006133629009127617 -0.0008050000178627672
v -0.013143501244485378 -0.006133629009127617 -0.0006750000175088645
v -0.011500000022351742 -0.00634999992325902 -0.0008050000178627672
v -0.014674999751150608 -0.0054992614313960075 -0.0006750000175088645
v -0.013143501244485378 -0.006133629009127617 -0.0008050000178627672
v -0.015990128740668297 -0.004490128252655268 -0.0006750000175088645
v -0.014674999751150608 -0.0054992614313960075 -0.0008050000178627672
v -0.01699926145374775 -0.00317499996162951 -0.0006750000175088645
v -0.015990128740668297 -0.004490128252655268 -0.0008050000178627672
v -0.017633628100156784 -0.0016435009893029928 -0.0006750000175088645
v -0.01699926145374775 -0.00317499996162951 -0.0008050000178627672
v -0.01785000041127205 3.597617347097787e-18 -0.0006750000175088645
v -0.017633628100156784 -0.0016435009893029928 -0.0008050000178627672
v -0.017633628100156784 0.0016435009893029928 -0.0006750000175088645
v -0.01785000041127205 7.776506918345775e-19 -0.0008050000178627672
v -0.01699926145374775 0.00317499996162951 -0.0006750000175088645
v -0.017633628100156784 0.0016435009893029928 -0.0008050000178627672
v -0.015990128740668297 0.004490128252655268 -0.0006750000175088645
v -0.01699926145374775 0.00317499996162951 -0.0008050000178627672
v -0.014674999751150608 0.0054992614313960075 -0.0006750000175088645
v -0.015990128740668297 0.004490128252655268 -0.0008050000178627672
v -0.013143501244485378 0.006133629009127617 -0.0006750000175088645
v -0.014674999751150608 0.0054992614313960075 -0.0008050000178627672
v -0.011500000022351742 0.00634999992325902 -0.0006750000175088645
v -0.013143501244485378 0.006133629009127617 -0.0008050000178627672
v -0.009856498800218105 0.006133629009127617 -0.0006750000175088645
v -0.011500000022351742 0.00634999992325902 -0.0008050000178627672
v -0.008325000293552876 0.0054992614313960075 -0.0006750000175088645
v -0.009856498800218105 0.006133629009127617 -0.0008050000178627672
v -0.007009871769696474 0.004490128252655268 -0.0006750000175088645
v -0.008325000293552876 0.0054992614313960075 -0.0008050000178627672
v -0.006000738590955734 0.00317499996162951 -0.0006750000175088645
v -0.007009871769696474 0.004490128252655268 -0.0008050000178627672
v -0.005366371013224125 0.0016435009893029928 -0.0006750000175088645
v -0.006000738590955734 0.00317499996162951 -0.0008050000178627672
v -0.005366371013224125 0.0016435009893029928 -0.0008050000178627672
v 0.045856498181819916 0.006133629009127617 -0.0006750000175088645
v 0.04749999940395355 0.008940000087022781 -0.0006750000175088645
v 0.013967855833470821 0.006300000008195639 -0.0006750000175088645
v 0.006032144650816917 0.006300000008195639 -0.0006750000175088645
v -0.04749999940395355 0.008940000087022781 -0.0006750000175088645
v -0.029500000178813934 0.00634999992325902 -0.0006750000175088645
v -0.027856498956680298 0.006133629009127617 -0.0006750000175088645
v 0.05197000131011009 0.0077422671020030975 -0.0006750000175088645
v 0.04981384053826332 0.008635376580059528 -0.0006750000175088645
v 0.04914350062608719 0.006133629009127617 -0.0006750000175088645
v 0.04749999940395355 0.00634999992325902 -0.0006750000175088645
v 0.044325001537799835 0.0054992614313960075 -0.0006750000175088645
v 0.00440158462151885 0.006085332483053207 -0.0006750000175088645
v -0.044325001537799835 0.0054992614313960075 -0.0006750000175088645
v -0.045856498181819916 0.006133629009127617 -0.0006750000175088645
v 0.04200073704123497 0.00317499996162951 -0.0006750000175088645
v 0.015598415397107601 0.006085332483053207 -0.0006750000175088645
v -0.04749999940395355 0.00634999992325902 -0.0006750000175088645
v -0.04914350062608719 0.006133629009127617 -0.0006750000175088645
v 0.0015773717314004898 0.004454772919416428 -0.0006750000175088645
v 0.0028821444138884544 0.005455960053950548 -0.0006750000175088645
v 0.0005761844222433865 0.0031500000040978193 -0.0006750000175088645
v 0.04300987347960472 0.004490128252655268 -0.0006750000175088645
v 0.041366372257471085 0.0016435009893029928 -0.0006750000175088645
v -0.04981384053826332 0.008635376580059528 -0.0006750000175088645
v -0.05067500099539757 0.0054992614313960075 -0.0006750000175088645
v -0.05197000131011009 0.0077422671020030975 -0.0006750000175088645
v -0.05199012905359268 0.004490128252655268 -0.0006750000175088645
v -0.05382153391838074 0.006321534514427185 -0.0006750000175088645
v -0.05524226650595665 0.004470000043511391 -0.0006750000175088645
v -0.052999261766672134 0.00317499996162951 -0.0006750000175088645
v -0.05363363027572632 0.0016435009893029928 -0.0006750000175088645
v -0.027856498956680298 -0.006133629009127617 -0.0006750000175088645
v -0.029500000178813934 -0.00634999992325902 -0.0006750000175088645
v 0.05067500099539757 0.0054992614313960075 -0.0006750000175088645
v -0.056135375052690506 0.002313842298462987 -0.0006750000175088645
v -0.023366371169686317 0.0016435009893029928 -0.0006750000175088645
v -0.026325000450015068 -0.0054992614313960075 -0.0006750000175088645
v 0.0015773717314004898 -0.004454772919416428 -0.0006750000175088645
v -0.04300987347960472 0.004490128252655268 -0.0006750000175088645
v -0.03114350140094757 0.006133629009127617 -0.0006750000175088645
v -0.023150000721216202 -1.555301383669155e-18 -0.0006750000175088645
v -0.025009872391819954 0.004490128252655268 -0.0006750000175088645
v -0.024000737816095352 0.00317499996162951 -0.0006750000175088645
v -0.044325001537799835 -0.0054992614313960075 -0.0006750000175088645
v -0.045856498181819916 -0.006133629009127617 -0.0006750000175088645
v -0.04749999940395355 -0.008940000087022781 -0.0006750000175088645
v -0.025009872391819954 -0.004490128252655268 -0.0006750000175088645
v 0.00440158462151885 -0.006085332483053207 -0.0006750000175088645
v 0.0005761844222433865 -0.0031500000040978193 -0.0006750000175088645
v 0.05524226650595665 0.004470000043511391 -0.0006750000175088645
v 0.05382153391838074 0.006321534514427185 -0.0006750000175088645
v 0.05199012905359268 0.004490128252655268 -0.0006750000175088645
v -0.026325000450015068 0.0054992614313960075 -0.0006750000175088645
v -0.05197000131011009 -0.0077422671020030975 -0.0006750000175088645
v -0.04981384053826332 -0.008635376580059528 -0.0006750000175088645
v -0.04914350062608719 -0.006133629009127617 -0.0006750000175088645
v -0.04749999940395355 -0.00634999992325902 -0.0006750000175088645
v -0.03114350140094757 -0.006133629009127617 -0.0006750000175088645
v 0.0028821444138884544 -0.005455960053950548 -0.0006750000175088645
v 0.04749999940395355 -0.008940000087022781 -0.0006750000175088645
v 0.013967855833470821 -0.006300000008195639 -0.0006750000175088645
v 0.006032144650816917 -0.006300000008195639 -0.0006750000175088645
v -0.0002678555028978735 7.715274873501537e-19 -0.0006750000175088645
v -5.318822150002234e-05 0.001630560029298067 -0.0006750000175088645
v -0.056439999490976334 1.0948342350913782e-18 -0.0006750000175088645
v -0.056135375052690506 -0.002313842298462987 -0.0006750000175088645
v -0.05363363027572632 -0.0016435009893029928 -0.0006750000175088645
v -0.052999261766672134 -0.00317499996162951 -0.0006750000175088645
v -0.04300987347960472 -0.004490128252655268 -0.0006750000175088645
v -0.024000737816095352 -0.00317499996162951 -0.0006750000175088645
v 0.015598415397107601 -0.006085332483053207 -0.0006750000175088645
v -0.04200073704123497 0.00317499996162951 -0.0006750000175088645
v -0.053849998861551285 3.597617347097787e-18 -0.0006750000175088645
v -0.05524226650595665 -0.004470000043511391 -0.0006750000175088645
v -0.05382153391838074 -0.006321534514427185 -0.0006750000175088645
v -0.05199012905359268 -0.004490128252655268 -0.0006750000175088645
v -0.05067500099539757 -0.0054992614313960075 -0.0006750000175088645
v -0.023366371169686317 -0.0016435009893029928 -0.0006750000175088645
v 0.052999261766672134 0.00317499996162951 -0.0006750000175088645
v 0.04200073704123497 -0.00317499996162951 -0.0006750000175088645
v 0.041366372257471085 -0.0016435009893029928 -0.0006750000175088645
v -5.318822150002234e-05 -0.001630560029298067 -0.0006750000175088645
v 0.017117856070399284 -0.005455960053950548 -0.0006750000175088645
v 0.020053187385201454 -0.001630560029298067 -0.0006750000175088645
v 0.045856498181819916 -0.006133629009127617 -0.0006750000175088645
v 0.04981384053826332 -0.008635376580059528 -0.0006750000175088645
v 0.04914350062608719 -0.006133629009127617 -0.0006750000175088645
v 0.05067500099539757 -0.0054992614313960075 -0.0006750000175088645
v 0.04114999994635582 3.597617347097787e-18 -0.0006750000175088645
v 0.044325001537799835 -0.0054992614313960075 -0.0006750000175088645
v 0.04300987347960472 -0.004490128252655268 -0.0006750000175088645
v 0.018422627821564674 0.004454772919416428 -0.0006750000175088645
v 0.019423816353082657 0.0031500000040978193 -0.0006750000175088645
v 0.017117856070399284 0.005455960053950548 -0.0006750000175088645
v 0.018422627821564674 -0.004454772919416428 -0.0006750000175088645
v 0.04749999940395355 -0.00634999992325902 -0.0006750000175088645
v 0.05197000131011009 -0.0077422671020030975 -0.0006750000175088645
v 0.05199012905359268 -0.004490128252655268 -0.0006750000175088645
v 0.020267855376005173 -1.5430549747003074e-18 -0.0006750000175088645
v 0.020053187385201454 0.001630560029298067 -0.0006750000175088645
v 0.019423816353082657 -0.0031500000040978193 -0.0006750000175088645
v 0.05382153391838074 -0.006321534514427185 -0.0006750000175088645
v -0.03584999963641167 3.597617347097787e-18 -0.0006750000175088645
v -0.0356336273252964 0.0016435009893029928 -0.0006750000175088645
v -0.041366372257471085 0.0016435009893029928 -0.0006750000175088645
v -0.04200073704123497 -0.00317499996162951 -0.0006750000175088645
v -0.03267500177025795 -0.0054992614313960075 -0.0006750000175088645
v -0.04114999994635582 -1.555301383669155e-18 -0.0006750000175088645
v -0.034999262541532516 -0.00317499996162951 -0.0006750000175088645
v -0.0356336273252964 -0.0016435009893029928 -0.0006750000175088645
v -0.041366372257471085 -0.0016435009893029928 -0.0006750000175088645
v 0.05524226650595665 -0.004470000043511391 -0.0006750000175088645
v 0.052999261766672134 -0.00317499996162951 -0.0006750000175088645
v 0.05363363027572632 -0.0016435009893029928 -0.0006750000175088645
v -0.033990129828453064 0.004490128252655268 -0.0006750000175088645
v -0.03267500177025795 0.0054992614313960075 -0.0006750000175088645
v -0.034999262541532516 0.00317499996162951 -0.0006750000175088645
v -0.033990129828453064 -0.004490128252655268 -0.0006750000175088645
v 0.056439999490976334 -2.1896684701827564e-18 -0.0006750000175088645
v 0.056135375052690506 0.002313842298462987 -0.0006750000175088645
v 0.05363363027572632 0.0016435009893029928 -0.0006750000175088645
v 0.056135375052690506 -0.002313842298462987 -0.0006750000175088645
v 0.053849998861551285 -1.555301383669155e-18 -0.0006750000175088645
v -0.05382153391838074 0.006321534514427185 -0.0008050000178627672
v -0.05197000131011009 0.0077422671020030975 -0.0008050000178627672
v -0.05067500099539757 0.0054992614313960075 -0.0008050000178627672
v -0.04914350062608719 0.006133629009127617 -0.0008050000178627672
v -0.027856498956680298 0.006133629009127617 -0.0008050000178627672
v -0.029500000178813934 0.00634999992325902 -0.0008050000178627672
v -0.04981384053826332 0.008635376580059528 -0.0008050000178627672
v -0.04749999940395355 0.00634999992325902 -0.0008050000178627672
v -0.04749999940395355 0.008940000087022781 -0.0008050000178627672
v 0.00440158462151885 0.006085332483053207 -0.0008050000178627672
v -0.045856498181819916 0.006133629009127617 -0.0008050000178627672
v -0.044325001537799835 0.0054992614313960075 -0.0008050000178627672
v -0.024000737816095352 0.00317499996162951 -0.0008050000178627672
v -0.056135375052690506 0.002313842298462987 -0.0008050000178627672
v -0.05524226650595665 0.004470000043511391 -0.0008050000178627672
v -0.052999261766672134 0.00317499996162951 -0.0008050000178627672
v -0.05199012905359268 0.004490128252655268 -0.0008050000178627672
v -0.026325000450015068 0.0054992614313960075 -0.0008050000178627672
v -0.023366371169686317 0.0016435009893029928 -0.0008050000178627672
v 0.044325001537799835 0.0054992614313960075 -0.0008050000178627672
v 0.04300987347960472 0.004490128252655268 -0.0008050000178627672
v 0.013967855833470821 0.006300000008195639 -0.0008050000178627672
v -0.025009872391819954 0.004490128252655268 -0.0008050000178627672
v 0.006032144650816917 0.006300000008195639 -0.0008050000178627672
v 0.045856498181819916 0.006133629009127617 -0.0008050000178627672
v 0.0028821444138884544 0.005455960053950548 -0.0008050000178627672
v 0.0015773717314004898 0.004454772919416428 -0.0008050000178627672
v 0.04749999940395355 0.008940000087022781 -0.0008050000178627672
v 0.04749999940395355 0.00634999992325902 -0.0008050000178627672
v 0.04914350062608719 0.006133629009127617 -0.0008050000178627672
v 0.0015773717314004898 -0.004454772919416428 -0.0008050000178627672
v 0.0028821444138884544 -0.005455960053950548 -0.0008050000178627672
v 0.0005761844222433865 -0.0031500000040978193 -0.0008050000178627672
v 0.04981384053826332 0.008635376580059528 -0.0008050000178627672
v 0.05067500099539757 0.0054992614313960075 -0.0008050000178627672
v -0.0002678555028978735 7.715274873501537e-19 -0.0008050000178627672
v -5.318822150002234e-05 -0.001630560029298067 -0.0008050000178627672
v 0.04200073704123497 0.00317499996162951 -0.0008050000178627672
v 0.041366372257471085 0.0016435009893029928 -0.0008050000178627672
v 0.015598415397107601 0.006085332483053207 -0.0008050000178627672
v 0.05197000131011009 0.0077422671020030975 -0.0008050000178627672
v 0.00440158462151885 -0.006085332483053207 -0.0008050000178627672
v -0.04749999940395355 -0.008940000087022781 -0.0008050000178627672
v 0.05382153391838074 0.006321534514427185 -0.0008050000178627672
v 0.05199012905359268 0.004490128252655268 -0.0008050000178627672
v 0.052999261766672134 0.00317499996162951 -0.0008050000178627672
v -0.023366371169686317 -0.0016435009893029928 -0.0008050000178627672
v -0.029500000178813934 -0.00634999992325902 -0.0008050000178627672
v -0.05363363027572632 0.0016435009893029928 -0.0008050000178627672
v 0.05524226650595665 0.004470000043511391 -0.0008050000178627672
v -0.03114350140094757 0.006133629009127617 -0.0008050000178627672
v -5.318822150002234e-05 0.001630560029298067 -0.0008050000178627672
v -0.024000737816095352 -0.00317499996162951 -0.0008050000178627672
v 0.044325001537799835 -0.0054992614313960075 -0.0008050000178627672
v 0.013967855833470821 -0.006300000008195639 -0.0008050000178627672
v -0.027856498956680298 -0.006133629009127617 -0.0008050000178627672
v -0.04200073704123497 0.00317499996162951 -0.0008050000178627672
v -0.04300987347960472 0.004490128252655268 -0.0008050000178627672
v -0.023150000721216202 0.0 -0.0008050000178627672
v 0.006032144650816917 -0.006300000008195639 -0.0008050000178627672
v 0.04200073704123497 -0.00317499996162951 -0.0008050000178627672
v 0.015598415397107601 -0.006085332483053207 -0.0008050000178627672
v 0.020053187385201454 0.001630560029298067 -0.0008050000178627672
v 0.019423816353082657 0.0031500000040978193 -0.0008050000178627672
v 0.0005761844222433865 0.0031500000040978193 -0.0008050000178627672
v -0.025009872391819954 -0.004490128252655268 -0.0008050000178627672
v 0.05382153391838074 -0.006321534514427185 -0.0008050000178627672
v 0.05197000131011009 -0.0077422671020030975 -0.0008050000178627672
v 0.05067500099539757 -0.0054992614313960075 -0.0008050000178627672
v 0.04914350062608719 -0.006133629009127617 -0.0008050000178627672
v -0.03267500177025795 -0.0054992614313960075 -0.0008050000178627672
v -0.03114350140094757 -0.006133629009127617 -0.0008050000178627672
v 0.04114999994635582 7.776506918345775e-19 -0.0008050000178627672
v 0.041366372257471085 -0.0016435009893029928 -0.0008050000178627672
v 0.019423816353082657 -0.0031500000040978193 -0.0008050000178627672
v 0.017117856070399284 -0.005455960053950548 -0.0008050000178627672
v 0.018422627821564674 -0.004454772919416428 -0.0008050000178627672
v -0.034999262541532516 -0.00317499996162951 -0.0008050000178627672
v -0.044325001537799835 -0.0054992614313960075 -0.0008050000178627672
v 0.018422627821564674 0.004454772919416428 -0.0008050000178627672
v 0.020267855376005173 -1.5430549747003074e-18 -0.0008050000178627672
v -0.026325000450015068 -0.0054992614313960075 -0.0008050000178627672
v 0.04981384053826332 -0.008635376580059528 -0.0008050000178627672
v 0.04749999940395355 -0.00634999992325902 -0.0008050000178627672
v 0.045856498181819916 -0.006133629009127617 -0.0008050000178627672
v 0.04749999940395355 -0.008940000087022781 -0.0008050000178627672
v 0.04300987347960472 -0.004490128252655268 -0.0008050000178627672
v 0.020053187385201454 -0.001630560029298067 -0.0008050000178627672
v -0.045856498181819916 -0.006133629009127617 -0.0008050000178627672
v 0.017117856070399284 0.005455960053950548 -0.0008050000178627672
v -0.03267500177025795 0.0054992614313960075 -0.0008050000178627672
v -0.033990129828453064 0.004490128252655268 -0.0008050000178627672
v 0.056135375052690506 -0.002313842298462987 -0.0008050000178627672
v 0.05524226650595665 -0.004470000043511391 -0.0008050000178627672
v 0.052999261766672134 -0.00317499996162951 -0.0008050000178627672
v 0.05199012905359268 -0.004490128252655268 -0.0008050000178627672
v -0.03584999963641167 7.776506918345775e-19 -0.0008050000178627672
v -0.0356336273252964 -0.0016435009893029928 -0.0008050000178627672
v -0.04981384053826332 -0.008635376580059528 -0.0008050000178627672
v -0.04914350062608719 -0.006133629009127617 -0.0008050000178627672
v -0.05067500099539757 -0.0054992614313960075 -0.0008050000178627672
v -0.04114999994635582 0.0 -0.0008050000178627672
v -0.041366372257471085 0.0016435009893029928 -0.0008050000178627672
v -0.04749999940395355 -0.00634999992325902 -0.0008050000178627672
v -0.05197000131011009 -0.0077422671020030975 -0.0008050000178627672
v -0.056439999490976334 1.0948342350913782e-18 -0.0008050000178627672
v -0.041366372257471085 -0.0016435009893029928 -0.0008050000178627672
v 0.056135375052690506 0.002313842298462987 -0.0008050000178627672
v 0.05363363027572632 0.0016435009893029928 -0.0008050000178627672
v 0.053849998861551285 0.0 -0.0008050000178627672
v -0.033990129828453064 -0.004490128252655268 -0.0008050000178627672
v -0.05382153391838074 -0.006321534514427185 -0.0008050000178627672
v -0.05199012905359268 -0.004490128252655268 -0.0008050000178627672
v -0.052999261766672134 -0.00317499996162951 -0.0008050000178627672
v -0.05524226650595665 -0.004470000043511391 -0.0008050000178627672
v -0.056135375052690506 -0.002313842298462987 -0.0008050000178627672
v -0.05363363027572632 -0.0016435009893029928 -0.0008050000178627672
v -0.053849998861551285 7.776506918345775e-19 -0.0008050000178627672
v 0.056439999490976334 -2.1896684701827564e-18 -0.0008050000178627672
v 0.05363363027572632 -0.0016435009893029928 -0.0008050000178627672
v -0.0356336273252964 0.0016435009893029928 -0.0008050000178627672
v -0.04200073704123497 -0.00317499996162951 -0.0008050000178627672
v -0.04300987347960472 -0.004490128252655268 -0.0008050000178627672
v -0.034999262541532516 0.00317499996162951 -0.0008050000178627672
usemtl head_darkblack
f 158 157 167
f 157 156 167
f 89 121 165
f 121 164 165
f 157 160 156
f 160 155 156
f 156 155 107
f 158 159 157
f 159 152 157
f 157 152 154
f 152 153 154
f 154 153 121
f 153 166 121
f 121 166 164
f 1 98 131
f 139 141 142
f 140 65 139
f 65 143 139
f 139 143 141
f 150 109 133
f 109 134 133
f 133 134 148
f 134 139 148
f 148 139 149
f 139 142 149
f 150 144 109
f 144 132 109
f 109 132 120
f 140 129 65
f 129 130 65
f 65 130 138
f 20 90 18
f 90 16 18
f 1 131 2
f 131 112 2
f 2 112 46
f 90 127 16
f 127 119 16
f 16 119 14
f 28 55 102
f 69 61 44
f 120 110 109
f 110 111 109
f 109 111 95
f 111 97 95
f 8 97 6
f 97 108 6
f 6 108 87
f 30 32 53
f 8 10 97
f 10 12 97
f 97 12 95
f 12 82 95
f 95 82 93
f 82 107 93
f 93 107 118
f 107 155 118
f 102 91 28
f 91 92 28
f 28 92 85
f 98 1 87
f 1 4 87
f 87 4 6
f 20 22 90
f 22 24 90
f 90 24 85
f 24 26 85
f 85 26 28
f 119 96 14
f 96 86 14
f 14 86 12
f 86 81 12
f 12 81 82
f 93 94 95
f 94 106 95
f 95 106 104
f 106 105 104
f 104 105 103
f 105 126 103
f 103 126 124
f 126 125 124
f 124 125 123
f 125 117 123
f 123 117 115
f 117 116 115
f 115 116 114
f 116 122 114
f 114 122 84
f 122 80 84
f 84 80 78
f 80 79 78
f 78 79 77
f 79 76 77
f 77 76 75
f 76 74 75
f 75 74 73
f 74 67 73
f 73 67 53
f 112 113 46
f 113 70 46
f 46 70 44
f 70 68 44
f 44 68 69
f 32 34 53
f 34 36 53
f 53 36 50
f 36 38 50
f 50 38 40
f 71 51 64
f 51 65 64
f 64 65 72
f 65 138 72
f 67 66 53
f 66 63 53
f 53 63 62
f 28 30 55
f 30 53 55
f 55 53 54
f 53 62 54
f 54 62 89
f 62 88 89
f 89 88 121
f 51 50 52
f 50 40 52
f 52 40 61
f 40 42 61
f 61 42 44
f 71 60 51
f 60 49 51
f 51 49 50
f 49 59 50
f 50 59 57
f 59 58 57
f 57 58 56
f 58 83 56
f 56 83 100
f 83 101 100
f 100 101 99
f 101 128 99
f 99 128 169
f 128 170 169
f 169 170 168
f 170 172 168
f 168 172 171
f 172 163 171
f 171 163 161
f 163 162 161
f 161 162 151
f 162 147 151
f 151 147 146
f 147 137 146
f 146 137 135
f 137 136 135
f 135 136 109
f 136 145 109
f 109 145 134
f 215 95 104
f 215 104 271
f 104 103 271
f 271 103 277
f 103 124 277
f 277 124 284
f 124 123 284
f 284 123 287
f 123 115 287
f 287 115 288
f 115 114 288
f 288 114 278
f 114 84 278
f 278 84 186
f 84 78 186
f 186 78 187
f 78 77 187
f 187 77 173
f 77 75 173
f 173 75 174
f 75 73 174
f 174 73 179
f 73 53 179
f 179 53 181
f 109 95 258
f 95 215 258
f 200 50 57
f 200 57 206
f 57 56 206
f 206 56 213
f 56 100 213
f 213 100 216
f 100 99 216
f 216 99 222
f 99 169 222
f 222 169 280
f 169 168 280
f 280 168 291
f 168 171 291
f 291 171 265
f 171 161 265
f 265 161 266
f 161 151 266
f 266 151 239
f 151 146 239
f 239 146 240
f 146 135 240
f 240 135 255
f 135 109 255
f 255 109 258
f 53 50 181
f 50 200 181
f 279 293 294
f 293 269 294
f 294 269 295
f 269 251 295
f 274 264 279
f 264 296 279
f 279 296 293
f 23 228 254
f 258 215 226
f 223 263 229
f 263 264 229
f 229 264 275
f 264 274 275
f 215 261 251
f 227 233 259
f 231 35 33
f 238 27 254
f 27 25 254
f 254 25 23
f 236 252 211
f 269 270 251
f 270 250 251
f 251 250 215
f 250 283 215
f 215 283 243
f 245 246 247
f 246 233 247
f 247 233 249
f 247 260 245
f 260 253 245
f 245 253 211
f 253 235 211
f 211 235 236
f 227 234 233
f 234 248 233
f 233 248 249
f 259 226 227
f 226 215 227
f 227 215 232
f 215 214 232
f 5 224 7
f 224 208 7
f 7 208 9
f 208 11 9
f 23 21 228
f 21 19 228
f 228 19 220
f 19 215 220
f 220 215 244
f 215 243 244
f 33 31 231
f 31 29 231
f 231 29 219
f 29 27 219
f 219 27 225
f 27 238 225
f 196 182 181
f 194 210 212
f 210 211 212
f 212 211 262
f 211 252 262
f 226 257 258
f 257 256 258
f 258 256 255
f 256 242 255
f 255 242 240
f 242 241 240
f 240 241 239
f 241 268 239
f 239 268 266
f 268 267 266
f 266 267 265
f 267 292 265
f 265 292 291
f 292 282 291
f 291 282 280
f 282 281 280
f 280 281 222
f 281 218 222
f 222 218 216
f 218 217 216
f 216 217 213
f 217 207 213
f 213 207 206
f 207 202 206
f 206 202 200
f 3 199 5
f 199 237 5
f 5 237 224
f 203 13 205
f 13 11 205
f 205 11 209
f 11 208 209
f 19 17 215
f 17 15 215
f 215 15 214
f 15 13 214
f 214 13 204
f 13 203 204
f 3 48 199
f 48 47 199
f 199 47 198
f 198 47 182
f 47 45 182
f 182 45 43
f 196 181 194
f 202 201 200
f 201 197 200
f 200 197 181
f 197 192 181
f 181 192 194
f 192 193 194
f 194 193 210
f 231 191 35
f 191 185 35
f 35 185 37
f 178 181 39
f 181 182 39
f 39 182 41
f 182 43 41
f 185 195 37
f 195 190 37
f 37 190 39
f 190 177 39
f 39 177 178
f 229 230 223
f 230 184 223
f 223 184 178
f 184 183 178
f 178 183 181
f 183 180 181
f 181 180 179
f 180 176 179
f 179 176 174
f 176 175 174
f 174 175 173
f 175 189 173
f 173 189 187
f 189 188 187
f 187 188 186
f 188 221 186
f 186 221 278
f 221 290 278
f 278 290 288
f 290 289 288
f 288 289 287
f 289 286 287
f 287 286 284
f 286 285 284
f 284 285 277
f 285 273 277
f 277 273 271
f 273 272 271
f 271 272 215
f 272 276 215
f 215 276 261
f 3 2 48
f 2 46 48
f 48 46 47
f 46 44 47
f 47 44 45
f 44 42 45
f 45 42 43
f 42 40 43
f 43 40 41
f 40 38 41
f 41 38 39
f 38 36 39
f 39 36 37
f 36 34 37
f 37 34 35
f 34 32 35
f 35 32 33
f 32 30 33
f 33 30 31
f 30 28 31
f 31 28 29
f 28 26 29
f 29 26 27
f 26 24 27
f 27 24 25
f 24 22 25
f 25 22 23
f 22 20 23
f 23 20 21
f 20 18 21
f 21 18 19
f 18 16 19
f 19 16 17
f 16 14 17
f 17 14 15
f 14 12 15
f 15 12 13
f 12 10 13
f 13 10 11
f 10 8 11
f 11 8 9
f 8 6 9
f 9 6 7
f 6 4 7
f 7 4 5
f 4 1 5
f 5 1 3
f 1 2 3
f 231 90 191
f 90 85 191
f 191 85 185
f 85 92 185
f 185 92 195
f 92 91 195
f 195 91 190
f 91 102 190
f 190 102 177
f 102 55 177
f 177 55 178
f 55 54 178
f 178 54 223
f 54 89 223
f 223 89 263
f 89 165 263
f 263 165 264
f 165 164 264
f 264 164 296
f 164 166 296
f 296 166 293
f 166 153 293
f 293 153 269
f 153 152 269
f 269 152 270
f 152 159 270
f 270 159 250
f 159 158 250
f 250 158 283
f 158 167 283
f 283 167 243
f 167 156 243
f 243 156 244
f 156 107 244
f 244 107 220
f 107 82 220
f 220 82 228
f 82 81 228
f 228 81 254
f 81 86 254
f 254 86 238
f 86 96 238
f 238 96 225
f 96 119 225
f 225 119 219
f 119 127 219
f 219 127 231
f 127 90 231
f 51 52 194
f 52 196 194
f 227 110 234
f 110 120 234
f 234 120 248
f 120 132 248
f 248 132 249
f 132 144 249
f 249 144 247
f 144 150 247
f 247 150 260
f 150 133 260
f 260 133 253
f 133 148 253
f 253 148 235
f 148 149 235
f 235 149 236
f 149 142 236
f 236 142 252
f 142 141 252
f 252 141 262
f 141 143 262
f 262 143 212
f 143 65 212
f 212 65 194
f 65 51 194
f 196 52 182
f 52 61 182
f 182 61 198
f 61 69 198
f 198 69 199
f 69 68 199
f 199 68 237
f 68 70 237
f 237 70 224
f 70 113 224
f 224 113 208
f 113 112 208
f 208 112 209
f 112 131 209
f 209 131 205
f 131 98 205
f 205 98 203
f 98 87 203
f 203 87 204
f 87 108 204
f 204 108 214
f 108 97 214
f 214 97 232
f 97 111 232
f 111 110 232
f 110 227 232
f 282 172 281
f 172 170 281
f 281 170 218
f 170 128 218
f 218 128 217
f 128 101 217
f 217 101 207
f 101 83 207
f 207 83 202
f 83 58 202
f 202 58 201
f 58 59 201
f 201 59 197
f 59 49 197
f 197 49 192
f 49 60 192
f 192 60 193
f 60 71 193
f 193 71 210
f 71 64 210
f 210 64 211
f 64 72 211
f 211 72 245
f 72 138 245
f 245 138 246
f 138 130 246
f 246 130 233
f 130 129 233
f 233 129 259
f 129 140 259
f 259 140 226
f 140 139 226
f 226 139 257
f 139 134 257
f 257 134 256
f 134 145 256
f 256 145 242
f 145 136 242
f 242 136 241
f 136 137 241
f 241 137 268
f 137 147 268
f 268 147 267
f 147 162 267
f 267 162 292
f 162 163 292
f 292 163 282
f 163 172 282
f 274 157 275
f 157 154 275
f 275 154 229
f 154 121 229
f 229 121 230
f 121 88 230
f 230 88 184
f 88 62 184
f 184 62 183
f 62 63 183
f 183 63 180
f 63 66 180
f 180 66 176
f 66 67 176
f 176 67 175
f 67 74 175
f 175 74 189
f 74 76 189
f 189 76 188
f 76 79 188
f 188 79 221
f 79 80 221
f 221 80 290
f 80 122 290
f 290 122 289
f 122 116 289
f 289 116 286
f 116 117 286
f 286 117 285
f 117 125 285
f 285 125 273
f 125 126 273
f 273 126 272
f 126 105 272
f 272 105 276
f 105 106 276
f 276 106 261
f 106 94 261
f 261 94 251
f 94 93 251
f 251 93 295
f 93 118 295
f 295 118 294
f 118 155 294
f 294 155 279
f 155 160 279
f 279 160 274
f 160 157 274
