mtllib Glass.mtl
v -0.04968734458088875 0.008874407969415188 -9.999999747378754e-05
v -0.05657335743308067 0.0011017052456736565 -9.999999747378754e-05
v -0.05657335743308067 -0.0011017052456736565 -9.999999747378754e-05
v -0.05502207204699516 0.00519211171194911 -9.999999747378754e-05
v -0.056046050041913986 0.003241088707000017 -9.999999747378754e-05
v -0.05174756795167923 0.00809306837618351 -9.999999747378754e-05
v -0.05356094241142273 0.006841388065367937 -9.999999747378754e-05
v 0.056046050041913986 -0.003241088707000017 -9.999999747378754e-05
v 0.05174756795167923 -0.00809306837618351 -9.999999747378754e-05
v 0.05356094241142273 -0.006841388065367937 -9.999999747378754e-05
v -0.05356094241142273 -0.006841388065367937 -9.999999747378754e-05
v -0.05174756795167923 -0.00809306837618351 -9.999999747378754e-05
v -0.056046050041913986 -0.003241088707000017 -9.999999747378754e-05
v 0.04968734458088875 -0.008874407969415188 -9.999999747378754e-05
v 0.056046050041913986 0.003241088707000017 -9.999999747378754e-05
v 0.05502207204699516 0.00519211171194911 -9.999999747378754e-05
v -0.05502207204699516 -0.00519211171194911 -9.999999747378754e-05
v 0.05356094241142273 0.006841388065367937 -9.999999747378754e-05
v 0.05657335743308067 -0.0011017052456736565 -9.999999747378754e-05
v 0.05657335743308067 0.0011017052456736565 -9.999999747378754e-05
v 0.05502207204699516 -0.00519211171194911 -9.999999747378754e-05
v 0.05174756795167923 0.00809306837618351 -9.999999747378754e-05
v -0.04968734458088875 -0.008874407969415188 -9.999999747378754e-05
v -0.04749999940395355 -0.009139999747276306 -9.999999747378754e-05
v -0.04749999940395355 0.009139999747276306 -9.999999747378754e-05
v 0.04749999940395355 0.009139999747276306 -9.999999747378754e-05
v 0.04968734458088875 0.008874407969415188 -9.999999747378754e-05
v 0.04749999940395355 -0.009139999747276306 -9.999999747378754e-05
v -0.04749999940395355 -0.009239999577403069 -0.0001999999949475751
v -0.04971127584576607 -0.00897150207310915 -0.0001999999949475751
v -0.05179404094815254 -0.008181613869965076 -0.0001999999949475751
v -0.05362725257873535 -0.006916239392012358 -0.0001999999949475751
v -0.055104371160268784 -0.0052489181980490685 -0.0001999999949475751
v -0.05613955110311508 -0.003276549046859145 -0.0001999999949475751
v -0.056672628968954086 -0.0011137588880956173 -0.0001999999949475751
v -0.056672628968954086 0.0011137588880956173 -0.0001999999949475751
v -0.05613955110311508 0.003276549046859145 -0.0001999999949475751
v -0.055104371160268784 0.0052489181980490685 -0.0001999999949475751
v -0.05362725257873535 0.006916239392012358 -0.0001999999949475751
v -0.05179404094815254 0.008181613869965076 -0.0001999999949475751
v -0.04971127584576607 0.00897150207310915 -0.0001999999949475751
v -0.04749999940395355 0.009239999577403069 -0.0001999999949475751
v 0.04749999940395355 -0.009239999577403069 -0.0001999999949475751
v 0.04749999940395355 0.009239999577403069 -0.0001999999949475751
v 0.04971127584576607 0.00897150207310915 -0.0001999999949475751
v 0.05179404094815254 0.008181613869965076 -0.0001999999949475751
v 0.05362725257873535 0.006916239392012358 -0.0001999999949475751
v 0.055104371160268784 0.0052489181980490685 -0.0001999999949475751
v 0.05613955110311508 0.003276549046859145 -0.0001999999949475751
v 0.056672628968954086 0.0011137588880956173 -0.0001999999949475751
v 0.056672628968954086 -0.0011137588880956173 -0.0001999999949475751
v 0.05613955110311508 -0.003276549046859145 -0.0001999999949475751
v 0.055104371160268784 -0.0052489181980490685 -0.0001999999949475751
v 0.05362725257873535 -0.006916239392012358 -0.0001999999949475751
v 0.05179404094815254 -0.008181613869965076 -0.0001999999949475751
v 0.04971127584576607 -0.00897150207310915 -0.0001999999949475751
v 0.04749999940395355 0.009239999577403069 -0.0005499999970197679
v -0.04749999940395355 0.009239999577403069 -0.0005499999970197679
v -0.04971127584576607 0.00897150207310915 -0.0005499999970197679
v -0.05179404094815254 0.008181613869965076 -0.0005499999970197679
v -0.05362725257873535 0.006916239392012358 -0.0005499999970197679
v -0.055104371160268784 0.0052489181980490685 -0.0005499999970197679
v -0.05613955110311508 0.003276549046859145 -0.0005499999970197679
v -0.056672628968954086 0.0011137588880956173 -0.0005499999970197679
v -0.056672628968954086 -0.0011137588880956173 -0.0005499999970197679
v -0.05613955110311508 -0.003276549046859145 -0.0005499999970197679
v -0.055104371160268784 -0.0052489181980490685 -0.0005499999970197679
v -0.05362725257873535 -0.006916239392012358 -0.0005499999970197679
v -0.05179404094815254 -0.008181613869965076 -0.0005499999970197679
v -0.04971127584576607 -0.00897150207310915 -0.0005499999970197679
v -0.04749999940395355 -0.009239999577403069 -0.0005499999970197679
v 0.04749999940395355 -0.009239999577403069 -0.0005499999970197679
v 0.04971127584576607 -0.00897150207310915 -0.0005499999970197679
v 0.05179404094815254 -0.008181613869965076 -0.0005499999970197679
v 0.05362725257873535 -0.006916239392012358 -0.0005499999970197679
v 0.055104371160268784 -0.0052489181980490685 -0.0005499999970197679
v 0.05613955110311508 -0.003276549046859145 -0.0005499999970197679
v 0.056672628968954086 -0.0011137588880956173 -0.0005499999970197679
v 0.056672628968954086 0.0011137588880956173 -0.0005499999970197679
v 0.05613955110311508 0.003276549046859145 -0.0005499999970197679
v 0.055104371160268784 0.0052489181980490685 -0.0005499999970197679
v 0.05362725257873535 0.006916239392012358 -0.0005499999970197679
v 0.05179404094815254 0.008181613869965076 -0.0005499999970197679
v 0.04971127584576607 0.00897150207310915 -0.0005499999970197679
v 0.04749999940395355 -0.009139999747276306 -0.000650000001769513
v 0.04968734458088875 -0.008874407969415188 -0.000650000001769513
v 0.05174756795167923 -0.00809306837618351 -0.000650000001769513
v 0.05356094241142273 -0.006841388065367937 -0.000650000001769513
v 0.05502207204699516 -0.00519211171194911 -0.000650000001769513
v 0.056046050041913986 -0.003241088707000017 -0.000650000001769513
v 0.05657335743308067 -0.0011017052456736565 -0.000650000001769513
v 0.05657335743308067 0.0011017052456736565 -0.000650000001769513
v 0.056046050041913986 0.003241088707000017 -0.000650000001769513
v 0.05502207204699516 0.00519211171194911 -0.000650000001769513
v 0.05356094241142273 0.006841388065367937 -0.000650000001769513
v 0.05174756795167923 0.00809306837618351 -0.000650000001769513
v 0.04968734458088875 0.008874407969415188 -0.000650000001769513
v 0.04749999940395355 0.009139999747276306 -0.000650000001769513
v -0.05502207204699516 -0.00519211171194911 -0.000650000001769513
v -0.05356094241142273 0.006841388065367937 -0.000650000001769513
v -0.05174756795167923 0.00809306837618351 -0.000650000001769513
v -0.056046050041913986 0.003241088707000017 -0.000650000001769513
v -0.05502207204699516 0.00519211171194911 -0.000650000001769513
v -0.05657335743308067 -0.0011017052456736565 -0.000650000001769513
v -0.05657335743308067 0.0011017052456736565 -0.000650000001769513
v -0.056046050041913986 -0.003241088707000017 -0.000650000001769513
v -0.04968734458088875 0.008874407969415188 -0.000650000001769513
v -0.04968734458088875 -0.008874407969415188 -0.000650000001769513
v -0.05174756795167923 -0.00809306837618351 -0.000650000001769513
v -0.05356094241142273 -0.006841388065367937 -0.000650000001769513
v -0.04749999940395355 0.009139999747276306 -0.000650000001769513
v -0.04749999940395355 -0.009139999747276306 -0.000650000001769513
usemtl head_darkblack
f 22 27 14
f 27 26 14
f 14 26 28
f 28 26 24
f 26 25 24
f 24 25 1
f 10 21 8
f 15 14 20
f 14 19 20
f 1 17 11
f 15 16 14
f 16 18 14
f 14 18 22
f 11 12 1
f 12 23 1
f 1 23 24
f 19 14 8
f 14 9 8
f 8 9 10
f 1 6 7
f 7 4 1
f 4 5 1
f 1 5 2
f 2 3 1
f 3 13 1
f 1 13 17
f 25 42 41
f 25 41 1
f 41 40 1
f 1 40 6
f 40 39 6
f 6 39 7
f 39 38 7
f 7 38 4
f 38 37 4
f 4 37 5
f 37 36 5
f 5 36 2
f 36 35 2
f 2 35 3
f 35 34 3
f 3 34 13
f 34 33 13
f 13 33 17
f 33 32 17
f 17 32 11
f 32 31 11
f 11 31 12
f 31 30 12
f 12 30 23
f 30 29 23
f 23 29 24
f 43 28 29
f 28 24 29
f 28 43 56
f 28 56 14
f 56 55 14
f 14 55 9
f 55 54 9
f 9 54 10
f 54 53 10
f 10 53 21
f 53 52 21
f 21 52 8
f 52 51 8
f 8 51 19
f 51 50 19
f 19 50 20
f 50 49 20
f 20 49 15
f 49 48 15
f 15 48 16
f 48 47 16
f 16 47 18
f 47 46 18
f 18 46 22
f 46 45 22
f 22 45 27
f 45 44 27
f 27 44 26
f 42 25 44
f 25 26 44
f 42 44 58
f 44 57 58
f 71 29 30
f 71 30 70
f 30 31 70
f 70 31 69
f 31 32 69
f 69 32 68
f 32 33 68
f 68 33 67
f 33 34 67
f 67 34 66
f 34 35 66
f 66 35 65
f 35 36 65
f 65 36 64
f 36 37 64
f 64 37 63
f 37 38 63
f 63 38 62
f 38 39 62
f 62 39 61
f 39 40 61
f 61 40 60
f 40 41 60
f 60 41 59
f 41 42 59
f 59 42 58
f 43 29 72
f 29 71 72
f 112 71 70
f 112 70 108
f 70 69 108
f 108 69 109
f 69 68 109
f 109 68 110
f 68 67 110
f 110 67 99
f 67 66 99
f 99 66 106
f 66 65 106
f 106 65 104
f 65 64 104
f 104 64 105
f 64 63 105
f 105 63 102
f 63 62 102
f 102 62 103
f 62 61 103
f 103 61 100
f 61 60 100
f 100 60 101
f 60 59 101
f 101 59 107
f 59 58 107
f 107 58 111
f 71 112 72
f 112 85 72
f 57 98 58
f 98 111 58
f 111 98 85
f 98 97 85
f 85 97 86
f 85 112 111
f 112 108 111
f 111 108 107
f 108 109 107
f 106 104 99
f 104 105 99
f 105 102 99
f 102 103 99
f 99 103 100
f 109 110 107
f 110 99 107
f 107 99 101
f 99 100 101
f 89 97 90
f 97 91 90
f 95 94 96
f 94 93 96
f 96 93 97
f 93 92 97
f 97 92 91
f 89 88 97
f 88 87 97
f 97 87 86
f 98 57 84
f 98 84 97
f 84 83 97
f 97 83 96
f 83 82 96
f 96 82 95
f 82 81 95
f 95 81 94
f 81 80 94
f 94 80 93
f 80 79 93
f 93 79 92
f 79 78 92
f 92 78 91
f 78 77 91
f 91 77 90
f 77 76 90
f 90 76 89
f 76 75 89
f 89 75 88
f 75 74 88
f 88 74 87
f 74 73 87
f 87 73 86
f 73 72 86
f 86 72 85
f 57 44 45
f 57 45 84
f 45 46 84
f 84 46 83
f 46 47 83
f 83 47 82
f 47 48 82
f 82 48 81
f 48 49 81
f 81 49 80
f 49 50 80
f 80 50 79
f 50 51 79
f 79 51 78
f 51 52 78
f 78 52 77
f 52 53 77
f 77 53 76
f 53 54 76
f 76 54 75
f 54 55 75
f 75 55 74
f 55 56 74
f 74 56 73
f 56 43 73
f 73 43 72
